<svg width="1920" height="821" viewBox="0 0 1920 821" fill="none" xmlns="http://www.w3.org/2000/svg">
<rect width="1920" height="821" fill="white"/>
<path d="M1352.92 205.085C1355.68 205.085 1358.16 205.733 1360.34 207.028C1362.55 208.323 1364.29 210.131 1365.56 212.451C1366.84 214.752 1367.48 217.42 1367.48 220.455V232.577C1367.48 235.864 1366.84 238.706 1365.56 241.103C1364.29 243.481 1362.49 245.318 1360.17 246.613C1357.85 247.889 1355.12 248.527 1351.99 248.527C1349.96 248.527 1348.03 248.227 1346.19 247.628C1344.37 247.009 1342.69 245.994 1341.14 244.583L1346.77 238.957C1347.47 239.653 1348.27 240.194 1349.18 240.581C1350.1 240.968 1351.04 241.161 1351.99 241.161C1353.5 241.161 1354.8 240.813 1355.9 240.117C1357.03 239.402 1357.89 238.483 1358.49 237.362C1359.1 236.221 1359.41 235.013 1359.41 233.737V227.531L1360.75 228.981C1359.57 230.199 1358.19 231.137 1356.6 231.794C1355.02 232.432 1353.38 232.751 1351.7 232.751C1349.07 232.751 1346.75 232.161 1344.74 230.982C1342.75 229.803 1341.18 228.188 1340.04 226.139C1338.92 224.09 1338.36 221.75 1338.36 219.121C1338.36 216.492 1339.03 214.123 1340.36 212.016C1341.69 209.889 1343.46 208.207 1345.67 206.97C1347.87 205.713 1350.29 205.085 1352.92 205.085ZM1352.92 212.625C1351.72 212.625 1350.62 212.915 1349.61 213.495C1348.63 214.075 1347.83 214.858 1347.23 215.844C1346.65 216.83 1346.36 217.922 1346.36 219.121C1346.36 220.32 1346.65 221.422 1347.23 222.427C1347.81 223.413 1348.6 224.206 1349.58 224.805C1350.57 225.385 1351.66 225.675 1352.86 225.675C1354.06 225.675 1355.15 225.385 1356.14 224.805C1357.14 224.206 1357.93 223.413 1358.51 222.427C1359.11 221.422 1359.41 220.32 1359.41 219.121C1359.41 217.961 1359.12 216.888 1358.54 215.902C1357.96 214.916 1357.18 214.123 1356.19 213.524C1355.21 212.925 1354.12 212.625 1352.92 212.625ZM1387.26 205.085C1390.02 205.085 1392.5 205.733 1394.68 207.028C1396.89 208.323 1398.63 210.131 1399.9 212.451C1401.18 214.752 1401.82 217.42 1401.82 220.455V232.577C1401.82 235.864 1401.18 238.706 1399.9 241.103C1398.63 243.481 1396.83 245.318 1394.51 246.613C1392.19 247.889 1389.46 248.527 1386.33 248.527C1384.3 248.527 1382.37 248.227 1380.53 247.628C1378.71 247.009 1377.03 245.994 1375.48 244.583L1381.11 238.957C1381.81 239.653 1382.61 240.194 1383.52 240.581C1384.44 240.968 1385.38 241.161 1386.33 241.161C1387.84 241.161 1389.14 240.813 1390.24 240.117C1391.37 239.402 1392.23 238.483 1392.83 237.362C1393.44 236.221 1393.75 235.013 1393.75 233.737V227.531L1395.09 228.981C1393.91 230.199 1392.53 231.137 1390.94 231.794C1389.36 232.432 1387.72 232.751 1386.04 232.751C1383.41 232.751 1381.09 232.161 1379.08 230.982C1377.09 229.803 1375.52 228.188 1374.38 226.139C1373.26 224.09 1372.7 221.75 1372.7 219.121C1372.7 216.492 1373.37 214.123 1374.7 212.016C1376.03 209.889 1377.8 208.207 1380.01 206.97C1382.21 205.713 1384.63 205.085 1387.26 205.085ZM1387.26 212.625C1386.06 212.625 1384.96 212.915 1383.95 213.495C1382.97 214.075 1382.17 214.858 1381.57 215.844C1380.99 216.83 1380.7 217.922 1380.7 219.121C1380.7 220.32 1380.99 221.422 1381.57 222.427C1382.15 223.413 1382.94 224.206 1383.92 224.805C1384.91 225.385 1386 225.675 1387.2 225.675C1388.4 225.675 1389.49 225.385 1390.48 224.805C1391.48 224.206 1392.27 223.413 1392.85 222.427C1393.45 221.422 1393.75 220.32 1393.75 219.121C1393.75 217.961 1393.46 216.888 1392.88 215.902C1392.3 214.916 1391.52 214.123 1390.53 213.524C1389.55 212.925 1388.46 212.625 1387.26 212.625ZM1409.48 247.657V239.769H1417.36V247.657H1409.48ZM1438.44 205.085C1441.2 205.085 1443.68 205.733 1445.86 207.028C1448.06 208.323 1449.8 210.131 1451.08 212.451C1452.36 214.752 1452.99 217.42 1452.99 220.455V232.577C1452.99 235.864 1452.36 238.706 1451.08 241.103C1449.8 243.481 1448.01 245.318 1445.69 246.613C1443.37 247.889 1440.64 248.527 1437.51 248.527C1435.48 248.527 1433.54 248.227 1431.71 247.628C1429.89 247.009 1428.21 245.994 1426.66 244.583L1432.29 238.957C1432.98 239.653 1433.79 240.194 1434.69 240.581C1435.62 240.968 1436.56 241.161 1437.51 241.161C1439.02 241.161 1440.32 240.813 1441.42 240.117C1442.54 239.402 1443.4 238.483 1444 237.362C1444.62 236.221 1444.93 235.013 1444.93 233.737V227.531L1446.27 228.981C1445.09 230.199 1443.7 231.137 1442.12 231.794C1440.53 232.432 1438.9 232.751 1437.22 232.751C1434.59 232.751 1432.27 232.161 1430.26 230.982C1428.27 229.803 1426.7 228.188 1425.56 226.139C1424.44 224.09 1423.88 221.75 1423.88 219.121C1423.88 216.492 1424.54 214.123 1425.88 212.016C1427.21 209.889 1428.98 208.207 1431.19 206.97C1433.39 205.713 1435.81 205.085 1438.44 205.085ZM1438.44 212.625C1437.24 212.625 1436.14 212.915 1435.13 213.495C1434.14 214.075 1433.35 214.858 1432.75 215.844C1432.17 216.83 1431.88 217.922 1431.88 219.121C1431.88 220.32 1432.17 221.422 1432.75 222.427C1433.33 223.413 1434.11 224.206 1435.1 224.805C1436.09 225.385 1437.18 225.675 1438.38 225.675C1439.58 225.675 1440.67 225.385 1441.65 224.805C1442.66 224.206 1443.45 223.413 1444.03 222.427C1444.63 221.422 1444.93 220.32 1444.93 219.121C1444.93 217.961 1444.64 216.888 1444.06 215.902C1443.48 214.916 1442.7 214.123 1441.71 213.524C1440.73 212.925 1439.63 212.625 1438.44 212.625ZM1465.76 247.657L1460.54 242.437L1497.08 205.897L1502.3 211.175L1465.76 247.657ZM1493.6 248.527C1491.68 248.527 1489.93 248.063 1488.35 247.135C1486.78 246.188 1485.53 244.931 1484.58 243.365C1483.63 241.78 1483.16 240.02 1483.16 238.087C1483.16 236.192 1483.64 234.452 1484.61 232.867C1485.57 231.282 1486.85 230.015 1488.44 229.068C1490.02 228.121 1491.74 227.647 1493.6 227.647C1495.51 227.647 1497.26 228.121 1498.85 229.068C1500.43 229.996 1501.69 231.253 1502.62 232.838C1503.56 234.404 1504.04 236.154 1504.04 238.087C1504.04 240.02 1503.56 241.78 1502.62 243.365C1501.69 244.931 1500.43 246.188 1498.85 247.135C1497.26 248.063 1495.51 248.527 1493.6 248.527ZM1493.6 241.857C1494.27 241.857 1494.89 241.683 1495.45 241.335C1496.03 240.987 1496.5 240.533 1496.85 239.972C1497.19 239.392 1497.37 238.764 1497.37 238.087C1497.37 237.41 1497.19 236.792 1496.85 236.231C1496.5 235.651 1496.03 235.187 1495.45 234.839C1494.89 234.491 1494.27 234.317 1493.6 234.317C1492.92 234.317 1492.29 234.491 1491.71 234.839C1491.15 235.187 1490.7 235.651 1490.35 236.231C1490 236.792 1489.83 237.41 1489.83 238.087C1489.83 238.764 1490 239.392 1490.35 239.972C1490.7 240.533 1491.15 240.987 1491.71 241.335C1492.29 241.683 1492.92 241.857 1493.6 241.857ZM1469.24 225.907C1467.32 225.907 1465.57 225.443 1463.99 224.515C1462.4 223.568 1461.14 222.311 1460.19 220.745C1459.26 219.16 1458.8 217.4 1458.8 215.467C1458.8 213.572 1459.28 211.832 1460.25 210.247C1461.21 208.662 1462.49 207.395 1464.08 206.448C1465.66 205.501 1467.38 205.027 1469.24 205.027C1471.15 205.027 1472.89 205.501 1474.46 206.448C1476.04 207.376 1477.31 208.633 1478.26 210.218C1479.2 211.784 1479.68 213.534 1479.68 215.467C1479.68 217.4 1479.2 219.16 1478.26 220.745C1477.31 222.311 1476.04 223.568 1474.46 224.515C1472.89 225.443 1471.15 225.907 1469.24 225.907ZM1469.24 219.237C1469.91 219.237 1470.53 219.063 1471.09 218.715C1471.67 218.367 1472.14 217.913 1472.49 217.352C1472.83 216.772 1473.01 216.144 1473.01 215.467C1473.01 214.79 1472.83 214.172 1472.49 213.611C1472.14 213.031 1471.67 212.567 1471.09 212.219C1470.53 211.871 1469.91 211.697 1469.24 211.697C1468.56 211.697 1467.93 211.871 1467.35 212.219C1466.79 212.567 1466.34 213.031 1465.99 213.611C1465.64 214.172 1465.47 214.79 1465.47 215.467C1465.47 216.144 1465.64 216.772 1465.99 217.352C1466.34 217.913 1466.79 218.367 1467.35 218.715C1467.93 219.063 1468.56 219.237 1469.24 219.237Z" fill="#661CE7"/>
<path opacity="0.7" d="M1339.94 300.36C1338.7 300.36 1337.58 300.148 1336.58 299.724C1335.59 299.292 1334.77 298.68 1334.12 297.888C1333.48 297.088 1333.07 296.14 1332.88 295.044L1335.49 294.648C1335.76 295.704 1336.31 296.528 1337.15 297.12C1337.99 297.704 1338.97 297.996 1340.09 297.996C1340.78 297.996 1341.42 297.888 1342.01 297.672C1342.59 297.448 1343.06 297.132 1343.41 296.724C1343.77 296.308 1343.95 295.812 1343.95 295.236C1343.95 294.924 1343.9 294.648 1343.78 294.408C1343.68 294.168 1343.53 293.96 1343.34 293.784C1343.16 293.6 1342.93 293.444 1342.66 293.316C1342.39 293.18 1342.1 293.064 1341.78 292.968L1337.35 291.66C1336.92 291.532 1336.48 291.368 1336.03 291.168C1335.58 290.96 1335.17 290.692 1334.8 290.364C1334.43 290.028 1334.13 289.616 1333.9 289.128C1333.66 288.632 1333.55 288.032 1333.55 287.328C1333.55 286.264 1333.82 285.364 1334.36 284.628C1334.92 283.884 1335.66 283.324 1336.6 282.948C1337.53 282.564 1338.58 282.372 1339.74 282.372C1340.91 282.388 1341.95 282.596 1342.87 282.996C1343.8 283.396 1344.57 283.972 1345.18 284.724C1345.79 285.468 1346.22 286.372 1346.45 287.436L1343.76 287.892C1343.64 287.244 1343.38 286.688 1342.99 286.224C1342.6 285.752 1342.12 285.392 1341.55 285.144C1340.98 284.888 1340.37 284.756 1339.7 284.748C1339.06 284.732 1338.48 284.828 1337.94 285.036C1337.41 285.244 1336.99 285.536 1336.67 285.912C1336.36 286.288 1336.2 286.72 1336.2 287.208C1336.2 287.688 1336.34 288.076 1336.62 288.372C1336.9 288.668 1337.24 288.904 1337.65 289.08C1338.07 289.248 1338.48 289.388 1338.89 289.5L1342.08 290.4C1342.48 290.512 1342.93 290.664 1343.44 290.856C1343.95 291.04 1344.44 291.3 1344.91 291.636C1345.39 291.972 1345.79 292.42 1346.1 292.98C1346.41 293.532 1346.57 294.228 1346.57 295.068C1346.57 295.94 1346.39 296.708 1346.04 297.372C1345.69 298.028 1345.2 298.58 1344.59 299.028C1343.98 299.468 1343.28 299.8 1342.48 300.024C1341.68 300.248 1340.83 300.36 1339.94 300.36ZM1352.07 300.36C1351.11 300.36 1350.3 300.184 1349.65 299.832C1349.01 299.472 1348.51 299 1348.18 298.416C1347.85 297.824 1347.69 297.176 1347.69 296.472C1347.69 295.816 1347.8 295.24 1348.03 294.744C1348.27 294.248 1348.61 293.828 1349.07 293.484C1349.52 293.132 1350.08 292.848 1350.75 292.632C1351.32 292.464 1351.97 292.316 1352.7 292.188C1353.43 292.06 1354.19 291.94 1354.99 291.828C1355.8 291.716 1356.6 291.604 1357.39 291.492L1356.48 291.996C1356.5 290.98 1356.28 290.228 1355.83 289.74C1355.39 289.244 1354.63 288.996 1353.55 288.996C1352.87 288.996 1352.25 289.156 1351.68 289.476C1351.11 289.788 1350.72 290.308 1350.49 291.036L1348.15 290.316C1348.47 289.204 1349.08 288.32 1349.98 287.664C1350.88 287.008 1352.08 286.68 1353.58 286.68C1354.74 286.68 1355.75 286.88 1356.6 287.28C1357.47 287.672 1358.1 288.296 1358.5 289.152C1358.71 289.576 1358.83 290.024 1358.88 290.496C1358.93 290.968 1358.95 291.476 1358.95 292.02V300H1356.73V297.036L1357.17 297.42C1356.63 298.412 1355.95 299.152 1355.11 299.64C1354.29 300.12 1353.27 300.36 1352.07 300.36ZM1352.51 298.308C1353.22 298.308 1353.83 298.184 1354.35 297.936C1354.86 297.68 1355.27 297.356 1355.58 296.964C1355.89 296.572 1356.1 296.164 1356.19 295.74C1356.33 295.356 1356.41 294.924 1356.42 294.444C1356.45 293.964 1356.46 293.58 1356.46 293.292L1357.27 293.592C1356.48 293.712 1355.76 293.82 1355.11 293.916C1354.47 294.012 1353.88 294.108 1353.35 294.204C1352.83 294.292 1352.37 294.4 1351.96 294.528C1351.61 294.648 1351.31 294.792 1351.03 294.96C1350.77 295.128 1350.56 295.332 1350.4 295.572C1350.25 295.812 1350.17 296.104 1350.17 296.448C1350.17 296.784 1350.25 297.096 1350.42 297.384C1350.59 297.664 1350.85 297.888 1351.19 298.056C1351.53 298.224 1351.97 298.308 1352.51 298.308ZM1368.77 300C1367.95 300.16 1367.15 300.228 1366.37 300.204C1365.58 300.18 1364.88 300.028 1364.27 299.748C1363.65 299.468 1363.19 299.028 1362.87 298.428C1362.59 297.892 1362.44 297.348 1362.42 296.796C1362.4 296.236 1362.39 295.604 1362.39 294.9V283.44H1364.91V294.78C1364.91 295.3 1364.92 295.752 1364.93 296.136C1364.94 296.52 1365.03 296.844 1365.18 297.108C1365.47 297.604 1365.92 297.888 1366.55 297.96C1367.18 298.024 1367.92 297.996 1368.77 297.876V300ZM1359.91 289.056V287.04H1368.77V289.056H1359.91ZM1371.02 284.916V282.48H1373.53V284.916H1371.02ZM1371.02 300V287.04H1373.53V300H1371.02ZM1381.37 300.348C1379.79 300.348 1378.51 300 1377.51 299.304C1376.52 298.608 1375.91 297.628 1375.69 296.364L1378.26 295.968C1378.42 296.64 1378.79 297.172 1379.36 297.564C1379.95 297.948 1380.67 298.14 1381.53 298.14C1382.32 298.14 1382.93 297.98 1383.37 297.66C1383.82 297.34 1384.04 296.9 1384.04 296.34C1384.04 296.012 1383.96 295.748 1383.8 295.548C1383.65 295.34 1383.33 295.144 1382.83 294.96C1382.33 294.776 1381.58 294.548 1380.56 294.276C1379.45 293.988 1378.57 293.68 1377.91 293.352C1377.26 293.016 1376.8 292.628 1376.52 292.188C1376.25 291.74 1376.11 291.2 1376.11 290.568C1376.11 289.784 1376.32 289.1 1376.73 288.516C1377.15 287.932 1377.73 287.48 1378.49 287.16C1379.25 286.84 1380.13 286.68 1381.15 286.68C1382.14 286.68 1383.03 286.836 1383.8 287.148C1384.58 287.46 1385.21 287.904 1385.69 288.48C1386.17 289.048 1386.45 289.716 1386.55 290.484L1383.98 290.952C1383.89 290.328 1383.6 289.836 1383.11 289.476C1382.61 289.116 1381.97 288.92 1381.17 288.888C1380.41 288.856 1379.8 288.984 1379.33 289.272C1378.85 289.552 1378.62 289.94 1378.62 290.436C1378.62 290.724 1378.71 290.968 1378.88 291.168C1379.07 291.368 1379.42 291.56 1379.94 291.744C1380.46 291.928 1381.23 292.148 1382.24 292.404C1383.33 292.684 1384.19 292.996 1384.83 293.34C1385.47 293.676 1385.93 294.08 1386.2 294.552C1386.48 295.016 1386.62 295.58 1386.62 296.244C1386.62 297.524 1386.15 298.528 1385.22 299.256C1384.29 299.984 1383.01 300.348 1381.37 300.348ZM1389.74 300V286.584C1389.74 286.256 1389.76 285.908 1389.78 285.54C1389.8 285.164 1389.87 284.796 1389.98 284.436C1390.1 284.068 1390.3 283.732 1390.57 283.428C1390.9 283.068 1391.26 282.812 1391.65 282.66C1392.04 282.508 1392.43 282.42 1392.82 282.396C1393.21 282.372 1393.57 282.36 1393.9 282.36H1395.53V284.424H1394.02C1393.42 284.424 1392.98 284.572 1392.68 284.868C1392.4 285.156 1392.25 285.568 1392.25 286.104V300H1389.74ZM1387.6 289.056V287.04H1395.53V289.056H1387.6ZM1400.03 300.36C1399.07 300.36 1398.26 300.184 1397.62 299.832C1396.97 299.472 1396.48 299 1396.14 298.416C1395.81 297.824 1395.65 297.176 1395.65 296.472C1395.65 295.816 1395.76 295.24 1396 294.744C1396.23 294.248 1396.57 293.828 1397.03 293.484C1397.48 293.132 1398.04 292.848 1398.71 292.632C1399.28 292.464 1399.94 292.316 1400.66 292.188C1401.39 292.06 1402.16 291.94 1402.96 291.828C1403.76 291.716 1404.56 291.604 1405.36 291.492L1404.44 291.996C1404.46 290.98 1404.24 290.228 1403.8 289.74C1403.36 289.244 1402.6 288.996 1401.52 288.996C1400.84 288.996 1400.21 289.156 1399.64 289.476C1399.08 289.788 1398.68 290.308 1398.46 291.036L1396.12 290.316C1396.44 289.204 1397.04 288.32 1397.94 287.664C1398.84 287.008 1400.04 286.68 1401.54 286.68C1402.7 286.68 1403.71 286.88 1404.56 287.28C1405.43 287.672 1406.06 288.296 1406.46 289.152C1406.67 289.576 1406.8 290.024 1406.84 290.496C1406.89 290.968 1406.92 291.476 1406.92 292.02V300H1404.7V297.036L1405.13 297.42C1404.59 298.412 1403.91 299.152 1403.08 299.64C1402.25 300.12 1401.24 300.36 1400.03 300.36ZM1400.47 298.308C1401.18 298.308 1401.8 298.184 1402.31 297.936C1402.82 297.68 1403.23 297.356 1403.54 296.964C1403.86 296.572 1404.06 296.164 1404.16 295.74C1404.29 295.356 1404.37 294.924 1404.38 294.444C1404.41 293.964 1404.42 293.58 1404.42 293.292L1405.24 293.592C1404.44 293.712 1403.72 293.82 1403.08 293.916C1402.43 294.012 1401.84 294.108 1401.31 294.204C1400.79 294.292 1400.33 294.4 1399.92 294.528C1399.58 294.648 1399.27 294.792 1399 294.96C1398.73 295.128 1398.52 295.332 1398.36 295.572C1398.21 295.812 1398.13 296.104 1398.13 296.448C1398.13 296.784 1398.22 297.096 1398.38 297.384C1398.55 297.664 1398.81 297.888 1399.15 298.056C1399.5 298.224 1399.94 298.308 1400.47 298.308ZM1414.86 300.36C1413.53 300.36 1412.4 300.064 1411.47 299.472C1410.54 298.88 1409.83 298.068 1409.34 297.036C1408.85 296.004 1408.6 294.832 1408.59 293.52C1408.6 292.184 1408.86 291.004 1409.36 289.98C1409.86 288.948 1410.58 288.14 1411.52 287.556C1412.46 286.972 1413.58 286.68 1414.89 286.68C1416.31 286.68 1417.52 287.032 1418.52 287.736C1419.52 288.44 1420.19 289.404 1420.51 290.628L1418.01 291.348C1417.76 290.62 1417.36 290.056 1416.79 289.656C1416.23 289.248 1415.58 289.044 1414.86 289.044C1414.03 289.044 1413.36 289.24 1412.83 289.632C1412.3 290.016 1411.91 290.544 1411.65 291.216C1411.4 291.888 1411.26 292.656 1411.26 293.52C1411.26 294.856 1411.57 295.936 1412.17 296.76C1412.78 297.584 1413.67 297.996 1414.86 297.996C1415.66 297.996 1416.32 297.812 1416.81 297.444C1417.32 297.068 1417.7 296.532 1417.96 295.836L1420.51 296.436C1420.08 297.7 1419.38 298.672 1418.41 299.352C1417.43 300.024 1416.25 300.36 1414.86 300.36ZM1422.12 284.916V282.48H1424.63V284.916H1422.12ZM1422.12 300V287.04H1424.63V300H1422.12ZM1434.14 285.12H1432.17L1433.88 280.92H1435.85L1434.14 285.12ZM1433.14 300.36C1431.84 300.36 1430.72 300.068 1429.77 299.484C1428.82 298.9 1428.08 298.096 1427.56 297.072C1427.05 296.04 1426.79 294.852 1426.79 293.508C1426.79 292.156 1427.06 290.968 1427.58 289.944C1428.11 288.912 1428.85 288.112 1429.8 287.544C1430.76 286.968 1431.87 286.68 1433.14 286.68C1434.44 286.68 1435.56 286.972 1436.51 287.556C1437.46 288.14 1438.2 288.944 1438.72 289.968C1439.24 290.992 1439.5 292.172 1439.5 293.508C1439.5 294.86 1439.24 296.052 1438.71 297.084C1438.19 298.108 1437.45 298.912 1436.5 299.496C1435.55 300.072 1434.43 300.36 1433.14 300.36ZM1433.14 297.996C1434.38 297.996 1435.3 297.58 1435.91 296.748C1436.53 295.908 1436.84 294.828 1436.84 293.508C1436.84 292.156 1436.52 291.076 1435.9 290.268C1435.28 289.452 1434.36 289.044 1433.14 289.044C1432.3 289.044 1431.61 289.236 1431.06 289.62C1430.52 289.996 1430.12 290.52 1429.85 291.192C1429.59 291.856 1429.46 292.628 1429.46 293.508C1429.46 294.868 1429.77 295.956 1430.39 296.772C1431.02 297.588 1431.93 297.996 1433.14 297.996ZM1450.51 300V293.628C1450.51 293.124 1450.47 292.608 1450.38 292.08C1450.3 291.544 1450.14 291.048 1449.9 290.592C1449.67 290.136 1449.34 289.768 1448.91 289.488C1448.48 289.208 1447.93 289.068 1447.24 289.068C1446.79 289.068 1446.37 289.144 1445.97 289.296C1445.57 289.44 1445.21 289.676 1444.91 290.004C1444.61 290.332 1444.38 290.764 1444.2 291.3C1444.03 291.836 1443.95 292.488 1443.95 293.256L1442.39 292.668C1442.39 291.492 1442.61 290.456 1443.05 289.56C1443.49 288.656 1444.12 287.952 1444.95 287.448C1445.77 286.944 1446.77 286.692 1447.93 286.692C1448.83 286.692 1449.58 286.836 1450.19 287.124C1450.8 287.412 1451.29 287.792 1451.67 288.264C1452.05 288.728 1452.34 289.236 1452.54 289.788C1452.74 290.34 1452.88 290.88 1452.95 291.408C1453.02 291.936 1453.06 292.4 1453.06 292.8V300H1450.51ZM1441.41 300V287.04H1443.65V290.784H1443.95V300H1441.41ZM1464.7 300.36C1463.49 300.36 1462.44 300.06 1461.56 299.46C1460.69 298.86 1460.02 298.044 1459.54 297.012C1459.06 295.972 1458.83 294.804 1458.83 293.508C1458.83 292.204 1459.07 291.04 1459.55 290.016C1460.03 288.984 1460.71 288.172 1461.59 287.58C1462.48 286.98 1463.53 286.68 1464.74 286.68C1465.97 286.68 1467 286.98 1467.83 287.58C1468.67 288.172 1469.3 288.984 1469.72 290.016C1470.16 291.048 1470.37 292.212 1470.37 293.508C1470.37 294.804 1470.16 295.968 1469.72 297C1469.29 298.032 1468.66 298.852 1467.82 299.46C1466.98 300.06 1465.94 300.36 1464.7 300.36ZM1465.04 298.092C1465.87 298.092 1466.54 297.896 1467.06 297.504C1467.58 297.112 1467.96 296.572 1468.2 295.884C1468.44 295.196 1468.56 294.404 1468.56 293.508C1468.56 292.612 1468.44 291.82 1468.19 291.132C1467.95 290.444 1467.57 289.908 1467.06 289.524C1466.56 289.14 1465.91 288.948 1465.13 288.948C1464.3 288.948 1463.61 289.152 1463.08 289.56C1462.54 289.968 1462.14 290.516 1461.88 291.204C1461.62 291.892 1461.49 292.66 1461.49 293.508C1461.49 294.364 1461.62 295.14 1461.88 295.836C1462.14 296.524 1462.53 297.072 1463.05 297.48C1463.58 297.888 1464.24 298.092 1465.04 298.092ZM1468.56 300V290.676H1468.27V282.72H1470.79V300H1468.56ZM1479.18 300.36C1477.89 300.36 1476.76 300.08 1475.78 299.52C1474.81 298.952 1474.06 298.164 1473.51 297.156C1472.98 296.14 1472.71 294.964 1472.71 293.628C1472.71 292.212 1472.97 290.984 1473.5 289.944C1474.04 288.904 1474.78 288.1 1475.73 287.532C1476.69 286.964 1477.79 286.68 1479.06 286.68C1480.38 286.68 1481.5 286.988 1482.43 287.604C1483.36 288.212 1484.05 289.08 1484.51 290.208C1484.97 291.336 1485.15 292.676 1485.06 294.228H1482.55V293.316C1482.53 291.812 1482.25 290.7 1481.69 289.98C1481.13 289.26 1480.29 288.9 1479.15 288.9C1477.9 288.9 1476.95 289.296 1476.32 290.088C1475.69 290.88 1475.37 292.024 1475.37 293.52C1475.37 294.944 1475.69 296.048 1476.32 296.832C1476.95 297.608 1477.87 297.996 1479.06 297.996C1479.84 297.996 1480.52 297.82 1481.09 297.468C1481.66 297.108 1482.11 296.596 1482.43 295.932L1484.89 296.712C1484.39 297.872 1483.62 298.772 1482.6 299.412C1481.57 300.044 1480.43 300.36 1479.18 300.36ZM1474.56 294.228V292.272H1483.81V294.228H1474.56ZM1333.92 336V318.36H1336.43V336H1333.92ZM1344.94 336.36C1343.64 336.36 1342.52 336.068 1341.57 335.484C1340.62 334.9 1339.88 334.096 1339.36 333.072C1338.85 332.04 1338.59 330.852 1338.59 329.508C1338.59 328.156 1338.86 326.968 1339.38 325.944C1339.91 324.912 1340.65 324.112 1341.6 323.544C1342.56 322.968 1343.67 322.68 1344.94 322.68C1346.24 322.68 1347.36 322.972 1348.31 323.556C1349.26 324.14 1350 324.944 1350.52 325.968C1351.04 326.992 1351.3 328.172 1351.3 329.508C1351.3 330.86 1351.04 332.052 1350.51 333.084C1349.99 334.108 1349.25 334.912 1348.3 335.496C1347.35 336.072 1346.23 336.36 1344.94 336.36ZM1344.94 333.996C1346.18 333.996 1347.1 333.58 1347.71 332.748C1348.33 331.908 1348.64 330.828 1348.64 329.508C1348.64 328.156 1348.32 327.076 1347.7 326.268C1347.08 325.452 1346.16 325.044 1344.94 325.044C1344.1 325.044 1343.41 325.236 1342.86 325.62C1342.32 325.996 1341.92 326.52 1341.65 327.192C1341.39 327.856 1341.26 328.628 1341.26 329.508C1341.26 330.868 1341.57 331.956 1342.19 332.772C1342.82 333.588 1343.73 333.996 1344.94 333.996ZM1357.94 336.348C1356.36 336.348 1355.08 336 1354.09 335.304C1353.09 334.608 1352.49 333.628 1352.26 332.364L1354.83 331.968C1354.99 332.64 1355.36 333.172 1355.93 333.564C1356.52 333.948 1357.24 334.14 1358.11 334.14C1358.89 334.14 1359.5 333.98 1359.94 333.66C1360.39 333.34 1360.61 332.9 1360.61 332.34C1360.61 332.012 1360.53 331.748 1360.37 331.548C1360.22 331.34 1359.9 331.144 1359.4 330.96C1358.91 330.776 1358.15 330.548 1357.13 330.276C1356.02 329.988 1355.14 329.68 1354.48 329.352C1353.83 329.016 1353.37 328.628 1353.09 328.188C1352.82 327.74 1352.68 327.2 1352.68 326.568C1352.68 325.784 1352.89 325.1 1353.31 324.516C1353.72 323.932 1354.31 323.48 1355.06 323.16C1355.82 322.84 1356.71 322.68 1357.72 322.68C1358.71 322.68 1359.6 322.836 1360.37 323.148C1361.15 323.46 1361.78 323.904 1362.26 324.48C1362.74 325.048 1363.03 325.716 1363.12 326.484L1360.55 326.952C1360.47 326.328 1360.17 325.836 1359.68 325.476C1359.18 325.116 1358.54 324.92 1357.75 324.888C1356.99 324.856 1356.37 324.984 1355.9 325.272C1355.43 325.552 1355.19 325.94 1355.19 326.436C1355.19 326.724 1355.28 326.968 1355.45 327.168C1355.64 327.368 1355.99 327.56 1356.51 327.744C1357.03 327.928 1357.8 328.148 1358.81 328.404C1359.9 328.684 1360.77 328.996 1361.41 329.34C1362.05 329.676 1362.5 330.08 1362.77 330.552C1363.05 331.016 1363.19 331.58 1363.19 332.244C1363.19 333.524 1362.73 334.528 1361.79 335.256C1360.86 335.984 1359.58 336.348 1357.94 336.348ZM1374.76 336.36C1373.43 336.36 1372.3 336.064 1371.37 335.472C1370.45 334.88 1369.73 334.068 1369.24 333.036C1368.75 332.004 1368.5 330.832 1368.49 329.52C1368.5 328.184 1368.76 327.004 1369.26 325.98C1369.77 324.948 1370.49 324.14 1371.42 323.556C1372.36 322.972 1373.48 322.68 1374.79 322.68C1376.21 322.68 1377.42 323.032 1378.42 323.736C1379.43 324.44 1380.09 325.404 1380.41 326.628L1377.91 327.348C1377.67 326.62 1377.26 326.056 1376.69 325.656C1376.13 325.248 1375.49 325.044 1374.76 325.044C1373.93 325.044 1373.26 325.24 1372.73 325.632C1372.2 326.016 1371.81 326.544 1371.55 327.216C1371.3 327.888 1371.17 328.656 1371.16 329.52C1371.17 330.856 1371.47 331.936 1372.07 332.76C1372.68 333.584 1373.57 333.996 1374.76 333.996C1375.57 333.996 1376.22 333.812 1376.71 333.444C1377.22 333.068 1377.6 332.532 1377.87 331.836L1380.41 332.436C1379.99 333.7 1379.29 334.672 1378.31 335.352C1377.33 336.024 1376.15 336.36 1374.76 336.36ZM1382.02 336V318.36H1384.53V336H1382.02ZM1387.65 320.916V318.48H1390.16V320.916H1387.65ZM1387.65 336V323.04H1390.16V336H1387.65ZM1398.79 336.36C1397.51 336.36 1396.37 336.08 1395.4 335.52C1394.43 334.952 1393.67 334.164 1393.13 333.156C1392.59 332.14 1392.33 330.964 1392.33 329.628C1392.33 328.212 1392.59 326.984 1393.12 325.944C1393.65 324.904 1394.4 324.1 1395.35 323.532C1396.3 322.964 1397.41 322.68 1398.67 322.68C1399.99 322.68 1401.12 322.988 1402.05 323.604C1402.97 324.212 1403.67 325.08 1404.12 326.208C1404.59 327.336 1404.77 328.676 1404.67 330.228H1402.17V329.316C1402.15 327.812 1401.86 326.7 1401.3 325.98C1400.75 325.26 1399.91 324.9 1398.77 324.9C1397.51 324.9 1396.57 325.296 1395.94 326.088C1395.31 326.88 1394.99 328.024 1394.99 329.52C1394.99 330.944 1395.31 332.048 1395.94 332.832C1396.57 333.608 1397.48 333.996 1398.67 333.996C1399.46 333.996 1400.13 333.82 1400.7 333.468C1401.28 333.108 1401.73 332.596 1402.05 331.932L1404.51 332.712C1404 333.872 1403.24 334.772 1402.21 335.412C1401.19 336.044 1400.05 336.36 1398.79 336.36ZM1394.17 330.228V328.272H1403.43V330.228H1394.17ZM1415.39 336V329.628C1415.39 329.124 1415.35 328.608 1415.26 328.08C1415.18 327.544 1415.02 327.048 1414.78 326.592C1414.55 326.136 1414.21 325.768 1413.78 325.488C1413.36 325.208 1412.8 325.068 1412.11 325.068C1411.67 325.068 1411.24 325.144 1410.84 325.296C1410.44 325.44 1410.09 325.676 1409.79 326.004C1409.49 326.332 1409.25 326.764 1409.08 327.3C1408.91 327.836 1408.83 328.488 1408.83 329.256L1407.27 328.668C1407.27 327.492 1407.49 326.456 1407.93 325.56C1408.37 324.656 1409 323.952 1409.82 323.448C1410.65 322.944 1411.64 322.692 1412.81 322.692C1413.71 322.692 1414.46 322.836 1415.07 323.124C1415.67 323.412 1416.17 323.792 1416.54 324.264C1416.93 324.728 1417.22 325.236 1417.42 325.788C1417.62 326.34 1417.75 326.88 1417.83 327.408C1417.9 327.936 1417.93 328.4 1417.93 328.8V336H1415.39ZM1406.28 336V323.04H1408.53V326.784H1408.83V336H1406.28ZM1427.76 336C1426.94 336.16 1426.14 336.228 1425.36 336.204C1424.57 336.18 1423.87 336.028 1423.26 335.748C1422.64 335.468 1422.18 335.028 1421.86 334.428C1421.58 333.892 1421.43 333.348 1421.41 332.796C1421.39 332.236 1421.38 331.604 1421.38 330.9V319.44H1423.9V330.78C1423.9 331.3 1423.91 331.752 1423.92 332.136C1423.93 332.52 1424.02 332.844 1424.17 333.108C1424.46 333.604 1424.91 333.888 1425.54 333.96C1426.17 334.024 1426.91 333.996 1427.76 333.876V336ZM1418.9 325.056V323.04H1427.76V325.056H1418.9ZM1434.93 336.36C1433.64 336.36 1432.51 336.08 1431.54 335.52C1430.57 334.952 1429.81 334.164 1429.27 333.156C1428.73 332.14 1428.46 330.964 1428.46 329.628C1428.46 328.212 1428.73 326.984 1429.26 325.944C1429.79 324.904 1430.54 324.1 1431.49 323.532C1432.44 322.964 1433.55 322.68 1434.81 322.68C1436.13 322.68 1437.26 322.988 1438.18 323.604C1439.11 324.212 1439.8 325.08 1440.26 326.208C1440.72 327.336 1440.91 328.676 1440.81 330.228H1438.3V329.316C1438.29 327.812 1438 326.7 1437.44 325.98C1436.89 325.26 1436.04 324.9 1434.91 324.9C1433.65 324.9 1432.71 325.296 1432.08 326.088C1431.44 326.88 1431.13 328.024 1431.13 329.52C1431.13 330.944 1431.44 332.048 1432.08 332.832C1432.71 333.608 1433.62 333.996 1434.81 333.996C1435.6 333.996 1436.27 333.82 1436.84 333.468C1437.42 333.108 1437.86 332.596 1438.18 331.932L1440.64 332.712C1440.14 333.872 1439.38 334.772 1438.35 335.412C1437.33 336.044 1436.19 336.36 1434.93 336.36ZM1430.31 330.228V328.272H1439.56V330.228H1430.31ZM1447.74 336.348C1446.16 336.348 1444.88 336 1443.89 335.304C1442.9 334.608 1442.29 333.628 1442.06 332.364L1444.63 331.968C1444.79 332.64 1445.16 333.172 1445.74 333.564C1446.32 333.948 1447.04 334.14 1447.91 334.14C1448.69 334.14 1449.3 333.98 1449.74 333.66C1450.19 333.34 1450.42 332.9 1450.42 332.34C1450.42 332.012 1450.34 331.748 1450.18 331.548C1450.02 331.34 1449.7 331.144 1449.2 330.96C1448.71 330.776 1447.95 330.548 1446.94 330.276C1445.82 329.988 1444.94 329.68 1444.28 329.352C1443.64 329.016 1443.17 328.628 1442.89 328.188C1442.62 327.74 1442.48 327.2 1442.48 326.568C1442.48 325.784 1442.69 325.1 1443.11 324.516C1443.52 323.932 1444.11 323.48 1444.86 323.16C1445.62 322.84 1446.51 322.68 1447.52 322.68C1448.52 322.68 1449.4 322.836 1450.18 323.148C1450.95 323.46 1451.58 323.904 1452.06 324.48C1452.54 325.048 1452.83 325.716 1452.92 326.484L1450.36 326.952C1450.27 326.328 1449.98 325.836 1449.48 325.476C1448.98 325.116 1448.34 324.92 1447.55 324.888C1446.79 324.856 1446.17 324.984 1445.7 325.272C1445.23 325.552 1444.99 325.94 1444.99 326.436C1444.99 326.724 1445.08 326.968 1445.26 327.168C1445.44 327.368 1445.79 327.56 1446.31 327.744C1446.83 327.928 1447.6 328.148 1448.62 328.404C1449.7 328.684 1450.57 328.996 1451.21 329.34C1451.85 329.676 1452.3 330.08 1452.58 330.552C1452.86 331.016 1453 331.58 1453 332.244C1453 333.524 1452.53 334.528 1451.59 335.256C1450.66 335.984 1449.38 336.348 1447.74 336.348Z" fill="#1E1B1B"/>
<path d="M1003.42 247.657V214.481L995.594 219.295V210.595L1003.42 205.897H1011.49V247.657H1003.42ZM1019.61 247.599V240.755L1037.13 225.211C1038.44 224.051 1039.37 222.959 1039.91 221.934C1040.45 220.909 1040.72 219.952 1040.72 219.063C1040.72 217.787 1040.46 216.656 1039.94 215.67C1039.42 214.665 1038.68 213.882 1037.74 213.321C1036.79 212.741 1035.68 212.451 1034.4 212.451C1033.07 212.451 1031.89 212.76 1030.86 213.379C1029.86 213.978 1029.08 214.781 1028.51 215.786C1027.95 216.772 1027.69 217.845 1027.73 219.005H1019.61C1019.61 216.144 1020.24 213.669 1021.5 211.581C1022.75 209.493 1024.5 207.879 1026.75 206.738C1028.99 205.597 1031.6 205.027 1034.58 205.027C1037.3 205.027 1039.74 205.626 1041.88 206.825C1044.05 208.004 1045.75 209.657 1046.99 211.784C1048.23 213.911 1048.84 216.376 1048.84 219.179C1048.84 221.248 1048.55 222.968 1047.97 224.341C1047.39 225.694 1046.53 226.951 1045.39 228.111C1044.25 229.252 1042.85 230.547 1041.19 231.997L1029.88 241.915L1029.24 240.175H1048.84V247.599H1019.61ZM1054.04 247.657V205.897H1061.92V225.153L1077.82 205.897H1087.44L1069.99 226.487L1088.55 247.657H1078.57L1061.92 228.633V247.657H1054.04ZM1100.32 239.827V229.793H1090.29V223.703H1100.32V213.727H1106.41V223.703H1116.39V229.793H1106.41V239.827H1100.32Z" fill="#661CE7"/>
<path opacity="0.7" d="M998.828 300.36C997.62 300.36 996.576 300.06 995.696 299.46C994.824 298.86 994.148 298.044 993.668 297.012C993.196 295.972 992.96 294.804 992.96 293.508C992.96 292.204 993.2 291.04 993.68 290.016C994.16 288.984 994.84 288.172 995.72 287.58C996.608 286.98 997.66 286.68 998.876 286.68C1000.1 286.68 1001.13 286.98 1001.96 287.58C1002.8 288.172 1003.43 288.984 1003.86 290.016C1004.29 291.048 1004.5 292.212 1004.5 293.508C1004.5 294.804 1004.29 295.968 1003.86 297C1003.42 298.032 1002.79 298.852 1001.95 299.46C1001.11 300.06 1000.07 300.36 998.828 300.36ZM999.176 298.092C1000 298.092 1000.67 297.896 1001.19 297.504C1001.71 297.112 1002.09 296.572 1002.33 295.884C1002.57 295.196 1002.69 294.404 1002.69 293.508C1002.69 292.612 1002.57 291.82 1002.32 291.132C1002.08 290.444 1001.7 289.908 1001.19 289.524C1000.69 289.14 1000.04 288.948 999.26 288.948C998.428 288.948 997.744 289.152 997.208 289.56C996.672 289.968 996.272 290.516 996.008 291.204C995.752 291.892 995.624 292.66 995.624 293.508C995.624 294.364 995.752 295.14 996.008 295.836C996.272 296.524 996.664 297.072 997.184 297.48C997.712 297.888 998.376 298.092 999.176 298.092ZM1002.69 300V290.676H1002.4V282.72H1004.92V300H1002.69ZM1013.31 300.36C1012.02 300.36 1010.89 300.08 1009.91 299.52C1008.95 298.952 1008.19 298.164 1007.65 297.156C1007.11 296.14 1006.84 294.964 1006.84 293.628C1006.84 292.212 1007.11 290.984 1007.63 289.944C1008.17 288.904 1008.91 288.1 1009.87 287.532C1010.82 286.964 1011.93 286.68 1013.19 286.68C1014.51 286.68 1015.63 286.988 1016.56 287.604C1017.49 288.212 1018.18 289.08 1018.64 290.208C1019.1 291.336 1019.29 292.676 1019.19 294.228H1016.68V293.316C1016.67 291.812 1016.38 290.7 1015.82 289.98C1015.27 289.26 1014.42 288.9 1013.29 288.9C1012.03 288.9 1011.09 289.296 1010.45 290.088C1009.82 290.88 1009.51 292.024 1009.51 293.52C1009.51 294.944 1009.82 296.048 1010.45 296.832C1011.09 297.608 1012 297.996 1013.19 297.996C1013.97 297.996 1014.65 297.82 1015.22 297.468C1015.79 297.108 1016.24 296.596 1016.56 295.932L1019.02 296.712C1018.52 297.872 1017.75 298.772 1016.73 299.412C1015.71 300.044 1014.57 300.36 1013.31 300.36ZM1008.69 294.228V292.272H1017.94V294.228H1008.69ZM1028.75 300L1024.05 287.04H1026.58L1030.02 296.856L1033.47 287.04H1036L1031.29 300H1028.75ZM1042.72 300.36C1041.43 300.36 1040.3 300.08 1039.32 299.52C1038.36 298.952 1037.6 298.164 1037.06 297.156C1036.52 296.14 1036.25 294.964 1036.25 293.628C1036.25 292.212 1036.52 290.984 1037.04 289.944C1037.58 288.904 1038.32 288.1 1039.28 287.532C1040.23 286.964 1041.34 286.68 1042.6 286.68C1043.92 286.68 1045.04 286.988 1045.97 287.604C1046.9 288.212 1047.59 289.08 1048.05 290.208C1048.51 291.336 1048.7 292.676 1048.6 294.228H1046.09V293.316C1046.08 291.812 1045.79 290.7 1045.23 289.98C1044.68 289.26 1043.83 288.9 1042.7 288.9C1041.44 288.9 1040.5 289.296 1039.86 290.088C1039.23 290.88 1038.92 292.024 1038.92 293.52C1038.92 294.944 1039.23 296.048 1039.86 296.832C1040.5 297.608 1041.41 297.996 1042.6 297.996C1043.38 297.996 1044.06 297.82 1044.63 297.468C1045.2 297.108 1045.65 296.596 1045.97 295.932L1048.43 296.712C1047.93 297.872 1047.16 298.772 1046.14 299.412C1045.12 300.044 1043.98 300.36 1042.72 300.36ZM1038.1 294.228V292.272H1047.35V294.228H1038.1ZM1059.32 300V293.628C1059.32 293.124 1059.27 292.608 1059.18 292.08C1059.1 291.544 1058.94 291.048 1058.7 290.592C1058.47 290.136 1058.14 289.768 1057.71 289.488C1057.28 289.208 1056.73 289.068 1056.04 289.068C1055.59 289.068 1055.17 289.144 1054.77 289.296C1054.37 289.44 1054.02 289.676 1053.71 290.004C1053.42 290.332 1053.18 290.764 1053 291.3C1052.84 291.836 1052.75 292.488 1052.75 293.256L1051.19 292.668C1051.19 291.492 1051.41 290.456 1051.85 289.56C1052.29 288.656 1052.92 287.952 1053.75 287.448C1054.57 286.944 1055.57 286.692 1056.74 286.692C1057.63 286.692 1058.38 286.836 1058.99 287.124C1059.6 287.412 1060.09 287.792 1060.47 288.264C1060.85 288.728 1061.14 289.236 1061.34 289.788C1061.54 290.34 1061.68 290.88 1061.75 291.408C1061.82 291.936 1061.86 292.4 1061.86 292.8V300H1059.32ZM1050.21 300V287.04H1052.45V290.784H1052.75V300H1050.21ZM1071.68 300C1070.87 300.16 1070.07 300.228 1069.28 300.204C1068.5 300.18 1067.8 300.028 1067.18 299.748C1066.57 299.468 1066.1 299.028 1065.79 298.428C1065.51 297.892 1065.36 297.348 1065.33 296.796C1065.32 296.236 1065.31 295.604 1065.31 294.9V283.44H1067.83V294.78C1067.83 295.3 1067.83 295.752 1067.84 296.136C1067.86 296.52 1067.94 296.844 1068.09 297.108C1068.38 297.604 1068.84 297.888 1069.46 297.96C1070.09 298.024 1070.83 297.996 1071.68 297.876V300ZM1062.83 289.056V287.04H1071.68V289.056H1062.83ZM1077.35 300.36C1076.39 300.36 1075.59 300.184 1074.94 299.832C1074.29 299.472 1073.8 299 1073.47 298.416C1073.14 297.824 1072.97 297.176 1072.97 296.472C1072.97 295.816 1073.09 295.24 1073.32 294.744C1073.55 294.248 1073.9 293.828 1074.35 293.484C1074.81 293.132 1075.37 292.848 1076.03 292.632C1076.61 292.464 1077.26 292.316 1077.99 292.188C1078.72 292.06 1079.48 291.94 1080.28 291.828C1081.09 291.716 1081.89 291.604 1082.68 291.492L1081.77 291.996C1081.79 290.98 1081.57 290.228 1081.12 289.74C1080.68 289.244 1079.92 288.996 1078.84 288.996C1078.16 288.996 1077.54 289.156 1076.97 289.476C1076.4 289.788 1076.01 290.308 1075.78 291.036L1073.44 290.316C1073.76 289.204 1074.37 288.32 1075.27 287.664C1076.17 287.008 1077.37 286.68 1078.87 286.68C1080.03 286.68 1081.03 286.88 1081.89 287.28C1082.75 287.672 1083.39 288.296 1083.79 289.152C1083.99 289.576 1084.12 290.024 1084.17 290.496C1084.22 290.968 1084.24 291.476 1084.24 292.02V300H1082.02V297.036L1082.45 297.42C1081.92 298.412 1081.23 299.152 1080.4 299.64C1079.58 300.12 1078.56 300.36 1077.35 300.36ZM1077.8 298.308C1078.51 298.308 1079.12 298.184 1079.63 297.936C1080.15 297.68 1080.56 297.356 1080.87 296.964C1081.18 296.572 1081.39 296.164 1081.48 295.74C1081.62 295.356 1081.69 294.924 1081.71 294.444C1081.73 293.964 1081.75 293.58 1081.75 293.292L1082.56 293.592C1081.77 293.712 1081.05 293.82 1080.4 293.916C1079.75 294.012 1079.17 294.108 1078.64 294.204C1078.12 294.292 1077.65 294.4 1077.25 294.528C1076.9 294.648 1076.59 294.792 1076.32 294.96C1076.06 295.128 1075.85 295.332 1075.69 295.572C1075.53 295.812 1075.46 296.104 1075.46 296.448C1075.46 296.784 1075.54 297.096 1075.71 297.384C1075.88 297.664 1076.13 297.888 1076.48 298.056C1076.82 298.224 1077.26 298.308 1077.8 298.308ZM1091.59 300.348C1090.02 300.348 1088.73 300 1087.74 299.304C1086.75 298.608 1086.14 297.628 1085.92 296.364L1088.49 295.968C1088.65 296.64 1089.01 297.172 1089.59 297.564C1090.17 297.948 1090.9 298.14 1091.76 298.14C1092.55 298.14 1093.16 297.98 1093.6 297.66C1094.05 297.34 1094.27 296.9 1094.27 296.34C1094.27 296.012 1094.19 295.748 1094.03 295.548C1093.88 295.34 1093.55 295.144 1093.06 294.96C1092.56 294.776 1091.81 294.548 1090.79 294.276C1089.68 293.988 1088.79 293.68 1088.14 293.352C1087.49 293.016 1087.03 292.628 1086.75 292.188C1086.47 291.74 1086.34 291.2 1086.34 290.568C1086.34 289.784 1086.55 289.1 1086.96 288.516C1087.38 287.932 1087.96 287.48 1088.71 287.16C1089.47 286.84 1090.36 286.68 1091.38 286.68C1092.37 286.68 1093.25 286.836 1094.03 287.148C1094.81 287.46 1095.43 287.904 1095.91 288.48C1096.39 289.048 1096.68 289.716 1096.78 290.484L1094.21 290.952C1094.12 290.328 1093.83 289.836 1093.33 289.476C1092.84 289.116 1092.19 288.92 1091.4 288.888C1090.64 288.856 1090.03 288.984 1089.55 289.272C1089.08 289.552 1088.85 289.94 1088.85 290.436C1088.85 290.724 1088.93 290.968 1089.11 291.168C1089.29 291.368 1089.65 291.56 1090.17 291.744C1090.69 291.928 1091.45 292.148 1092.47 292.404C1093.56 292.684 1094.42 292.996 1095.06 293.34C1095.7 293.676 1096.16 294.08 1096.43 294.552C1096.71 295.016 1096.85 295.58 1096.85 296.244C1096.85 297.524 1096.38 298.528 1095.45 299.256C1094.52 299.984 1093.23 300.348 1091.59 300.348ZM999.224 336.36C997.896 336.36 996.768 336.064 995.84 335.472C994.912 334.88 994.2 334.068 993.704 333.036C993.216 332.004 992.968 330.832 992.96 329.52C992.968 328.184 993.224 327.004 993.728 325.98C994.232 324.948 994.952 324.14 995.888 323.556C996.824 322.972 997.948 322.68 999.26 322.68C1000.68 322.68 1001.88 323.032 1002.88 323.736C1003.89 324.44 1004.56 325.404 1004.88 326.628L1002.38 327.348C1002.13 326.62 1001.72 326.056 1001.16 325.656C1000.6 325.248 999.952 325.044 999.224 325.044C998.4 325.044 997.724 325.24 997.196 325.632C996.668 326.016 996.276 326.544 996.02 327.216C995.764 327.888 995.632 328.656 995.624 329.52C995.632 330.856 995.936 331.936 996.536 332.76C997.144 333.584 998.04 333.996 999.224 333.996C1000.03 333.996 1000.68 333.812 1001.18 333.444C1001.68 333.068 1002.07 332.532 1002.33 331.836L1004.88 332.436C1004.45 333.7 1003.75 334.672 1002.78 335.352C1001.8 336.024 1000.62 336.36 999.224 336.36ZM1011.88 336.36C1010.58 336.36 1009.46 336.068 1008.51 335.484C1007.55 334.9 1006.82 334.096 1006.3 333.072C1005.79 332.04 1005.53 330.852 1005.53 329.508C1005.53 328.156 1005.79 326.968 1006.32 325.944C1006.85 324.912 1007.59 324.112 1008.54 323.544C1009.49 322.968 1010.61 322.68 1011.88 322.68C1013.17 322.68 1014.3 322.972 1015.25 323.556C1016.2 324.14 1016.94 324.944 1017.46 325.968C1017.98 326.992 1018.24 328.172 1018.24 329.508C1018.24 330.86 1017.97 332.052 1017.45 333.084C1016.93 334.108 1016.19 334.912 1015.24 335.496C1014.29 336.072 1013.17 336.36 1011.88 336.36ZM1011.88 333.996C1013.12 333.996 1014.04 333.58 1014.65 332.748C1015.27 331.908 1015.57 330.828 1015.57 329.508C1015.57 328.156 1015.26 327.076 1014.64 326.268C1014.02 325.452 1013.1 325.044 1011.88 325.044C1011.04 325.044 1010.35 325.236 1009.8 325.62C1009.26 325.996 1008.85 326.52 1008.59 327.192C1008.33 327.856 1008.19 328.628 1008.19 329.508C1008.19 330.868 1008.51 331.956 1009.13 332.772C1009.75 333.588 1010.67 333.996 1011.88 333.996ZM1029.25 336V329.628C1029.25 329.124 1029.21 328.608 1029.12 328.08C1029.04 327.544 1028.88 327.048 1028.64 326.592C1028.41 326.136 1028.07 325.768 1027.64 325.488C1027.22 325.208 1026.66 325.068 1025.97 325.068C1025.53 325.068 1025.1 325.144 1024.7 325.296C1024.3 325.44 1023.95 325.676 1023.65 326.004C1023.35 326.332 1023.11 326.764 1022.94 327.3C1022.77 327.836 1022.69 328.488 1022.69 329.256L1021.13 328.668C1021.13 327.492 1021.35 326.456 1021.79 325.56C1022.23 324.656 1022.86 323.952 1023.68 323.448C1024.51 322.944 1025.5 322.692 1026.67 322.692C1027.57 322.692 1028.32 322.836 1028.93 323.124C1029.53 323.412 1030.03 323.792 1030.4 324.264C1030.79 324.728 1031.08 325.236 1031.28 325.788C1031.48 326.34 1031.61 326.88 1031.69 327.408C1031.76 327.936 1031.79 328.4 1031.79 328.8V336H1029.25ZM1020.14 336V323.04H1022.39V326.784H1022.69V336H1020.14ZM1039.58 336.36C1038.25 336.36 1037.12 336.064 1036.2 335.472C1035.27 334.88 1034.56 334.068 1034.06 333.036C1033.57 332.004 1033.32 330.832 1033.32 329.52C1033.32 328.184 1033.58 327.004 1034.08 325.98C1034.59 324.948 1035.31 324.14 1036.24 323.556C1037.18 322.972 1038.3 322.68 1039.62 322.68C1041.03 322.68 1042.24 323.032 1043.24 323.736C1044.25 324.44 1044.91 325.404 1045.23 326.628L1042.74 327.348C1042.49 326.62 1042.08 326.056 1041.51 325.656C1040.95 325.248 1040.31 325.044 1039.58 325.044C1038.76 325.044 1038.08 325.24 1037.55 325.632C1037.02 326.016 1036.63 326.544 1036.38 327.216C1036.12 327.888 1035.99 328.656 1035.98 329.52C1035.99 330.856 1036.29 331.936 1036.89 332.76C1037.5 333.584 1038.4 333.996 1039.58 333.996C1040.39 333.996 1041.04 333.812 1041.54 333.444C1042.04 333.068 1042.42 332.532 1042.69 331.836L1045.23 332.436C1044.81 333.7 1044.11 334.672 1043.13 335.352C1042.16 336.024 1040.97 336.36 1039.58 336.36ZM1046.96 336V323.04H1049.19V326.184L1048.88 325.776C1049.04 325.36 1049.24 324.98 1049.5 324.636C1049.76 324.284 1050.05 323.996 1050.39 323.772C1050.72 323.532 1051.08 323.348 1051.48 323.22C1051.89 323.084 1052.3 323.004 1052.73 322.98C1053.15 322.948 1053.56 322.968 1053.95 323.04V325.392C1053.53 325.28 1053.06 325.248 1052.54 325.296C1052.02 325.344 1051.55 325.508 1051.12 325.788C1050.71 326.052 1050.39 326.372 1050.15 326.748C1049.92 327.124 1049.75 327.544 1049.64 328.008C1049.54 328.464 1049.49 328.948 1049.49 329.46V336H1046.96ZM1061.03 336.36C1059.74 336.36 1058.61 336.08 1057.64 335.52C1056.67 334.952 1055.91 334.164 1055.37 333.156C1054.83 332.14 1054.56 330.964 1054.56 329.628C1054.56 328.212 1054.83 326.984 1055.36 325.944C1055.89 324.904 1056.64 324.1 1057.59 323.532C1058.54 322.964 1059.65 322.68 1060.91 322.68C1062.23 322.68 1063.36 322.988 1064.28 323.604C1065.21 324.212 1065.9 325.08 1066.36 326.208C1066.82 327.336 1067.01 328.676 1066.91 330.228H1064.4V329.316C1064.39 327.812 1064.1 326.7 1063.54 325.98C1062.99 325.26 1062.14 324.9 1061.01 324.9C1059.75 324.9 1058.81 325.296 1058.18 326.088C1057.54 326.88 1057.23 328.024 1057.23 329.52C1057.23 330.944 1057.54 332.048 1058.18 332.832C1058.81 333.608 1059.72 333.996 1060.91 333.996C1061.7 333.996 1062.37 333.82 1062.94 333.468C1063.52 333.108 1063.96 332.596 1064.28 331.932L1066.74 332.712C1066.24 333.872 1065.48 334.772 1064.45 335.412C1063.43 336.044 1062.29 336.36 1061.03 336.36ZM1056.41 330.228V328.272H1065.66V330.228H1056.41ZM1076.3 336C1075.48 336.16 1074.68 336.228 1073.9 336.204C1073.12 336.18 1072.42 336.028 1071.8 335.748C1071.18 335.468 1070.72 335.028 1070.41 334.428C1070.13 333.892 1069.98 333.348 1069.95 332.796C1069.94 332.236 1069.93 331.604 1069.93 330.9V319.44H1072.45V330.78C1072.45 331.3 1072.45 331.752 1072.46 332.136C1072.48 332.52 1072.56 332.844 1072.71 333.108C1073 333.604 1073.46 333.888 1074.08 333.96C1074.71 334.024 1075.45 333.996 1076.3 333.876V336ZM1067.44 325.056V323.04H1076.3V325.056H1067.44ZM1081.97 336.36C1081.01 336.36 1080.21 336.184 1079.56 335.832C1078.91 335.472 1078.42 335 1078.08 334.416C1077.76 333.824 1077.59 333.176 1077.59 332.472C1077.59 331.816 1077.71 331.24 1077.94 330.744C1078.17 330.248 1078.52 329.828 1078.97 329.484C1079.43 329.132 1079.99 328.848 1080.65 328.632C1081.23 328.464 1081.88 328.316 1082.61 328.188C1083.34 328.06 1084.1 327.94 1084.9 327.828C1085.71 327.716 1086.51 327.604 1087.3 327.492L1086.39 327.996C1086.4 326.98 1086.19 326.228 1085.74 325.74C1085.3 325.244 1084.54 324.996 1083.46 324.996C1082.78 324.996 1082.16 325.156 1081.59 325.476C1081.02 325.788 1080.62 326.308 1080.4 327.036L1078.06 326.316C1078.38 325.204 1078.99 324.32 1079.88 323.664C1080.79 323.008 1081.99 322.68 1083.48 322.68C1084.64 322.68 1085.65 322.88 1086.51 323.28C1087.37 323.672 1088 324.296 1088.4 325.152C1088.61 325.576 1088.74 326.024 1088.79 326.496C1088.84 326.968 1088.86 327.476 1088.86 328.02V336H1086.64V333.036L1087.07 333.42C1086.54 334.412 1085.85 335.152 1085.02 335.64C1084.2 336.12 1083.18 336.36 1081.97 336.36ZM1082.42 334.308C1083.13 334.308 1083.74 334.184 1084.25 333.936C1084.76 333.68 1085.18 333.356 1085.49 332.964C1085.8 332.572 1086 332.164 1086.1 331.74C1086.24 331.356 1086.31 330.924 1086.33 330.444C1086.35 329.964 1086.36 329.58 1086.36 329.292L1087.18 329.592C1086.39 329.712 1085.67 329.82 1085.02 329.916C1084.37 330.012 1083.78 330.108 1083.26 330.204C1082.74 330.292 1082.27 330.4 1081.86 330.528C1081.52 330.648 1081.21 330.792 1080.94 330.96C1080.68 331.128 1080.46 331.332 1080.3 331.572C1080.15 331.812 1080.08 332.104 1080.08 332.448C1080.08 332.784 1080.16 333.096 1080.33 333.384C1080.5 333.664 1080.75 333.888 1081.1 334.056C1081.44 334.224 1081.88 334.308 1082.42 334.308ZM1096.21 336.348C1094.64 336.348 1093.35 336 1092.36 335.304C1091.37 334.608 1090.76 333.628 1090.54 332.364L1093.1 331.968C1093.26 332.64 1093.63 333.172 1094.21 333.564C1094.79 333.948 1095.52 334.14 1096.38 334.14C1097.16 334.14 1097.78 333.98 1098.22 333.66C1098.66 333.34 1098.89 332.9 1098.89 332.34C1098.89 332.012 1098.81 331.748 1098.65 331.548C1098.5 331.34 1098.17 331.144 1097.68 330.96C1097.18 330.776 1096.42 330.548 1095.41 330.276C1094.3 329.988 1093.41 329.68 1092.76 329.352C1092.11 329.016 1091.64 328.628 1091.36 328.188C1091.09 327.74 1090.96 327.2 1090.96 326.568C1090.96 325.784 1091.16 325.1 1091.58 324.516C1092 323.932 1092.58 323.48 1093.33 323.16C1094.09 322.84 1094.98 322.68 1096 322.68C1096.99 322.68 1097.87 322.836 1098.65 323.148C1099.42 323.46 1100.05 323.904 1100.53 324.48C1101.01 325.048 1101.3 325.716 1101.4 326.484L1098.83 326.952C1098.74 326.328 1098.45 325.836 1097.95 325.476C1097.46 325.116 1096.81 324.92 1096.02 324.888C1095.26 324.856 1094.64 324.984 1094.17 325.272C1093.7 325.552 1093.46 325.94 1093.46 326.436C1093.46 326.724 1093.55 326.968 1093.73 327.168C1093.91 327.368 1094.26 327.56 1094.78 327.744C1095.3 327.928 1096.07 328.148 1097.09 328.404C1098.18 328.684 1099.04 328.996 1099.68 329.34C1100.32 329.676 1100.78 330.08 1101.05 330.552C1101.33 331.016 1101.47 331.58 1101.47 332.244C1101.47 333.524 1101 334.528 1100.06 335.256C1099.14 335.984 1097.85 336.348 1096.21 336.348Z" fill="#1E1B1B"/>
<path d="M649.34 247.657V214.481L641.51 219.295V210.595L649.34 205.897H657.402V247.657H649.34ZM665.528 247.599V240.755L683.044 225.211C684.359 224.051 685.287 222.959 685.828 221.934C686.369 220.909 686.64 219.952 686.64 219.063C686.64 217.787 686.379 216.656 685.857 215.67C685.335 214.665 684.6 213.882 683.653 213.321C682.706 212.741 681.594 212.451 680.318 212.451C678.984 212.451 677.805 212.76 676.78 213.379C675.775 213.978 674.992 214.781 674.431 215.786C673.87 216.772 673.609 217.845 673.648 219.005H665.528C665.528 216.144 666.156 213.669 667.413 211.581C668.67 209.493 670.419 207.879 672.662 206.738C674.905 205.597 677.515 205.027 680.492 205.027C683.218 205.027 685.654 205.626 687.8 206.825C689.965 208.004 691.667 209.657 692.904 211.784C694.141 213.911 694.76 216.376 694.76 219.179C694.76 221.248 694.47 222.968 693.89 224.341C693.31 225.694 692.45 226.951 691.309 228.111C690.168 229.252 688.767 230.547 687.104 231.997L675.794 241.915L675.156 240.175H694.76V247.599H665.528ZM709.406 239.827V229.793H699.372V223.703H709.406V213.727H715.496V223.703H725.472V229.793H715.496V239.827H709.406Z" fill="#661CE7"/>
<path opacity="0.7" d="M628.48 300L634.096 282.72H637.708L643.324 300H640.72L635.548 284.232H636.196L631.084 300H628.48ZM631.396 296.1V293.748H640.42V296.1H631.396ZM652.401 285.072C652.041 285.072 651.689 284.992 651.345 284.832C651.009 284.672 650.685 284.492 650.373 284.292C650.061 284.084 649.769 283.9 649.497 283.74C649.225 283.58 648.969 283.5 648.729 283.5C648.457 283.5 648.277 283.632 648.189 283.896C648.101 284.152 648.105 284.452 648.201 284.796H646.569C646.353 283.908 646.413 283.16 646.749 282.552C647.085 281.936 647.681 281.628 648.537 281.628C648.905 281.628 649.257 281.708 649.593 281.868C649.929 282.028 650.253 282.212 650.565 282.42C650.877 282.62 651.169 282.8 651.441 282.96C651.721 283.12 651.977 283.2 652.209 283.2C652.473 283.2 652.653 283.076 652.749 282.828C652.853 282.572 652.853 282.26 652.749 281.892H654.381C654.597 282.764 654.537 283.512 654.201 284.136C653.865 284.76 653.265 285.072 652.401 285.072ZM653.853 300V293.628C653.853 293.124 653.809 292.608 653.721 292.08C653.641 291.544 653.481 291.048 653.241 290.592C653.009 290.136 652.677 289.768 652.245 289.488C651.821 289.208 651.265 289.068 650.577 289.068C650.129 289.068 649.705 289.144 649.305 289.296C648.905 289.44 648.553 289.676 648.249 290.004C647.953 290.332 647.717 290.764 647.541 291.3C647.373 291.836 647.289 292.488 647.289 293.256L645.729 292.668C645.729 291.492 645.949 290.456 646.389 289.56C646.829 288.656 647.461 287.952 648.285 287.448C649.109 286.944 650.105 286.692 651.273 286.692C652.169 286.692 652.921 286.836 653.529 287.124C654.137 287.412 654.629 287.792 655.005 288.264C655.389 288.728 655.681 289.236 655.881 289.788C656.081 290.34 656.217 290.88 656.289 291.408C656.361 291.936 656.397 292.4 656.397 292.8V300H653.853ZM644.745 300V287.04H646.989V290.784H647.289V300H644.745ZM664.43 300.36C663.134 300.36 662.01 300.068 661.058 299.484C660.106 298.9 659.37 298.096 658.85 297.072C658.338 296.04 658.082 294.852 658.082 293.508C658.082 292.156 658.346 290.968 658.874 289.944C659.402 288.912 660.142 288.112 661.094 287.544C662.046 286.968 663.158 286.68 664.43 286.68C665.726 286.68 666.85 286.972 667.803 287.556C668.755 288.14 669.49 288.944 670.01 289.968C670.53 290.992 670.791 292.172 670.791 293.508C670.791 294.86 670.527 296.052 669.999 297.084C669.478 298.108 668.742 298.912 667.791 299.496C666.839 300.072 665.718 300.36 664.43 300.36ZM664.43 297.996C665.671 297.996 666.595 297.58 667.202 296.748C667.819 295.908 668.127 294.828 668.127 293.508C668.127 292.156 667.815 291.076 667.191 290.268C666.574 289.452 665.654 289.044 664.43 289.044C663.59 289.044 662.898 289.236 662.354 289.62C661.81 289.996 661.406 290.52 661.142 291.192C660.878 291.856 660.746 292.628 660.746 293.508C660.746 294.868 661.058 295.956 661.682 296.772C662.306 297.588 663.222 297.996 664.43 297.996ZM677.429 300.348C675.853 300.348 674.569 300 673.577 299.304C672.585 298.608 671.977 297.628 671.753 296.364L674.321 295.968C674.481 296.64 674.849 297.172 675.425 297.564C676.009 297.948 676.733 298.14 677.597 298.14C678.381 298.14 678.993 297.98 679.433 297.66C679.881 297.34 680.105 296.9 680.105 296.34C680.105 296.012 680.025 295.748 679.865 295.548C679.713 295.34 679.389 295.144 678.893 294.96C678.397 294.776 677.641 294.548 676.625 294.276C675.513 293.988 674.629 293.68 673.973 293.352C673.325 293.016 672.861 292.628 672.581 292.188C672.309 291.74 672.173 291.2 672.173 290.568C672.173 289.784 672.381 289.1 672.797 288.516C673.213 287.932 673.797 287.48 674.549 287.16C675.309 286.84 676.197 286.68 677.213 286.68C678.205 286.68 679.089 286.836 679.865 287.148C680.641 287.46 681.269 287.904 681.749 288.48C682.229 289.048 682.517 289.716 682.613 290.484L680.045 290.952C679.957 290.328 679.665 289.836 679.169 289.476C678.673 289.116 678.029 288.92 677.237 288.888C676.477 288.856 675.861 288.984 675.389 289.272C674.917 289.552 674.681 289.94 674.681 290.436C674.681 290.724 674.769 290.968 674.945 291.168C675.129 291.368 675.481 291.56 676.001 291.744C676.521 291.928 677.289 292.148 678.305 292.404C679.393 292.684 680.257 292.996 680.897 293.34C681.537 293.676 681.993 294.08 682.265 294.552C682.545 295.016 682.685 295.58 682.685 296.244C682.685 297.524 682.217 298.528 681.281 299.256C680.353 299.984 679.069 300.348 677.429 300.348ZM693.853 300.36C692.645 300.36 691.601 300.06 690.721 299.46C689.849 298.86 689.173 298.044 688.693 297.012C688.221 295.972 687.985 294.804 687.985 293.508C687.985 292.204 688.225 291.04 688.705 290.016C689.185 288.984 689.865 288.172 690.745 287.58C691.633 286.98 692.685 286.68 693.901 286.68C695.125 286.68 696.153 286.98 696.985 287.58C697.825 288.172 698.457 288.984 698.881 290.016C699.313 291.048 699.529 292.212 699.529 293.508C699.529 294.804 699.313 295.968 698.881 297C698.449 298.032 697.813 298.852 696.973 299.46C696.133 300.06 695.093 300.36 693.853 300.36ZM694.201 298.092C695.025 298.092 695.697 297.896 696.217 297.504C696.737 297.112 697.117 296.572 697.357 295.884C697.597 295.196 697.717 294.404 697.717 293.508C697.717 292.612 697.593 291.82 697.345 291.132C697.105 290.444 696.729 289.908 696.217 289.524C695.713 289.14 695.069 288.948 694.285 288.948C693.453 288.948 692.769 289.152 692.233 289.56C691.697 289.968 691.297 290.516 691.033 291.204C690.777 291.892 690.649 292.66 690.649 293.508C690.649 294.364 690.777 295.14 691.033 295.836C691.297 296.524 691.689 297.072 692.209 297.48C692.737 297.888 693.401 298.092 694.201 298.092ZM697.717 300V290.676H697.429V282.72H699.949V300H697.717ZM708.335 300.36C707.047 300.36 705.915 300.08 704.939 299.52C703.971 298.952 703.215 298.164 702.671 297.156C702.135 296.14 701.867 294.964 701.867 293.628C701.867 292.212 702.131 290.984 702.659 289.944C703.195 288.904 703.939 288.1 704.891 287.532C705.843 286.964 706.951 286.68 708.215 286.68C709.535 286.68 710.659 286.988 711.587 287.604C712.515 288.212 713.207 289.08 713.663 290.208C714.127 291.336 714.311 292.676 714.215 294.228H711.707V293.316C711.691 291.812 711.403 290.7 710.843 289.98C710.291 289.26 709.447 288.9 708.311 288.9C707.055 288.9 706.111 289.296 705.479 290.088C704.847 290.88 704.531 292.024 704.531 293.52C704.531 294.944 704.847 296.048 705.479 296.832C706.111 297.608 707.023 297.996 708.215 297.996C708.999 297.996 709.675 297.82 710.243 297.468C710.819 297.108 711.267 296.596 711.587 295.932L714.047 296.712C713.543 297.872 712.779 298.772 711.755 299.412C710.731 300.044 709.591 300.36 708.335 300.36ZM703.715 294.228V292.272H712.967V294.228H703.715ZM635.428 336.36C634.14 336.36 633.008 336.08 632.032 335.52C631.064 334.952 630.308 334.164 629.764 333.156C629.228 332.14 628.96 330.964 628.96 329.628C628.96 328.212 629.224 326.984 629.752 325.944C630.288 324.904 631.032 324.1 631.984 323.532C632.936 322.964 634.044 322.68 635.308 322.68C636.628 322.68 637.752 322.988 638.68 323.604C639.608 324.212 640.3 325.08 640.756 326.208C641.22 327.336 641.404 328.676 641.308 330.228H638.8V329.316C638.784 327.812 638.496 326.7 637.936 325.98C637.384 325.26 636.54 324.9 635.404 324.9C634.148 324.9 633.204 325.296 632.572 326.088C631.94 326.88 631.624 328.024 631.624 329.52C631.624 330.944 631.94 332.048 632.572 332.832C633.204 333.608 634.116 333.996 635.308 333.996C636.092 333.996 636.768 333.82 637.336 333.468C637.912 333.108 638.36 332.596 638.68 331.932L641.14 332.712C640.636 333.872 639.872 334.772 638.848 335.412C637.824 336.044 636.684 336.36 635.428 336.36ZM630.808 330.228V328.272H640.06V330.228H630.808ZM641.372 336L646.22 329.448L641.48 323.04H644.456L647.684 327.492L650.876 323.04H653.852L649.112 329.448L653.972 336H650.984L647.684 331.404L644.36 336H641.372ZM661.254 336.36C660.014 336.36 658.974 336.06 658.134 335.46C657.294 334.852 656.658 334.032 656.226 333C655.794 331.968 655.578 330.804 655.578 329.508C655.578 328.212 655.79 327.048 656.214 326.016C656.646 324.984 657.278 324.172 658.11 323.58C658.95 322.98 659.982 322.68 661.206 322.68C662.422 322.68 663.47 322.98 664.35 323.58C665.238 324.172 665.922 324.984 666.402 326.016C666.882 327.04 667.122 328.204 667.122 329.508C667.122 330.804 666.882 331.972 666.402 333.012C665.93 334.044 665.254 334.86 664.374 335.46C663.502 336.06 662.462 336.36 661.254 336.36ZM655.158 341.76V323.04H657.39V332.364H657.678V341.76H655.158ZM660.906 334.092C661.706 334.092 662.366 333.888 662.886 333.48C663.414 333.072 663.806 332.524 664.062 331.836C664.326 331.14 664.458 330.364 664.458 329.508C664.458 328.66 664.326 327.892 664.062 327.204C663.806 326.516 663.41 325.968 662.874 325.56C662.338 325.152 661.654 324.948 660.822 324.948C660.038 324.948 659.39 325.14 658.878 325.524C658.374 325.908 657.998 326.444 657.75 327.132C657.51 327.82 657.39 328.612 657.39 329.508C657.39 330.404 657.51 331.196 657.75 331.884C657.99 332.572 658.37 333.112 658.89 333.504C659.41 333.896 660.082 334.092 660.906 334.092ZM674.799 336.36C673.511 336.36 672.379 336.08 671.403 335.52C670.435 334.952 669.679 334.164 669.135 333.156C668.599 332.14 668.331 330.964 668.331 329.628C668.331 328.212 668.595 326.984 669.123 325.944C669.659 324.904 670.403 324.1 671.355 323.532C672.307 322.964 673.415 322.68 674.679 322.68C675.999 322.68 677.123 322.988 678.051 323.604C678.979 324.212 679.671 325.08 680.127 326.208C680.591 327.336 680.775 328.676 680.679 330.228H678.171V329.316C678.155 327.812 677.867 326.7 677.307 325.98C676.755 325.26 675.911 324.9 674.775 324.9C673.519 324.9 672.575 325.296 671.943 326.088C671.311 326.88 670.995 328.024 670.995 329.52C670.995 330.944 671.311 332.048 671.943 332.832C672.575 333.608 673.487 333.996 674.679 333.996C675.463 333.996 676.139 333.82 676.707 333.468C677.283 333.108 677.731 332.596 678.051 331.932L680.511 332.712C680.007 333.872 679.243 334.772 678.219 335.412C677.195 336.044 676.055 336.36 674.799 336.36ZM670.179 330.228V328.272H679.431V330.228H670.179ZM682.652 336V323.04H684.884V326.184L684.572 325.776C684.732 325.36 684.94 324.98 685.196 324.636C685.452 324.284 685.748 323.996 686.084 323.772C686.412 323.532 686.776 323.348 687.176 323.22C687.584 323.084 688 323.004 688.424 322.98C688.848 322.948 689.256 322.968 689.648 323.04V325.392C689.224 325.28 688.752 325.248 688.232 325.296C687.72 325.344 687.248 325.508 686.816 325.788C686.408 326.052 686.084 326.372 685.844 326.748C685.612 327.124 685.444 327.544 685.34 328.008C685.236 328.464 685.184 328.948 685.184 329.46V336H682.652ZM691.453 320.916V318.48H693.961V320.916H691.453ZM691.453 336V323.04H693.961V336H691.453ZM702.592 336.36C701.304 336.36 700.172 336.08 699.196 335.52C698.228 334.952 697.472 334.164 696.928 333.156C696.392 332.14 696.124 330.964 696.124 329.628C696.124 328.212 696.388 326.984 696.916 325.944C697.452 324.904 698.196 324.1 699.148 323.532C700.1 322.964 701.208 322.68 702.472 322.68C703.792 322.68 704.916 322.988 705.844 323.604C706.772 324.212 707.464 325.08 707.92 326.208C708.384 327.336 708.568 328.676 708.472 330.228H705.964V329.316C705.948 327.812 705.66 326.7 705.1 325.98C704.548 325.26 703.704 324.9 702.568 324.9C701.312 324.9 700.368 325.296 699.736 326.088C699.104 326.88 698.788 328.024 698.788 329.52C698.788 330.944 699.104 332.048 699.736 332.832C700.368 333.608 701.28 333.996 702.472 333.996C703.256 333.996 703.932 333.82 704.5 333.468C705.076 333.108 705.524 332.596 705.844 331.932L708.304 332.712C707.8 333.872 707.036 334.772 706.012 335.412C704.988 336.044 703.848 336.36 702.592 336.36ZM697.972 330.228V328.272H707.224V330.228H697.972ZM719.189 336V329.628C719.189 329.124 719.145 328.608 719.057 328.08C718.977 327.544 718.817 327.048 718.577 326.592C718.345 326.136 718.013 325.768 717.581 325.488C717.157 325.208 716.601 325.068 715.913 325.068C715.465 325.068 715.041 325.144 714.641 325.296C714.241 325.44 713.889 325.676 713.585 326.004C713.289 326.332 713.053 326.764 712.877 327.3C712.709 327.836 712.625 328.488 712.625 329.256L711.065 328.668C711.065 327.492 711.285 326.456 711.725 325.56C712.165 324.656 712.797 323.952 713.621 323.448C714.445 322.944 715.441 322.692 716.609 322.692C717.505 322.692 718.257 322.836 718.865 323.124C719.473 323.412 719.965 323.792 720.341 324.264C720.725 324.728 721.017 325.236 721.217 325.788C721.417 326.34 721.553 326.88 721.625 327.408C721.697 327.936 721.733 328.4 721.733 328.8V336H719.189ZM710.081 336V323.04H712.325V326.784H712.625V336H710.081ZM729.519 336.36C728.191 336.36 727.063 336.064 726.135 335.472C725.207 334.88 724.495 334.068 723.999 333.036C723.511 332.004 723.263 330.832 723.255 329.52C723.263 328.184 723.519 327.004 724.023 325.98C724.527 324.948 725.247 324.14 726.183 323.556C727.119 322.972 728.243 322.68 729.555 322.68C730.971 322.68 732.179 323.032 733.179 323.736C734.187 324.44 734.851 325.404 735.171 326.628L732.675 327.348C732.427 326.62 732.019 326.056 731.451 325.656C730.891 325.248 730.247 325.044 729.519 325.044C728.695 325.044 728.019 325.24 727.491 325.632C726.963 326.016 726.571 326.544 726.315 327.216C726.059 327.888 725.927 328.656 725.919 329.52C725.927 330.856 726.231 331.936 726.831 332.76C727.439 333.584 728.335 333.996 729.519 333.996C730.327 333.996 730.979 333.812 731.475 333.444C731.979 333.068 732.363 332.532 732.627 331.836L735.171 332.436C734.747 333.7 734.047 334.672 733.071 335.352C732.095 336.024 730.911 336.36 729.519 336.36ZM736.784 320.916V318.48H739.292V320.916H736.784ZM736.784 336V323.04H739.292V336H736.784ZM745.835 336.36C744.875 336.36 744.071 336.184 743.423 335.832C742.775 335.472 742.283 335 741.947 334.416C741.619 333.824 741.455 333.176 741.455 332.472C741.455 331.816 741.571 331.24 741.803 330.744C742.035 330.248 742.379 329.828 742.835 329.484C743.291 329.132 743.851 328.848 744.515 328.632C745.091 328.464 745.743 328.316 746.471 328.188C747.199 328.06 747.963 327.94 748.763 327.828C749.571 327.716 750.371 327.604 751.163 327.492L750.251 327.996C750.267 326.98 750.051 326.228 749.603 325.74C749.163 325.244 748.403 324.996 747.323 324.996C746.643 324.996 746.019 325.156 745.451 325.476C744.883 325.788 744.487 326.308 744.263 327.036L741.923 326.316C742.243 325.204 742.851 324.32 743.747 323.664C744.651 323.008 745.851 322.68 747.347 322.68C748.507 322.68 749.515 322.88 750.371 323.28C751.235 323.672 751.867 324.296 752.267 325.152C752.475 325.576 752.603 326.024 752.651 326.496C752.699 326.968 752.723 327.476 752.723 328.02V336H750.503V333.036L750.935 333.42C750.399 334.412 749.715 335.152 748.883 335.64C748.059 336.12 747.043 336.36 745.835 336.36ZM746.279 334.308C746.991 334.308 747.603 334.184 748.115 333.936C748.627 333.68 749.039 333.356 749.351 332.964C749.663 332.572 749.867 332.164 749.963 331.74C750.099 331.356 750.175 330.924 750.191 330.444C750.215 329.964 750.227 329.58 750.227 329.292L751.043 329.592C750.251 329.712 749.531 329.82 748.883 329.916C748.235 330.012 747.647 330.108 747.119 330.204C746.599 330.292 746.135 330.4 745.727 330.528C745.383 330.648 745.075 330.792 744.803 330.96C744.539 331.128 744.327 331.332 744.167 331.572C744.015 331.812 743.939 332.104 743.939 332.448C743.939 332.784 744.023 333.096 744.191 333.384C744.359 333.664 744.615 333.888 744.959 334.056C745.303 334.224 745.743 334.308 746.279 334.308Z" fill="#1E1B1B"/>
<path d="M194.454 247.657V205.897H221.714V213.263H202.342V222.195H218.234V229.561H202.342V240.291H221.714V247.657H194.454ZM239.163 248.527C235.219 248.527 232.029 247.638 229.593 245.859C227.176 244.061 225.707 241.528 225.185 238.261L233.247 237.043C233.576 238.512 234.301 239.663 235.422 240.494C236.563 241.325 238.003 241.741 239.743 241.741C241.174 241.741 242.276 241.47 243.049 240.929C243.822 240.368 244.209 239.595 244.209 238.609C244.209 237.99 244.054 237.497 243.745 237.13C243.436 236.743 242.74 236.366 241.657 235.999C240.594 235.632 238.931 235.148 236.669 234.549C234.117 233.892 232.077 233.157 230.55 232.345C229.023 231.533 227.921 230.566 227.244 229.445C226.567 228.304 226.229 226.932 226.229 225.327C226.229 223.316 226.741 221.576 227.766 220.107C228.791 218.618 230.231 217.478 232.087 216.685C233.962 215.873 236.166 215.467 238.699 215.467C241.154 215.467 243.329 215.844 245.224 216.598C247.119 217.352 248.646 218.425 249.806 219.817C250.985 221.209 251.71 222.852 251.981 224.747L243.919 226.197C243.784 225.037 243.281 224.119 242.411 223.442C241.541 222.765 240.362 222.369 238.873 222.253C237.423 222.156 236.253 222.35 235.364 222.833C234.494 223.316 234.059 224.012 234.059 224.921C234.059 225.462 234.243 225.917 234.61 226.284C234.997 226.651 235.78 227.028 236.959 227.415C238.158 227.802 239.975 228.304 242.411 228.923C244.789 229.542 246.693 230.267 248.124 231.098C249.574 231.91 250.628 232.896 251.285 234.056C251.942 235.197 252.271 236.579 252.271 238.203C252.271 241.412 251.111 243.935 248.791 245.772C246.471 247.609 243.262 248.527 239.163 248.527ZM275.696 247.657C273.53 248.063 271.404 248.237 269.316 248.179C267.247 248.14 265.391 247.783 263.748 247.106C262.124 246.41 260.886 245.298 260.036 243.771C259.262 242.34 258.856 240.89 258.818 239.421C258.779 237.932 258.76 236.25 258.76 234.375V207.637H266.648V233.911C266.648 235.129 266.657 236.231 266.677 237.217C266.715 238.184 266.918 238.957 267.286 239.537C267.982 240.639 269.093 241.238 270.621 241.335C272.148 241.432 273.84 241.354 275.696 241.103V247.657ZM253.424 222.427V216.337H275.696V222.427H253.424ZM289.635 248.527C287.393 248.527 285.488 248.102 283.922 247.251C282.376 246.381 281.196 245.231 280.384 243.8C279.592 242.35 279.195 240.755 279.195 239.015C279.195 237.565 279.418 236.241 279.862 235.042C280.307 233.843 281.022 232.79 282.008 231.881C283.014 230.953 284.357 230.18 286.039 229.561C287.199 229.136 288.582 228.759 290.186 228.43C291.791 228.101 293.608 227.792 295.638 227.502C297.668 227.193 299.901 226.854 302.337 226.487L299.495 228.053C299.495 226.197 299.051 224.834 298.161 223.964C297.272 223.094 295.783 222.659 293.695 222.659C292.535 222.659 291.327 222.939 290.07 223.5C288.814 224.061 287.934 225.056 287.431 226.487L280.297 224.225C281.09 221.634 282.579 219.527 284.763 217.903C286.948 216.279 289.925 215.467 293.695 215.467C296.46 215.467 298.915 215.892 301.061 216.743C303.207 217.594 304.831 219.063 305.933 221.151C306.552 222.311 306.919 223.471 307.035 224.631C307.151 225.791 307.209 227.086 307.209 228.517V247.657H300.307V241.219L301.293 242.553C299.766 244.66 298.113 246.188 296.334 247.135C294.575 248.063 292.342 248.527 289.635 248.527ZM291.317 242.321C292.767 242.321 293.985 242.07 294.971 241.567C295.977 241.045 296.769 240.455 297.349 239.798C297.949 239.141 298.355 238.59 298.567 238.145C298.973 237.294 299.205 236.308 299.263 235.187C299.341 234.046 299.379 233.099 299.379 232.345L301.699 232.925C299.36 233.312 297.465 233.64 296.015 233.911C294.565 234.162 293.396 234.394 292.506 234.607C291.617 234.82 290.834 235.052 290.157 235.303C289.384 235.612 288.756 235.951 288.272 236.318C287.808 236.666 287.46 237.053 287.228 237.478C287.016 237.903 286.909 238.377 286.909 238.899C286.909 239.614 287.083 240.233 287.431 240.755C287.799 241.258 288.311 241.644 288.968 241.915C289.626 242.186 290.409 242.321 291.317 242.321ZM325.712 248.527C322.831 248.527 320.308 247.802 318.143 246.352C315.977 244.902 314.286 242.93 313.068 240.436C311.869 237.942 311.27 235.129 311.27 231.997C311.27 228.807 311.879 225.975 313.097 223.5C314.334 221.006 316.064 219.044 318.288 217.613C320.511 216.182 323.121 215.467 326.118 215.467C329.095 215.467 331.599 216.192 333.629 217.642C335.659 219.092 337.196 221.064 338.24 223.558C339.284 226.052 339.806 228.865 339.806 231.997C339.806 235.129 339.274 237.942 338.211 240.436C337.167 242.93 335.601 244.902 333.513 246.352C331.425 247.802 328.824 248.527 325.712 248.527ZM326.988 241.509C328.747 241.509 330.149 241.113 331.193 240.32C332.256 239.527 333.02 238.416 333.484 236.985C333.948 235.554 334.18 233.892 334.18 231.997C334.18 230.102 333.948 228.44 333.484 227.009C333.02 225.578 332.275 224.467 331.251 223.674C330.245 222.881 328.921 222.485 327.278 222.485C325.518 222.485 324.068 222.92 322.928 223.79C321.806 224.641 320.975 225.791 320.434 227.241C319.892 228.672 319.622 230.257 319.622 231.997C319.622 233.756 319.883 235.361 320.405 236.811C320.927 238.242 321.729 239.382 322.812 240.233C323.894 241.084 325.286 241.509 326.988 241.509ZM334.18 247.657V226.197H333.194V205.897H341.14V247.657H334.18ZM355.089 211.987H349.231L354.045 200.677H359.903L355.089 211.987ZM348.1 247.657V216.337H355.988V247.657H348.1ZM375.18 248.527C371.236 248.527 368.046 247.638 365.61 245.859C363.193 244.061 361.724 241.528 361.202 238.261L369.264 237.043C369.593 238.512 370.318 239.663 371.439 240.494C372.58 241.325 374.02 241.741 375.76 241.741C377.191 241.741 378.293 241.47 379.066 240.929C379.839 240.368 380.226 239.595 380.226 238.609C380.226 237.99 380.071 237.497 379.762 237.13C379.453 236.743 378.757 236.366 377.674 235.999C376.611 235.632 374.948 235.148 372.686 234.549C370.134 233.892 368.094 233.157 366.567 232.345C365.04 231.533 363.938 230.566 363.261 229.445C362.584 228.304 362.246 226.932 362.246 225.327C362.246 223.316 362.758 221.576 363.783 220.107C364.808 218.618 366.248 217.478 368.104 216.685C369.979 215.873 372.183 215.467 374.716 215.467C377.171 215.467 379.346 215.844 381.241 216.598C383.136 217.352 384.663 218.425 385.823 219.817C387.002 221.209 387.727 222.852 387.998 224.747L379.936 226.197C379.801 225.037 379.298 224.119 378.428 223.442C377.558 222.765 376.379 222.369 374.89 222.253C373.44 222.156 372.27 222.35 371.381 222.833C370.511 223.316 370.076 224.012 370.076 224.921C370.076 225.462 370.26 225.917 370.627 226.284C371.014 226.651 371.797 227.028 372.976 227.415C374.175 227.802 375.992 228.304 378.428 228.923C380.806 229.542 382.71 230.267 384.141 231.098C385.591 231.91 386.645 232.896 387.302 234.056C387.959 235.197 388.288 236.579 388.288 238.203C388.288 241.412 387.128 243.935 384.808 245.772C382.488 247.609 379.279 248.527 375.18 248.527ZM411.713 247.657C409.547 248.063 407.421 248.237 405.333 248.179C403.264 248.14 401.408 247.783 399.765 247.106C398.141 246.41 396.903 245.298 396.053 243.771C395.279 242.34 394.873 240.89 394.835 239.421C394.796 237.932 394.777 236.25 394.777 234.375V207.637H402.665V233.911C402.665 235.129 402.674 236.231 402.694 237.217C402.732 238.184 402.935 238.957 403.303 239.537C403.999 240.639 405.11 241.238 406.638 241.335C408.165 241.432 409.857 241.354 411.713 241.103V247.657ZM389.441 222.427V216.337H411.713V222.427H389.441ZM417.532 211.987V205.027H425.42V211.987H417.532ZM417.532 247.657V216.337H425.42V247.657H417.532ZM446.178 248.527C442.93 248.527 440.146 247.802 437.826 246.352C435.506 244.902 433.728 242.93 432.49 240.436C431.253 237.942 430.634 235.129 430.634 231.997C430.634 228.826 431.272 225.994 432.548 223.5C433.844 221.006 435.661 219.044 438 217.613C440.34 216.182 443.104 215.467 446.294 215.467C449.987 215.467 453.08 216.405 455.574 218.28C458.088 220.136 459.692 222.678 460.388 225.907L452.5 227.995C452.036 226.371 451.224 225.105 450.064 224.196C448.924 223.287 447.628 222.833 446.178 222.833C444.516 222.833 443.153 223.239 442.089 224.051C441.026 224.844 440.243 225.936 439.74 227.328C439.238 228.701 438.986 230.257 438.986 231.997C438.986 234.723 439.586 236.937 440.784 238.638C442.002 240.32 443.8 241.161 446.178 241.161C447.957 241.161 449.31 240.755 450.238 239.943C451.166 239.131 451.862 237.971 452.326 236.463L460.388 238.145C459.499 241.47 457.817 244.032 455.342 245.83C452.868 247.628 449.813 248.527 446.178 248.527ZM472.582 248.527C470.34 248.527 468.435 248.102 466.869 247.251C465.323 246.381 464.143 245.231 463.331 243.8C462.539 242.35 462.142 240.755 462.142 239.015C462.142 237.565 462.365 236.241 462.809 235.042C463.254 233.843 463.969 232.79 464.955 231.881C465.961 230.953 467.304 230.18 468.986 229.561C470.146 229.136 471.529 228.759 473.133 228.43C474.738 228.101 476.555 227.792 478.585 227.502C480.615 227.193 482.848 226.854 485.284 226.487L482.442 228.053C482.442 226.197 481.998 224.834 481.108 223.964C480.219 223.094 478.73 222.659 476.642 222.659C475.482 222.659 474.274 222.939 473.017 223.5C471.761 224.061 470.881 225.056 470.378 226.487L463.244 224.225C464.037 221.634 465.526 219.527 467.71 217.903C469.895 216.279 472.872 215.467 476.642 215.467C479.407 215.467 481.862 215.892 484.008 216.743C486.154 217.594 487.778 219.063 488.88 221.151C489.499 222.311 489.866 223.471 489.982 224.631C490.098 225.791 490.156 227.086 490.156 228.517V247.657H483.254V241.219L484.24 242.553C482.713 244.66 481.06 246.188 479.281 247.135C477.522 248.063 475.289 248.527 472.582 248.527ZM474.264 242.321C475.714 242.321 476.932 242.07 477.918 241.567C478.924 241.045 479.716 240.455 480.296 239.798C480.896 239.141 481.302 238.59 481.514 238.145C481.92 237.294 482.152 236.308 482.21 235.187C482.288 234.046 482.326 233.099 482.326 232.345L484.646 232.925C482.307 233.312 480.412 233.64 478.962 233.911C477.512 234.162 476.343 234.394 475.453 234.607C474.564 234.82 473.781 235.052 473.104 235.303C472.331 235.612 471.703 235.951 471.219 236.318C470.755 236.666 470.407 237.053 470.175 237.478C469.963 237.903 469.856 238.377 469.856 238.899C469.856 239.614 470.03 240.233 470.378 240.755C470.746 241.258 471.258 241.644 471.915 241.915C472.573 242.186 473.356 242.321 474.264 242.321ZM508.195 248.527C504.251 248.527 501.061 247.638 498.625 245.859C496.208 244.061 494.739 241.528 494.217 238.261L502.279 237.043C502.607 238.512 503.332 239.663 504.454 240.494C505.594 241.325 507.035 241.741 508.775 241.741C510.205 241.741 511.307 241.47 512.081 240.929C512.854 240.368 513.241 239.595 513.241 238.609C513.241 237.99 513.086 237.497 512.777 237.13C512.467 236.743 511.771 236.366 510.689 235.999C509.625 235.632 507.963 235.148 505.701 234.549C503.149 233.892 501.109 233.157 499.582 232.345C498.054 231.533 496.952 230.566 496.276 229.445C495.599 228.304 495.261 226.932 495.261 225.327C495.261 223.316 495.773 221.576 496.798 220.107C497.822 218.618 499.263 217.478 501.119 216.685C502.994 215.873 505.198 215.467 507.731 215.467C510.186 215.467 512.361 215.844 514.256 216.598C516.15 217.352 517.678 218.425 518.838 219.817C520.017 221.209 520.742 222.852 521.013 224.747L512.951 226.197C512.815 225.037 512.313 224.119 511.443 223.442C510.573 222.765 509.393 222.369 507.905 222.253C506.455 222.156 505.285 222.35 504.396 222.833C503.526 223.316 503.091 224.012 503.091 224.921C503.091 225.462 503.274 225.917 503.642 226.284C504.028 226.651 504.811 227.028 505.991 227.415C507.189 227.802 509.007 228.304 511.443 228.923C513.821 229.542 515.725 230.267 517.156 231.098C518.606 231.91 519.659 232.896 520.317 234.056C520.974 235.197 521.303 236.579 521.303 238.203C521.303 241.412 520.143 243.935 517.823 245.772C515.503 247.609 512.293 248.527 508.195 248.527ZM528.255 244.177V236.289H536.143V244.177H528.255ZM528.313 227.705V219.817H536.201V227.705H528.313Z" fill="#661CE7"/>
</svg>
