<svg width="383" height="45" viewBox="0 0 383 45" fill="none" xmlns="http://www.w3.org/2000/svg">
<path opacity="0.6" d="M1.12 12V0.48H2.816L8.488 9.04V0.48H10.184V12H8.488L2.816 3.432V12H1.12ZM15.6729 12.232C15.0755 12.232 14.5742 12.136 14.1689 11.944C13.7635 11.752 13.4329 11.5013 13.1769 11.192C12.9262 10.8773 12.7342 10.536 12.6009 10.168C12.4675 9.8 12.3769 9.44 12.3289 9.088C12.2809 8.736 12.2569 8.42667 12.2569 8.16V3.36H13.9529V7.608C13.9529 7.944 13.9795 8.29067 14.0329 8.648C14.0915 9 14.1982 9.328 14.3529 9.632C14.5129 9.936 14.7342 10.1813 15.0169 10.368C15.3049 10.5547 15.6782 10.648 16.1369 10.648C16.4355 10.648 16.7182 10.6 16.9849 10.504C17.2515 10.4027 17.4835 10.2427 17.6809 10.024C17.8835 9.80533 18.0409 9.51733 18.1529 9.16C18.2702 8.80267 18.3289 8.368 18.3289 7.856L19.3689 8.248C19.3689 9.032 19.2222 9.72533 18.9289 10.328C18.6355 10.9253 18.2142 11.392 17.6649 11.728C17.1155 12.064 16.4515 12.232 15.6729 12.232ZM18.5289 12V9.504H18.3289V3.36H20.0169V12H18.5289ZM26.0926 12.24C25.234 12.24 24.4793 12.0533 23.8286 11.68C23.1833 11.3013 22.6793 10.776 22.3166 10.104C21.9593 9.42667 21.7806 8.64267 21.7806 7.752C21.7806 6.808 21.9566 5.98933 22.3086 5.296C22.666 4.60267 23.162 4.06667 23.7966 3.688C24.4313 3.30933 25.17 3.12 26.0126 3.12C26.8926 3.12 27.642 3.32533 28.2606 3.736C28.8793 4.14133 29.3406 4.72 29.6446 5.472C29.954 6.224 30.0766 7.11733 30.0126 8.152H28.3406V7.544C28.33 6.54133 28.138 5.8 27.7646 5.32C27.3966 4.84 26.834 4.6 26.0766 4.6C25.2393 4.6 24.61 4.864 24.1886 5.392C23.7673 5.92 23.5566 6.68267 23.5566 7.68C23.5566 8.62933 23.7673 9.36533 24.1886 9.888C24.61 10.4053 25.218 10.664 26.0126 10.664C26.5353 10.664 26.986 10.5467 27.3646 10.312C27.7486 10.072 28.0473 9.73067 28.2606 9.288L29.9006 9.808C29.5646 10.5813 29.0553 11.1813 28.3726 11.608C27.69 12.0293 26.93 12.24 26.0926 12.24ZM23.0126 8.152V6.848H29.1806V8.152H23.0126ZM35.1115 12.232C34.0608 12.232 33.2048 12 32.5435 11.536C31.8822 11.072 31.4768 10.4187 31.3275 9.576L33.0395 9.312C33.1462 9.76 33.3915 10.1147 33.7755 10.376C34.1648 10.632 34.6475 10.76 35.2235 10.76C35.7462 10.76 36.1542 10.6533 36.4475 10.44C36.7462 10.2267 36.8955 9.93333 36.8955 9.56C36.8955 9.34133 36.8422 9.16533 36.7355 9.032C36.6342 8.89333 36.4182 8.76267 36.0875 8.64C35.7568 8.51733 35.2528 8.36533 34.5755 8.184C33.8342 7.992 33.2448 7.78667 32.8075 7.568C32.3755 7.344 32.0662 7.08533 31.8795 6.792C31.6982 6.49333 31.6075 6.13333 31.6075 5.712C31.6075 5.18933 31.7462 4.73333 32.0235 4.344C32.3008 3.95467 32.6902 3.65333 33.1915 3.44C33.6982 3.22667 34.2902 3.12 34.9675 3.12C35.6288 3.12 36.2182 3.224 36.7355 3.432C37.2528 3.64 37.6715 3.936 37.9915 4.32C38.3115 4.69867 38.5035 5.144 38.5675 5.656L36.8555 5.968C36.7968 5.552 36.6022 5.224 36.2715 4.984C35.9408 4.744 35.5115 4.61333 34.9835 4.592C34.4768 4.57067 34.0662 4.656 33.7515 4.848C33.4368 5.03467 33.2795 5.29333 33.2795 5.624C33.2795 5.816 33.3382 5.97867 33.4555 6.112C33.5782 6.24533 33.8128 6.37333 34.1595 6.496C34.5062 6.61867 35.0182 6.76533 35.6955 6.936C36.4208 7.12267 36.9968 7.33067 37.4235 7.56C37.8502 7.784 38.1542 8.05333 38.3355 8.368C38.5222 8.67733 38.6155 9.05333 38.6155 9.496C38.6155 10.3493 38.3035 11.0187 37.6795 11.504C37.0608 11.9893 36.2048 12.232 35.1115 12.232ZM45.3296 12C44.7856 12.1067 44.2523 12.152 43.7296 12.136C43.207 12.12 42.7403 12.0187 42.3296 11.832C41.919 11.6453 41.6096 11.352 41.4016 10.952C41.215 10.5947 41.1136 10.232 41.0976 9.864C41.087 9.49067 41.0816 9.06933 41.0816 8.6V0.959999H42.7616V8.52C42.7616 8.86667 42.7643 9.168 42.7696 9.424C42.7803 9.68 42.8363 9.896 42.9376 10.072C43.1296 10.4027 43.4336 10.592 43.8496 10.64C44.271 10.6827 44.7643 10.664 45.3296 10.584V12ZM39.4256 4.704V3.36H45.3296V4.704H39.4256ZM47.1513 12V3.36H48.6393V5.456L48.4313 5.184C48.5379 4.90667 48.6766 4.65333 48.8473 4.424C49.0179 4.18933 49.2153 3.99733 49.4393 3.848C49.6579 3.688 49.9006 3.56533 50.1673 3.48C50.4393 3.38933 50.7166 3.336 50.9993 3.32C51.2819 3.29867 51.5539 3.312 51.8153 3.36V4.928C51.5326 4.85333 51.2179 4.832 50.8713 4.864C50.5299 4.896 50.2153 5.00533 49.9273 5.192C49.6553 5.368 49.4393 5.58133 49.2793 5.832C49.1246 6.08267 49.0126 6.36267 48.9433 6.672C48.8739 6.976 48.8393 7.29867 48.8393 7.64V12H47.1513ZM56.9345 12.24C56.0705 12.24 55.3212 12.0453 54.6865 11.656C54.0518 11.2667 53.5612 10.7307 53.2145 10.048C52.8732 9.36 52.7025 8.568 52.7025 7.672C52.7025 6.77067 52.8785 5.97867 53.2305 5.296C53.5825 4.608 54.0758 4.07467 54.7105 3.696C55.3452 3.312 56.0865 3.12 56.9345 3.12C57.7985 3.12 58.5478 3.31467 59.1825 3.704C59.8172 4.09333 60.3078 4.62933 60.6545 5.312C61.0012 5.99467 61.1745 6.78133 61.1745 7.672C61.1745 8.57333 60.9985 9.368 60.6465 10.056C60.2998 10.7387 59.8092 11.2747 59.1745 11.664C58.5398 12.048 57.7932 12.24 56.9345 12.24ZM56.9345 10.664C57.7612 10.664 58.3772 10.3867 58.7825 9.832C59.1932 9.272 59.3985 8.552 59.3985 7.672C59.3985 6.77067 59.1905 6.05067 58.7745 5.512C58.3638 4.968 57.7505 4.696 56.9345 4.696C56.3745 4.696 55.9132 4.824 55.5505 5.08C55.1878 5.33067 54.9185 5.68 54.7425 6.128C54.5665 6.57067 54.4785 7.08533 54.4785 7.672C54.4785 8.57867 54.6865 9.304 55.1025 9.848C55.5185 10.392 56.1292 10.664 56.9345 10.664ZM69.8316 12.24C68.9463 12.24 68.1943 12.0427 67.5756 11.648C66.957 11.2533 66.4823 10.712 66.1516 10.024C65.8263 9.336 65.661 8.55467 65.6556 7.68C65.661 6.78933 65.8316 6.00267 66.1676 5.32C66.5036 4.632 66.9836 4.09333 67.6076 3.704C68.2316 3.31467 68.981 3.12 69.8556 3.12C70.7996 3.12 71.605 3.35467 72.2716 3.824C72.9436 4.29333 73.3863 4.936 73.5996 5.752L71.9356 6.232C71.7703 5.74667 71.4983 5.37067 71.1196 5.104C70.7463 4.832 70.317 4.696 69.8316 4.696C69.2823 4.696 68.8316 4.82667 68.4796 5.088C68.1276 5.344 67.8663 5.696 67.6956 6.144C67.525 6.592 67.437 7.104 67.4316 7.68C67.437 8.57067 67.6396 9.29067 68.0396 9.84C68.445 10.3893 69.0423 10.664 69.8316 10.664C70.3703 10.664 70.805 10.5413 71.1356 10.296C71.4716 10.0453 71.7276 9.688 71.9036 9.224L73.5996 9.624C73.317 10.4667 72.8503 11.1147 72.1996 11.568C71.549 12.016 70.7596 12.24 69.8316 12.24ZM78.747 12.24C77.883 12.24 77.1337 12.0453 76.499 11.656C75.8643 11.2667 75.3737 10.7307 75.027 10.048C74.6857 9.36 74.515 8.568 74.515 7.672C74.515 6.77067 74.691 5.97867 75.043 5.296C75.395 4.608 75.8883 4.07467 76.523 3.696C77.1577 3.312 77.899 3.12 78.747 3.12C79.611 3.12 80.3603 3.31467 80.995 3.704C81.6297 4.09333 82.1203 4.62933 82.467 5.312C82.8137 5.99467 82.987 6.78133 82.987 7.672C82.987 8.57333 82.811 9.368 82.459 10.056C82.1123 10.7387 81.6217 11.2747 80.987 11.664C80.3523 12.048 79.6057 12.24 78.747 12.24ZM78.747 10.664C79.5737 10.664 80.1897 10.3867 80.595 9.832C81.0057 9.272 81.211 8.552 81.211 7.672C81.211 6.77067 81.003 6.05067 80.587 5.512C80.1763 4.968 79.563 4.696 78.747 4.696C78.187 4.696 77.7257 4.824 77.363 5.08C77.0003 5.33067 76.731 5.68 76.555 6.128C76.379 6.57067 76.291 7.08533 76.291 7.672C76.291 8.57867 76.499 9.304 76.915 9.848C77.331 10.392 77.9417 10.664 78.747 10.664ZM95.097 12L95.105 6.616C95.105 5.992 94.945 5.50667 94.625 5.16C94.305 4.808 93.8837 4.632 93.361 4.632C93.041 4.632 92.7477 4.70667 92.481 4.856C92.2197 5 92.0063 5.21867 91.841 5.512C91.681 5.8 91.601 6.16267 91.601 6.6L90.793 6.192C90.7823 5.584 90.9103 5.05067 91.177 4.592C91.449 4.13333 91.817 3.77867 92.281 3.528C92.745 3.272 93.265 3.144 93.841 3.144C94.7743 3.144 95.497 3.424 96.009 3.984C96.521 4.544 96.777 5.288 96.777 6.216L96.769 12H95.097ZM84.737 12V3.36H86.225V5.856H86.417V12H84.737ZM89.921 12L89.929 6.648C89.929 6.01867 89.769 5.52533 89.449 5.168C89.1343 4.81067 88.7103 4.632 88.177 4.632C87.649 4.632 87.2223 4.81333 86.897 5.176C86.577 5.53867 86.417 6.01333 86.417 6.6L85.617 6.088C85.617 5.52267 85.753 5.01867 86.025 4.576C86.297 4.13333 86.665 3.784 87.129 3.528C87.593 3.272 88.1183 3.144 88.705 3.144C89.3183 3.144 89.841 3.27467 90.273 3.536C90.705 3.792 91.033 4.152 91.257 4.616C91.4863 5.08 91.601 5.61867 91.601 6.232L91.593 12H89.921ZM102.91 12.24C102.084 12.24 101.39 12.04 100.83 11.64C100.27 11.2347 99.8464 10.688 99.5584 10C99.2704 9.312 99.1264 8.536 99.1264 7.672C99.1264 6.808 99.2677 6.032 99.5504 5.344C99.8384 4.656 100.26 4.11467 100.814 3.72C101.374 3.32 102.062 3.12 102.878 3.12C103.689 3.12 104.388 3.32 104.974 3.72C105.566 4.11467 106.022 4.656 106.342 5.344C106.662 6.02667 106.822 6.80267 106.822 7.672C106.822 8.536 106.662 9.31467 106.342 10.008C106.028 10.696 105.577 11.24 104.99 11.64C104.409 12.04 103.716 12.24 102.91 12.24ZM98.8464 15.84V3.36H100.334V9.576H100.526V15.84H98.8464ZM102.678 10.728C103.212 10.728 103.652 10.592 103.998 10.32C104.35 10.048 104.612 9.68267 104.782 9.224C104.958 8.76 105.046 8.24267 105.046 7.672C105.046 7.10667 104.958 6.59467 104.782 6.136C104.612 5.67733 104.348 5.312 103.99 5.04C103.633 4.768 103.177 4.632 102.622 4.632C102.1 4.632 101.668 4.76 101.326 5.016C100.99 5.272 100.74 5.62933 100.574 6.088C100.414 6.54667 100.334 7.07467 100.334 7.672C100.334 8.26933 100.414 8.79733 100.574 9.256C100.734 9.71467 100.988 10.0747 101.334 10.336C101.681 10.5973 102.129 10.728 102.678 10.728ZM108.589 12V3.36H110.077V5.456L109.869 5.184C109.975 4.90667 110.114 4.65333 110.285 4.424C110.455 4.18933 110.653 3.99733 110.877 3.848C111.095 3.688 111.338 3.56533 111.605 3.48C111.877 3.38933 112.154 3.336 112.437 3.32C112.719 3.29867 112.991 3.312 113.253 3.36V4.928C112.97 4.85333 112.655 4.832 112.309 4.864C111.967 4.896 111.653 5.00533 111.365 5.192C111.093 5.368 110.877 5.58133 110.717 5.832C110.562 6.08267 110.45 6.36267 110.381 6.672C110.311 6.976 110.277 7.29867 110.277 7.64V12H108.589ZM118.372 12.24C117.508 12.24 116.759 12.0453 116.124 11.656C115.489 11.2667 114.999 10.7307 114.652 10.048C114.311 9.36 114.14 8.568 114.14 7.672C114.14 6.77067 114.316 5.97867 114.668 5.296C115.02 4.608 115.513 4.07467 116.148 3.696C116.783 3.312 117.524 3.12 118.372 3.12C119.236 3.12 119.985 3.31467 120.62 3.704C121.255 4.09333 121.745 4.62933 122.092 5.312C122.439 5.99467 122.612 6.78133 122.612 7.672C122.612 8.57333 122.436 9.368 122.084 10.056C121.737 10.7387 121.247 11.2747 120.612 11.664C119.977 12.048 119.231 12.24 118.372 12.24ZM118.372 10.664C119.199 10.664 119.815 10.3867 120.22 9.832C120.631 9.272 120.836 8.552 120.836 7.672C120.836 6.77067 120.628 6.05067 120.212 5.512C119.801 4.968 119.188 4.696 118.372 4.696C117.812 4.696 117.351 4.824 116.988 5.08C116.625 5.33067 116.356 5.68 116.18 6.128C116.004 6.57067 115.916 7.08533 115.916 7.672C115.916 8.57867 116.124 9.304 116.54 9.848C116.956 10.392 117.567 10.664 118.372 10.664ZM134.722 12L134.73 6.616C134.73 5.992 134.57 5.50667 134.25 5.16C133.93 4.808 133.509 4.632 132.986 4.632C132.666 4.632 132.373 4.70667 132.106 4.856C131.845 5 131.631 5.21867 131.466 5.512C131.306 5.8 131.226 6.16267 131.226 6.6L130.418 6.192C130.407 5.584 130.535 5.05067 130.802 4.592C131.074 4.13333 131.442 3.77867 131.906 3.528C132.37 3.272 132.89 3.144 133.466 3.144C134.399 3.144 135.122 3.424 135.634 3.984C136.146 4.544 136.402 5.288 136.402 6.216L136.394 12H134.722ZM124.362 12V3.36H125.85V5.856H126.042V12H124.362ZM129.546 12L129.554 6.648C129.554 6.01867 129.394 5.52533 129.074 5.168C128.759 4.81067 128.335 4.632 127.802 4.632C127.274 4.632 126.847 4.81333 126.522 5.176C126.202 5.53867 126.042 6.01333 126.042 6.6L125.242 6.088C125.242 5.52267 125.378 5.01867 125.65 4.576C125.922 4.13333 126.29 3.784 126.754 3.528C127.218 3.272 127.743 3.144 128.33 3.144C128.943 3.144 129.466 3.27467 129.898 3.536C130.33 3.792 130.658 4.152 130.882 4.616C131.111 5.08 131.226 5.61867 131.226 6.232L131.218 12H129.546ZM138.639 1.944V0.32H140.311V1.944H138.639ZM138.639 12V3.36H140.311V12H138.639ZM146.018 12.232C144.967 12.232 144.111 12 143.45 11.536C142.788 11.072 142.383 10.4187 142.234 9.576L143.946 9.312C144.052 9.76 144.298 10.1147 144.682 10.376C145.071 10.632 145.554 10.76 146.13 10.76C146.652 10.76 147.06 10.6533 147.354 10.44C147.652 10.2267 147.802 9.93333 147.802 9.56C147.802 9.34133 147.748 9.16533 147.642 9.032C147.54 8.89333 147.324 8.76267 146.994 8.64C146.663 8.51733 146.159 8.36533 145.482 8.184C144.74 7.992 144.151 7.78667 143.714 7.568C143.282 7.344 142.972 7.08533 142.786 6.792C142.604 6.49333 142.514 6.13333 142.514 5.712C142.514 5.18933 142.652 4.73333 142.93 4.344C143.207 3.95467 143.596 3.65333 144.098 3.44C144.604 3.22667 145.196 3.12 145.874 3.12C146.535 3.12 147.124 3.224 147.642 3.432C148.159 3.64 148.578 3.936 148.898 4.32C149.218 4.69867 149.41 5.144 149.474 5.656L147.762 5.968C147.703 5.552 147.508 5.224 147.178 4.984C146.847 4.744 146.418 4.61333 145.89 4.592C145.383 4.57067 144.972 4.656 144.658 4.848C144.343 5.03467 144.186 5.29333 144.186 5.624C144.186 5.816 144.244 5.97867 144.362 6.112C144.484 6.24533 144.719 6.37333 145.066 6.496C145.412 6.61867 145.924 6.76533 146.602 6.936C147.327 7.12267 147.903 7.33067 148.33 7.56C148.756 7.784 149.06 8.05333 149.242 8.368C149.428 8.67733 149.522 9.05333 149.522 9.496C149.522 10.3493 149.21 11.0187 148.586 11.504C147.967 11.9893 147.111 12.232 146.018 12.232ZM155.044 12.24C154.18 12.24 153.431 12.0453 152.796 11.656C152.161 11.2667 151.671 10.7307 151.324 10.048C150.983 9.36 150.812 8.568 150.812 7.672C150.812 6.77067 150.988 5.97867 151.34 5.296C151.692 4.608 152.185 4.07467 152.82 3.696C153.455 3.312 154.196 3.12 155.044 3.12C155.908 3.12 156.657 3.31467 157.292 3.704C157.927 4.09333 158.417 4.62933 158.764 5.312C159.111 5.99467 159.284 6.78133 159.284 7.672C159.284 8.57333 159.108 9.368 158.756 10.056C158.409 10.7387 157.919 11.2747 157.284 11.664C156.649 12.048 155.903 12.24 155.044 12.24ZM155.044 10.664C155.871 10.664 156.487 10.3867 156.892 9.832C157.303 9.272 157.508 8.552 157.508 7.672C157.508 6.77067 157.3 6.05067 156.884 5.512C156.473 4.968 155.86 4.696 155.044 4.696C154.484 4.696 154.023 4.824 153.66 5.08C153.297 5.33067 153.028 5.68 152.852 6.128C152.676 6.57067 152.588 7.08533 152.588 7.672C152.588 8.57867 152.796 9.304 153.212 9.848C153.628 10.392 154.239 10.664 155.044 10.664ZM167.549 12.232C166.498 12.232 165.642 12 164.981 11.536C164.32 11.072 163.914 10.4187 163.765 9.576L165.477 9.312C165.584 9.76 165.829 10.1147 166.213 10.376C166.602 10.632 167.085 10.76 167.661 10.76C168.184 10.76 168.592 10.6533 168.885 10.44C169.184 10.2267 169.333 9.93333 169.333 9.56C169.333 9.34133 169.28 9.16533 169.173 9.032C169.072 8.89333 168.856 8.76267 168.525 8.64C168.194 8.51733 167.69 8.36533 167.013 8.184C166.272 7.992 165.682 7.78667 165.245 7.568C164.813 7.344 164.504 7.08533 164.317 6.792C164.136 6.49333 164.045 6.13333 164.045 5.712C164.045 5.18933 164.184 4.73333 164.461 4.344C164.738 3.95467 165.128 3.65333 165.629 3.44C166.136 3.22667 166.728 3.12 167.405 3.12C168.066 3.12 168.656 3.224 169.173 3.432C169.69 3.64 170.109 3.936 170.429 4.32C170.749 4.69867 170.941 5.144 171.005 5.656L169.293 5.968C169.234 5.552 169.04 5.224 168.709 4.984C168.378 4.744 167.949 4.61333 167.421 4.592C166.914 4.57067 166.504 4.656 166.189 4.848C165.874 5.03467 165.717 5.29333 165.717 5.624C165.717 5.816 165.776 5.97867 165.893 6.112C166.016 6.24533 166.25 6.37333 166.597 6.496C166.944 6.61867 167.456 6.76533 168.133 6.936C168.858 7.12267 169.434 7.33067 169.861 7.56C170.288 7.784 170.592 8.05333 170.773 8.368C170.96 8.67733 171.053 9.05333 171.053 9.496C171.053 10.3493 170.741 11.0187 170.117 11.504C169.498 11.9893 168.642 12.232 167.549 12.232ZM176.655 12.24C175.796 12.24 175.042 12.0533 174.391 11.68C173.746 11.3013 173.242 10.776 172.879 10.104C172.522 9.42667 172.343 8.64267 172.343 7.752C172.343 6.808 172.519 5.98933 172.871 5.296C173.228 4.60267 173.724 4.06667 174.359 3.688C174.994 3.30933 175.732 3.12 176.575 3.12C177.455 3.12 178.204 3.32533 178.823 3.736C179.442 4.14133 179.903 4.72 180.207 5.472C180.516 6.224 180.639 7.11733 180.575 8.152H178.903V7.544C178.892 6.54133 178.7 5.8 178.327 5.32C177.959 4.84 177.396 4.6 176.639 4.6C175.802 4.6 175.172 4.864 174.751 5.392C174.33 5.92 174.119 6.68267 174.119 7.68C174.119 8.62933 174.33 9.36533 174.751 9.888C175.172 10.4053 175.78 10.664 176.575 10.664C177.098 10.664 177.548 10.5467 177.927 10.312C178.311 10.072 178.61 9.73067 178.823 9.288L180.463 9.808C180.127 10.5813 179.618 11.1813 178.935 11.608C178.252 12.0293 177.492 12.24 176.655 12.24ZM173.575 8.152V6.848H179.743V8.152H173.575ZM185.573 12V3.36H187.061V5.456L186.853 5.184C186.96 4.90667 187.098 4.65333 187.269 4.424C187.44 4.18933 187.637 3.99733 187.861 3.848C188.08 3.688 188.322 3.56533 188.589 3.48C188.861 3.38933 189.138 3.336 189.421 3.32C189.704 3.29867 189.976 3.312 190.237 3.36V4.928C189.954 4.85333 189.64 4.832 189.293 4.864C188.952 4.896 188.637 5.00533 188.349 5.192C188.077 5.368 187.861 5.58133 187.701 5.832C187.546 6.08267 187.434 6.36267 187.365 6.672C187.296 6.976 187.261 7.29867 187.261 7.64V12H185.573ZM195.436 12.24C194.578 12.24 193.823 12.0533 193.172 11.68C192.527 11.3013 192.023 10.776 191.66 10.104C191.303 9.42667 191.124 8.64267 191.124 7.752C191.124 6.808 191.3 5.98933 191.652 5.296C192.01 4.60267 192.506 4.06667 193.14 3.688C193.775 3.30933 194.514 3.12 195.356 3.12C196.236 3.12 196.986 3.32533 197.604 3.736C198.223 4.14133 198.684 4.72 198.988 5.472C199.298 6.224 199.42 7.11733 199.356 8.152H197.684V7.544C197.674 6.54133 197.482 5.8 197.108 5.32C196.74 4.84 196.178 4.6 195.42 4.6C194.583 4.6 193.954 4.864 193.532 5.392C193.111 5.92 192.9 6.68267 192.9 7.68C192.9 8.62933 193.111 9.36533 193.532 9.888C193.954 10.4053 194.562 10.664 195.356 10.664C195.879 10.664 196.33 10.5467 196.708 10.312C197.092 10.072 197.391 9.73067 197.604 9.288L199.244 9.808C198.908 10.5813 198.399 11.1813 197.716 11.608C197.034 12.0293 196.274 12.24 195.436 12.24ZM192.356 8.152V6.848H198.524V8.152H192.356ZM205.623 4.704V3.36H207.863V4.704H205.623ZM201.943 12V3.056C201.943 2.83733 201.951 2.60533 201.967 2.36C201.983 2.10933 202.029 1.864 202.103 1.624C202.183 1.37867 202.314 1.15467 202.495 0.952C202.714 0.711999 202.954 0.541333 203.215 0.44C203.477 0.338666 203.735 0.279999 203.991 0.263999C204.253 0.248 204.493 0.24 204.711 0.24H205.799V1.616H204.791C204.397 1.616 204.101 1.71467 203.903 1.912C203.711 2.104 203.615 2.37867 203.615 2.736V12H201.943ZM200.511 4.704V3.36H205.799V4.704H200.511ZM207.759 12V0.24H209.431V12H207.759ZM215.671 12.24C214.812 12.24 214.057 12.0533 213.407 11.68C212.761 11.3013 212.257 10.776 211.895 10.104C211.537 9.42667 211.359 8.64267 211.359 7.752C211.359 6.808 211.535 5.98933 211.887 5.296C212.244 4.60267 212.74 4.06667 213.375 3.688C214.009 3.30933 214.748 3.12 215.591 3.12C216.471 3.12 217.22 3.32533 217.839 3.736C218.457 4.14133 218.919 4.72 219.223 5.472C219.532 6.224 219.655 7.11733 219.591 8.152H217.919V7.544C217.908 6.54133 217.716 5.8 217.343 5.32C216.975 4.84 216.412 4.6 215.655 4.6C214.817 4.6 214.188 4.864 213.767 5.392C213.345 5.92 213.135 6.68267 213.135 7.68C213.135 8.62933 213.345 9.36533 213.767 9.888C214.188 10.4053 214.796 10.664 215.591 10.664C216.113 10.664 216.564 10.5467 216.943 10.312C217.327 10.072 217.625 9.73067 217.839 9.288L219.479 9.808C219.143 10.5813 218.633 11.1813 217.951 11.608C217.268 12.0293 216.508 12.24 215.671 12.24ZM212.591 8.152V6.848H218.759V8.152H212.591ZM220.106 15.84V14.256H220.546C220.988 14.256 221.311 14.1493 221.514 13.936C221.722 13.7227 221.826 13.3947 221.826 12.952V3.36H223.506V13.632C223.506 14.336 223.311 14.88 222.922 15.264C222.538 15.648 221.986 15.84 221.266 15.84H220.106ZM221.826 1.944V0.32H223.506V1.944H221.826ZM228.232 12.24C227.592 12.24 227.056 12.1227 226.624 11.888C226.192 11.648 225.864 11.3333 225.64 10.944C225.421 10.5493 225.312 10.1173 225.312 9.648C225.312 9.21067 225.389 8.82667 225.544 8.496C225.699 8.16533 225.928 7.88533 226.232 7.656C226.536 7.42133 226.909 7.232 227.352 7.088C227.736 6.976 228.171 6.87733 228.656 6.792C229.141 6.70667 229.651 6.62667 230.184 6.552C230.723 6.47733 231.256 6.40267 231.784 6.328L231.176 6.664C231.187 5.98667 231.043 5.48533 230.744 5.16C230.451 4.82933 229.944 4.664 229.224 4.664C228.771 4.664 228.355 4.77067 227.976 4.984C227.597 5.192 227.333 5.53867 227.184 6.024L225.624 5.544C225.837 4.80267 226.243 4.21333 226.84 3.776C227.443 3.33867 228.243 3.12 229.24 3.12C230.013 3.12 230.685 3.25333 231.256 3.52C231.832 3.78133 232.253 4.19733 232.52 4.768C232.659 5.05067 232.744 5.34933 232.776 5.664C232.808 5.97867 232.824 6.31733 232.824 6.68V12H231.344V10.024L231.632 10.28C231.275 10.9413 230.819 11.4347 230.264 11.76C229.715 12.08 229.037 12.24 228.232 12.24ZM228.528 10.872C229.003 10.872 229.411 10.7893 229.752 10.624C230.093 10.4533 230.368 10.2373 230.576 9.976C230.784 9.71467 230.92 9.44267 230.984 9.16C231.075 8.904 231.125 8.616 231.136 8.296C231.152 7.976 231.16 7.72 231.16 7.528L231.704 7.728C231.176 7.808 230.696 7.88 230.264 7.944C229.832 8.008 229.44 8.072 229.088 8.136C228.741 8.19467 228.432 8.26667 228.16 8.352C227.931 8.432 227.725 8.528 227.544 8.64C227.368 8.752 227.227 8.888 227.12 9.048C227.019 9.208 226.968 9.40267 226.968 9.632C226.968 9.856 227.024 10.064 227.136 10.256C227.248 10.4427 227.419 10.592 227.648 10.704C227.877 10.816 228.171 10.872 228.528 10.872ZM241.936 12.24C241.078 12.24 240.323 12.0533 239.672 11.68C239.027 11.3013 238.523 10.776 238.16 10.104C237.803 9.42667 237.624 8.64267 237.624 7.752C237.624 6.808 237.8 5.98933 238.152 5.296C238.51 4.60267 239.006 4.06667 239.64 3.688C240.275 3.30933 241.014 3.12 241.856 3.12C242.736 3.12 243.486 3.32533 244.104 3.736C244.723 4.14133 245.184 4.72 245.488 5.472C245.798 6.224 245.92 7.11733 245.856 8.152H244.184V7.544C244.174 6.54133 243.982 5.8 243.608 5.32C243.24 4.84 242.678 4.6 241.92 4.6C241.083 4.6 240.454 4.864 240.032 5.392C239.611 5.92 239.4 6.68267 239.4 7.68C239.4 8.62933 239.611 9.36533 240.032 9.888C240.454 10.4053 241.062 10.664 241.856 10.664C242.379 10.664 242.83 10.5467 243.208 10.312C243.592 10.072 243.891 9.73067 244.104 9.288L245.744 9.808C245.408 10.5813 244.899 11.1813 244.216 11.608C243.534 12.0293 242.774 12.24 241.936 12.24ZM238.856 8.152V6.848H245.024V8.152H238.856ZM253.481 12V7.752C253.481 7.416 253.452 7.072 253.393 6.72C253.34 6.36267 253.233 6.032 253.073 5.728C252.918 5.424 252.697 5.17867 252.409 4.992C252.126 4.80533 251.756 4.712 251.297 4.712C250.998 4.712 250.716 4.76267 250.449 4.864C250.182 4.96 249.948 5.11733 249.745 5.336C249.548 5.55467 249.39 5.84267 249.273 6.2C249.161 6.55733 249.105 6.992 249.105 7.504L248.065 7.112C248.065 6.328 248.212 5.63733 248.505 5.04C248.798 4.43733 249.22 3.968 249.769 3.632C250.318 3.296 250.982 3.128 251.761 3.128C252.358 3.128 252.86 3.224 253.265 3.416C253.67 3.608 253.998 3.86133 254.249 4.176C254.505 4.48533 254.7 4.824 254.833 5.192C254.966 5.56 255.057 5.92 255.105 6.272C255.153 6.624 255.177 6.93333 255.177 7.2V12H253.481ZM247.409 12V3.36H248.905V5.856H249.105V12H247.409ZM264.52 12.24C263.693 12.24 263 12.04 262.44 11.64C261.88 11.2347 261.456 10.688 261.168 10C260.88 9.312 260.736 8.536 260.736 7.672C260.736 6.808 260.877 6.032 261.16 5.344C261.448 4.656 261.869 4.11467 262.424 3.72C262.984 3.32 263.672 3.12 264.488 3.12C265.298 3.12 265.997 3.32 266.584 3.72C267.176 4.11467 267.632 4.656 267.952 5.344C268.272 6.02667 268.432 6.80267 268.432 7.672C268.432 8.536 268.272 9.31467 267.952 10.008C267.637 10.696 267.186 11.24 266.6 11.64C266.018 12.04 265.325 12.24 264.52 12.24ZM260.456 15.84V3.36H261.944V9.576H262.136V15.84H260.456ZM264.288 10.728C264.821 10.728 265.261 10.592 265.608 10.32C265.96 10.048 266.221 9.68267 266.392 9.224C266.568 8.76 266.656 8.24267 266.656 7.672C266.656 7.10667 266.568 6.59467 266.392 6.136C266.221 5.67733 265.957 5.312 265.6 5.04C265.242 4.768 264.786 4.632 264.232 4.632C263.709 4.632 263.277 4.76 262.936 5.016C262.6 5.272 262.349 5.62933 262.184 6.088C262.024 6.54667 261.944 7.07467 261.944 7.672C261.944 8.26933 262.024 8.79733 262.184 9.256C262.344 9.71467 262.597 10.0747 262.944 10.336C263.29 10.5973 263.738 10.728 264.288 10.728ZM270.198 12V3.36H271.686V5.456L271.478 5.184C271.585 4.90667 271.723 4.65333 271.894 4.424C272.065 4.18933 272.262 3.99733 272.486 3.848C272.705 3.688 272.947 3.56533 273.214 3.48C273.486 3.38933 273.763 3.336 274.046 3.32C274.329 3.29867 274.601 3.312 274.862 3.36V4.928C274.579 4.85333 274.265 4.832 273.918 4.864C273.577 4.896 273.262 5.00533 272.974 5.192C272.702 5.368 272.486 5.58133 272.326 5.832C272.171 6.08267 272.059 6.36267 271.99 6.672C271.921 6.976 271.886 7.29867 271.886 7.64V12H270.198ZM279.981 12.24C279.117 12.24 278.368 12.0453 277.733 11.656C277.099 11.2667 276.608 10.7307 276.261 10.048C275.92 9.36 275.749 8.568 275.749 7.672C275.749 6.77067 275.925 5.97867 276.277 5.296C276.629 4.608 277.123 4.07467 277.757 3.696C278.392 3.312 279.133 3.12 279.981 3.12C280.845 3.12 281.595 3.31467 282.229 3.704C282.864 4.09333 283.355 4.62933 283.701 5.312C284.048 5.99467 284.221 6.78133 284.221 7.672C284.221 8.57333 284.045 9.368 283.693 10.056C283.347 10.7387 282.856 11.2747 282.221 11.664C281.587 12.048 280.84 12.24 279.981 12.24ZM279.981 10.664C280.808 10.664 281.424 10.3867 281.829 9.832C282.24 9.272 282.445 8.552 282.445 7.672C282.445 6.77067 282.237 6.05067 281.821 5.512C281.411 4.968 280.797 4.696 279.981 4.696C279.421 4.696 278.96 4.824 278.597 5.08C278.235 5.33067 277.965 5.68 277.789 6.128C277.613 6.57067 277.525 7.08533 277.525 7.672C277.525 8.57867 277.733 9.304 278.149 9.848C278.565 10.392 279.176 10.664 279.981 10.664ZM289.675 12.24C288.79 12.24 288.038 12.0427 287.419 11.648C286.801 11.2533 286.326 10.712 285.995 10.024C285.67 9.336 285.505 8.55467 285.499 7.68C285.505 6.78933 285.675 6.00267 286.011 5.32C286.347 4.632 286.827 4.09333 287.451 3.704C288.075 3.31467 288.825 3.12 289.699 3.12C290.643 3.12 291.449 3.35467 292.115 3.824C292.787 4.29333 293.23 4.936 293.443 5.752L291.779 6.232C291.614 5.74667 291.342 5.37067 290.963 5.104C290.59 4.832 290.161 4.696 289.675 4.696C289.126 4.696 288.675 4.82667 288.323 5.088C287.971 5.344 287.71 5.696 287.539 6.144C287.369 6.592 287.281 7.104 287.275 7.68C287.281 8.57067 287.483 9.29067 287.883 9.84C288.289 10.3893 288.886 10.664 289.675 10.664C290.214 10.664 290.649 10.5413 290.979 10.296C291.315 10.0453 291.571 9.688 291.747 9.224L293.443 9.624C293.161 10.4667 292.694 11.1147 292.043 11.568C291.393 12.016 290.603 12.24 289.675 12.24ZM298.671 12.24C297.812 12.24 297.057 12.0533 296.407 11.68C295.761 11.3013 295.257 10.776 294.895 10.104C294.537 9.42667 294.359 8.64267 294.359 7.752C294.359 6.808 294.535 5.98933 294.887 5.296C295.244 4.60267 295.74 4.06667 296.375 3.688C297.009 3.30933 297.748 3.12 298.591 3.12C299.471 3.12 300.22 3.32533 300.839 3.736C301.457 4.14133 301.919 4.72 302.223 5.472C302.532 6.224 302.655 7.11733 302.591 8.152H300.919V7.544C300.908 6.54133 300.716 5.8 300.343 5.32C299.975 4.84 299.412 4.6 298.655 4.6C297.817 4.6 297.188 4.864 296.767 5.392C296.345 5.92 296.135 6.68267 296.135 7.68C296.135 8.62933 296.345 9.36533 296.767 9.888C297.188 10.4053 297.796 10.664 298.591 10.664C299.113 10.664 299.564 10.5467 299.943 10.312C300.327 10.072 300.625 9.73067 300.839 9.288L302.479 9.808C302.143 10.5813 301.633 11.1813 300.951 11.608C300.268 12.0293 299.508 12.24 298.671 12.24ZM295.591 8.152V6.848H301.759V8.152H295.591ZM307.69 12.232C306.639 12.232 305.783 12 305.122 11.536C304.46 11.072 304.055 10.4187 303.906 9.576L305.618 9.312C305.724 9.76 305.97 10.1147 306.354 10.376C306.743 10.632 307.226 10.76 307.802 10.76C308.324 10.76 308.732 10.6533 309.026 10.44C309.324 10.2267 309.474 9.93333 309.474 9.56C309.474 9.34133 309.42 9.16533 309.314 9.032C309.212 8.89333 308.996 8.76267 308.666 8.64C308.335 8.51733 307.831 8.36533 307.154 8.184C306.412 7.992 305.823 7.78667 305.386 7.568C304.954 7.344 304.644 7.08533 304.458 6.792C304.276 6.49333 304.186 6.13333 304.186 5.712C304.186 5.18933 304.324 4.73333 304.602 4.344C304.879 3.95467 305.268 3.65333 305.77 3.44C306.276 3.22667 306.868 3.12 307.546 3.12C308.207 3.12 308.796 3.224 309.314 3.432C309.831 3.64 310.25 3.936 310.57 4.32C310.89 4.69867 311.082 5.144 311.146 5.656L309.434 5.968C309.375 5.552 309.18 5.224 308.85 4.984C308.519 4.744 308.09 4.61333 307.562 4.592C307.055 4.57067 306.644 4.656 306.33 4.848C306.015 5.03467 305.858 5.29333 305.858 5.624C305.858 5.816 305.916 5.97867 306.034 6.112C306.156 6.24533 306.391 6.37333 306.738 6.496C307.084 6.61867 307.596 6.76533 308.274 6.936C308.999 7.12267 309.575 7.33067 310.002 7.56C310.428 7.784 310.732 8.05333 310.914 8.368C311.1 8.67733 311.194 9.05333 311.194 9.496C311.194 10.3493 310.882 11.0187 310.258 11.504C309.639 11.9893 308.783 12.232 307.69 12.232ZM316.716 12.24C315.852 12.24 315.102 12.0453 314.468 11.656C313.833 11.2667 313.342 10.7307 312.996 10.048C312.654 9.36 312.484 8.568 312.484 7.672C312.484 6.77067 312.66 5.97867 313.012 5.296C313.364 4.608 313.857 4.07467 314.492 3.696C315.126 3.312 315.868 3.12 316.716 3.12C317.58 3.12 318.329 3.31467 318.964 3.704C319.598 4.09333 320.089 4.62933 320.436 5.312C320.782 5.99467 320.956 6.78133 320.956 7.672C320.956 8.57333 320.78 9.368 320.428 10.056C320.081 10.7387 319.59 11.2747 318.956 11.664C318.321 12.048 317.574 12.24 316.716 12.24ZM316.716 10.664C317.542 10.664 318.158 10.3867 318.564 9.832C318.974 9.272 319.18 8.552 319.18 7.672C319.18 6.77067 318.972 6.05067 318.556 5.512C318.145 4.968 317.532 4.696 316.716 4.696C316.156 4.696 315.694 4.824 315.332 5.08C314.969 5.33067 314.7 5.68 314.524 6.128C314.348 6.57067 314.26 7.08533 314.26 7.672C314.26 8.57867 314.468 9.304 314.884 9.848C315.3 10.392 315.91 10.664 316.716 10.664ZM325.862 12.232C324.811 12.232 323.955 12 323.294 11.536C322.632 11.072 322.227 10.4187 322.078 9.576L323.789 9.312C323.896 9.76 324.142 10.1147 324.526 10.376C324.915 10.632 325.398 10.76 325.974 10.76C326.496 10.76 326.904 10.6533 327.198 10.44C327.496 10.2267 327.646 9.93333 327.646 9.56C327.646 9.34133 327.592 9.16533 327.486 9.032C327.384 8.89333 327.168 8.76267 326.838 8.64C326.507 8.51733 326.003 8.36533 325.326 8.184C324.584 7.992 323.995 7.78667 323.558 7.568C323.126 7.344 322.816 7.08533 322.63 6.792C322.448 6.49333 322.358 6.13333 322.358 5.712C322.358 5.18933 322.496 4.73333 322.774 4.344C323.051 3.95467 323.44 3.65333 323.942 3.44C324.448 3.22667 325.04 3.12 325.718 3.12C326.379 3.12 326.968 3.224 327.486 3.432C328.003 3.64 328.422 3.936 328.742 4.32C329.062 4.69867 329.254 5.144 329.318 5.656L327.606 5.968C327.547 5.552 327.352 5.224 327.022 4.984C326.691 4.744 326.262 4.61333 325.734 4.592C325.227 4.57067 324.816 4.656 324.502 4.848C324.187 5.03467 324.03 5.29333 324.03 5.624C324.03 5.816 324.088 5.97867 324.206 6.112C324.328 6.24533 324.563 6.37333 324.91 6.496C325.256 6.61867 325.768 6.76533 326.446 6.936C327.171 7.12267 327.747 7.33067 328.174 7.56C328.6 7.784 328.904 8.05333 329.086 8.368C329.272 8.67733 329.366 9.05333 329.366 9.496C329.366 10.3493 329.054 11.0187 328.43 11.504C327.811 11.9893 326.955 12.232 325.862 12.232ZM338.035 12.24C337.149 12.24 336.397 12.0427 335.779 11.648C335.16 11.2533 334.685 10.712 334.355 10.024C334.029 9.336 333.864 8.55467 333.859 7.68C333.864 6.78933 334.035 6.00267 334.371 5.32C334.707 4.632 335.187 4.09333 335.811 3.704C336.435 3.31467 337.184 3.12 338.059 3.12C339.003 3.12 339.808 3.35467 340.475 3.824C341.147 4.29333 341.589 4.936 341.803 5.752L340.139 6.232C339.973 5.74667 339.701 5.37067 339.323 5.104C338.949 4.832 338.52 4.696 338.035 4.696C337.485 4.696 337.035 4.82667 336.683 5.088C336.331 5.344 336.069 5.696 335.899 6.144C335.728 6.592 335.64 7.104 335.635 7.68C335.64 8.57067 335.843 9.29067 336.243 9.84C336.648 10.3893 337.245 10.664 338.035 10.664C338.573 10.664 339.008 10.5413 339.339 10.296C339.675 10.0453 339.931 9.688 340.107 9.224L341.803 9.624C341.52 10.4667 341.053 11.1147 340.403 11.568C339.752 12.016 338.963 12.24 338.035 12.24ZM343.358 12V0.24H345.03V12H343.358ZM349.873 12.24C349.233 12.24 348.697 12.1227 348.265 11.888C347.833 11.648 347.505 11.3333 347.281 10.944C347.062 10.5493 346.953 10.1173 346.953 9.648C346.953 9.21067 347.03 8.82667 347.185 8.496C347.339 8.16533 347.569 7.88533 347.873 7.656C348.177 7.42133 348.55 7.232 348.993 7.088C349.377 6.976 349.811 6.87733 350.297 6.792C350.782 6.70667 351.291 6.62667 351.825 6.552C352.363 6.47733 352.897 6.40267 353.425 6.328L352.817 6.664C352.827 5.98667 352.683 5.48533 352.385 5.16C352.091 4.82933 351.585 4.664 350.865 4.664C350.411 4.664 349.995 4.77067 349.617 4.984C349.238 5.192 348.974 5.53867 348.825 6.024L347.265 5.544C347.478 4.80267 347.883 4.21333 348.481 3.776C349.083 3.33867 349.883 3.12 350.881 3.12C351.654 3.12 352.326 3.25333 352.897 3.52C353.473 3.78133 353.894 4.19733 354.161 4.768C354.299 5.05067 354.385 5.34933 354.417 5.664C354.449 5.97867 354.465 6.31733 354.465 6.68V12H352.985V10.024L353.273 10.28C352.915 10.9413 352.459 11.4347 351.905 11.76C351.355 12.08 350.678 12.24 349.873 12.24ZM350.169 10.872C350.643 10.872 351.051 10.7893 351.393 10.624C351.734 10.4533 352.009 10.2373 352.217 9.976C352.425 9.71467 352.561 9.44267 352.625 9.16C352.715 8.904 352.766 8.616 352.777 8.296C352.793 7.976 352.801 7.72 352.801 7.528L353.345 7.728C352.817 7.808 352.337 7.88 351.905 7.944C351.473 8.008 351.081 8.072 350.729 8.136C350.382 8.19467 350.073 8.26667 349.801 8.352C349.571 8.432 349.366 8.528 349.185 8.64C349.009 8.752 348.867 8.888 348.761 9.048C348.659 9.208 348.609 9.40267 348.609 9.632C348.609 9.856 348.665 10.064 348.777 10.256C348.889 10.4427 349.059 10.592 349.289 10.704C349.518 10.816 349.811 10.872 350.169 10.872ZM356.542 12V3.36H358.03V5.456L357.822 5.184C357.929 4.90667 358.067 4.65333 358.238 4.424C358.409 4.18933 358.606 3.99733 358.83 3.848C359.049 3.688 359.291 3.56533 359.558 3.48C359.83 3.38933 360.107 3.336 360.39 3.32C360.673 3.29867 360.945 3.312 361.206 3.36V4.928C360.923 4.85333 360.609 4.832 360.262 4.864C359.921 4.896 359.606 5.00533 359.318 5.192C359.046 5.368 358.83 5.58133 358.67 5.832C358.515 6.08267 358.403 6.36267 358.334 6.672C358.265 6.976 358.23 7.29867 358.23 7.64V12H356.542ZM366.325 12.24C365.461 12.24 364.712 12.0453 364.077 11.656C363.442 11.2667 362.952 10.7307 362.605 10.048C362.264 9.36 362.093 8.568 362.093 7.672C362.093 6.77067 362.269 5.97867 362.621 5.296C362.973 4.608 363.466 4.07467 364.101 3.696C364.736 3.312 365.477 3.12 366.325 3.12C367.189 3.12 367.938 3.31467 368.573 3.704C369.208 4.09333 369.698 4.62933 370.045 5.312C370.392 5.99467 370.565 6.78133 370.565 7.672C370.565 8.57333 370.389 9.368 370.037 10.056C369.69 10.7387 369.2 11.2747 368.565 11.664C367.93 12.048 367.184 12.24 366.325 12.24ZM366.325 10.664C367.152 10.664 367.768 10.3867 368.173 9.832C368.584 9.272 368.789 8.552 368.789 7.672C368.789 6.77067 368.581 6.05067 368.165 5.512C367.754 4.968 367.141 4.696 366.325 4.696C365.765 4.696 365.304 4.824 364.941 5.08C364.578 5.33067 364.309 5.68 364.133 6.128C363.957 6.57067 363.869 7.08533 363.869 7.672C363.869 8.57867 364.077 9.304 364.493 9.848C364.909 10.392 365.52 10.664 366.325 10.664ZM375.471 12.232C374.42 12.232 373.564 12 372.903 11.536C372.242 11.072 371.836 10.4187 371.687 9.576L373.399 9.312C373.506 9.76 373.751 10.1147 374.135 10.376C374.524 10.632 375.007 10.76 375.583 10.76C376.106 10.76 376.514 10.6533 376.807 10.44C377.106 10.2267 377.255 9.93333 377.255 9.56C377.255 9.34133 377.202 9.16533 377.095 9.032C376.994 8.89333 376.778 8.76267 376.447 8.64C376.116 8.51733 375.612 8.36533 374.935 8.184C374.194 7.992 373.604 7.78667 373.167 7.568C372.735 7.344 372.426 7.08533 372.239 6.792C372.058 6.49333 371.967 6.13333 371.967 5.712C371.967 5.18933 372.106 4.73333 372.383 4.344C372.66 3.95467 373.05 3.65333 373.551 3.44C374.058 3.22667 374.65 3.12 375.327 3.12C375.988 3.12 376.578 3.224 377.095 3.432C377.612 3.64 378.031 3.936 378.351 4.32C378.671 4.69867 378.863 5.144 378.927 5.656L377.215 5.968C377.156 5.552 376.962 5.224 376.631 4.984C376.3 4.744 375.871 4.61333 375.343 4.592C374.836 4.57067 374.426 4.656 374.111 4.848C373.796 5.03467 373.639 5.29333 373.639 5.624C373.639 5.816 373.698 5.97867 373.815 6.112C373.938 6.24533 374.172 6.37333 374.519 6.496C374.866 6.61867 375.378 6.76533 376.055 6.936C376.78 7.12267 377.356 7.33067 377.783 7.56C378.21 7.784 378.514 8.05333 378.695 8.368C378.882 8.67733 378.975 9.05333 378.975 9.496C378.975 10.3493 378.663 11.0187 378.039 11.504C377.42 11.9893 376.564 12.232 375.471 12.232ZM380.585 13.912L380.689 13.168C380.918 13.184 381.097 13.1413 381.225 13.04C381.353 12.9387 381.438 12.7973 381.481 12.616C381.524 12.4347 381.532 12.2293 381.505 12H380.585V10.072H382.353V12.16C382.353 12.7893 382.201 13.264 381.897 13.584C381.598 13.904 381.161 14.0133 380.585 13.912ZM4.424 40.232C3.37333 40.232 2.51733 40 1.856 39.536C1.19467 39.072 0.789333 38.4187 0.64 37.576L2.352 37.312C2.45867 37.76 2.704 38.1147 3.088 38.376C3.47733 38.632 3.96 38.76 4.536 38.76C5.05867 38.76 5.46667 38.6533 5.76 38.44C6.05867 38.2267 6.208 37.9333 6.208 37.56C6.208 37.3413 6.15467 37.1653 6.048 37.032C5.94667 36.8933 5.73067 36.7627 5.4 36.64C5.06933 36.5173 4.56533 36.3653 3.888 36.184C3.14667 35.992 2.55733 35.7867 2.12 35.568C1.688 35.344 1.37867 35.0853 1.192 34.792C1.01067 34.4933 0.92 34.1333 0.92 33.712C0.92 33.1893 1.05867 32.7333 1.336 32.344C1.61333 31.9547 2.00267 31.6533 2.504 31.44C3.01067 31.2267 3.60267 31.12 4.28 31.12C4.94133 31.12 5.53067 31.224 6.048 31.432C6.56533 31.64 6.984 31.936 7.304 32.32C7.624 32.6987 7.816 33.144 7.88 33.656L6.168 33.968C6.10933 33.552 5.91467 33.224 5.584 32.984C5.25333 32.744 4.824 32.6133 4.296 32.592C3.78933 32.5707 3.37867 32.656 3.064 32.848C2.74933 33.0347 2.592 33.2933 2.592 33.624C2.592 33.816 2.65067 33.9787 2.768 34.112C2.89067 34.2453 3.12533 34.3733 3.472 34.496C3.81867 34.6187 4.33067 34.7653 5.008 34.936C5.73333 35.1227 6.30933 35.3307 6.736 35.56C7.16267 35.784 7.46667 36.0533 7.648 36.368C7.83467 36.6773 7.928 37.0533 7.928 37.496C7.928 38.3493 7.616 39.0187 6.992 39.504C6.37333 39.9893 5.51733 40.232 4.424 40.232ZM13.5301 40.24C12.6715 40.24 11.9168 40.0533 11.2661 39.68C10.6208 39.3013 10.1168 38.776 9.75412 38.104C9.39679 37.4267 9.21813 36.6427 9.21813 35.752C9.21813 34.808 9.39413 33.9893 9.74613 33.296C10.1035 32.6027 10.5995 32.0667 11.2341 31.688C11.8688 31.3093 12.6075 31.12 13.4501 31.12C14.3301 31.12 15.0795 31.3253 15.6981 31.736C16.3168 32.1413 16.7781 32.72 17.0821 33.472C17.3915 34.224 17.5141 35.1173 17.4501 36.152H15.7781V35.544C15.7675 34.5413 15.5755 33.8 15.2021 33.32C14.8341 32.84 14.2715 32.6 13.5141 32.6C12.6768 32.6 12.0475 32.864 11.6261 33.392C11.2048 33.92 10.9941 34.6827 10.9941 35.68C10.9941 36.6293 11.2048 37.3653 11.6261 37.888C12.0475 38.4053 12.6555 38.664 13.4501 38.664C13.9728 38.664 14.4235 38.5467 14.8021 38.312C15.1861 38.072 15.4848 37.7307 15.6981 37.288L17.3381 37.808C17.0021 38.5813 16.4928 39.1813 15.8101 39.608C15.1275 40.0293 14.3675 40.24 13.5301 40.24ZM10.4501 36.152V34.848H16.6181V36.152H10.4501ZM22.805 44.08C22.341 44.08 21.8903 44.008 21.453 43.864C21.021 43.72 20.6263 43.5067 20.269 43.224C19.9117 42.9467 19.6157 42.6027 19.381 42.192L20.925 41.408C21.1117 41.776 21.3783 42.0453 21.725 42.216C22.0717 42.3867 22.437 42.472 22.821 42.472C23.2957 42.472 23.701 42.3867 24.037 42.216C24.373 42.0507 24.6263 41.8 24.797 41.464C24.973 41.128 25.0583 40.712 25.053 40.216V37.8H25.253V31.36H26.733V40.232C26.733 40.4613 26.725 40.68 26.709 40.888C26.693 41.096 26.6637 41.304 26.621 41.512C26.4983 42.0933 26.2637 42.5733 25.917 42.952C25.5757 43.3307 25.1383 43.6133 24.605 43.8C24.077 43.9867 23.477 44.08 22.805 44.08ZM22.677 40.24C21.8717 40.24 21.1757 40.04 20.589 39.64C20.0077 39.24 19.557 38.696 19.237 38.008C18.9223 37.3147 18.765 36.536 18.765 35.672C18.765 34.8027 18.925 34.0267 19.245 33.344C19.565 32.656 20.0183 32.1147 20.605 31.72C21.197 31.32 21.8983 31.12 22.709 31.12C23.525 31.12 24.2103 31.32 24.765 31.72C25.325 32.1147 25.7463 32.656 26.029 33.344C26.317 34.032 26.461 34.808 26.461 35.672C26.461 36.536 26.317 37.312 26.029 38C25.741 38.688 25.317 39.2347 24.757 39.64C24.197 40.04 23.5037 40.24 22.677 40.24ZM22.909 38.728C23.4583 38.728 23.9063 38.5973 24.253 38.336C24.5997 38.0747 24.853 37.7147 25.013 37.256C25.173 36.7973 25.253 36.2693 25.253 35.672C25.253 35.0747 25.1703 34.5467 25.005 34.088C24.845 33.6293 24.5943 33.272 24.253 33.016C23.917 32.76 23.4877 32.632 22.965 32.632C22.4103 32.632 21.9543 32.768 21.597 33.04C21.2397 33.312 20.973 33.6773 20.797 34.136C20.6263 34.5947 20.541 35.1067 20.541 35.672C20.541 36.2427 20.6263 36.76 20.797 37.224C20.973 37.6827 21.2343 38.048 21.581 38.32C21.933 38.592 22.3757 38.728 22.909 38.728ZM32.2354 40.232C31.638 40.232 31.1367 40.136 30.7314 39.944C30.326 39.752 29.9954 39.5013 29.7394 39.192C29.4887 38.8773 29.2967 38.536 29.1634 38.168C29.03 37.8 28.9394 37.44 28.8914 37.088C28.8434 36.736 28.8194 36.4267 28.8194 36.16V31.36H30.5154V35.608C30.5154 35.944 30.542 36.2907 30.5954 36.648C30.654 37 30.7607 37.328 30.9154 37.632C31.0754 37.936 31.2967 38.1813 31.5794 38.368C31.8674 38.5547 32.2407 38.648 32.6994 38.648C32.998 38.648 33.2807 38.6 33.5474 38.504C33.814 38.4027 34.046 38.2427 34.2434 38.024C34.446 37.8053 34.6034 37.5173 34.7154 37.16C34.8327 36.8027 34.8914 36.368 34.8914 35.856L35.9314 36.248C35.9314 37.032 35.7847 37.7253 35.4914 38.328C35.198 38.9253 34.7767 39.392 34.2274 39.728C33.678 40.064 33.014 40.232 32.2354 40.232ZM35.0914 40V37.504H34.8914V31.36H36.5794V40H35.0914ZM38.8231 40V31.36H40.3111V33.456L40.1031 33.184C40.2098 32.9067 40.3485 32.6533 40.5191 32.424C40.6898 32.1893 40.8871 31.9973 41.1111 31.848C41.3298 31.688 41.5725 31.5653 41.8391 31.48C42.1111 31.3893 42.3885 31.336 42.6711 31.32C42.9538 31.2987 43.2258 31.312 43.4871 31.36V32.928C43.2045 32.8533 42.8898 32.832 42.5431 32.864C42.2018 32.896 41.8871 33.0053 41.5991 33.192C41.3271 33.368 41.1111 33.5813 40.9511 33.832C40.7965 34.0827 40.6845 34.3627 40.6151 34.672C40.5458 34.976 40.5111 35.2987 40.5111 35.64V40H38.8231ZM48.6064 40.24C47.7424 40.24 46.993 40.0453 46.3584 39.656C45.7237 39.2667 45.233 38.7307 44.8864 38.048C44.545 37.36 44.3744 36.568 44.3744 35.672C44.3744 34.7707 44.5504 33.9787 44.9024 33.296C45.2544 32.608 45.7477 32.0747 46.3824 31.696C47.017 31.312 47.7584 31.12 48.6064 31.12C49.4704 31.12 50.2197 31.3147 50.8544 31.704C51.489 32.0933 51.9797 32.6293 52.3264 33.312C52.673 33.9947 52.8464 34.7813 52.8464 35.672C52.8464 36.5733 52.6704 37.368 52.3184 38.056C51.9717 38.7387 51.481 39.2747 50.8464 39.664C50.2117 40.048 49.465 40.24 48.6064 40.24ZM48.6064 38.664C49.433 38.664 50.049 38.3867 50.4544 37.832C50.865 37.272 51.0704 36.552 51.0704 35.672C51.0704 34.7707 50.8624 34.0507 50.4464 33.512C50.0357 32.968 49.4224 32.696 48.6064 32.696C48.0464 32.696 47.585 32.824 47.2224 33.08C46.8597 33.3307 46.5904 33.68 46.4144 34.128C46.2384 34.5707 46.1504 35.0853 46.1504 35.672C46.1504 36.5787 46.3584 37.304 46.7744 37.848C47.1904 38.392 47.801 38.664 48.6064 38.664ZM57.7521 40.232C56.7015 40.232 55.8455 40 55.1841 39.536C54.5228 39.072 54.1175 38.4187 53.9681 37.576L55.6801 37.312C55.7868 37.76 56.0321 38.1147 56.4161 38.376C56.8055 38.632 57.2881 38.76 57.8641 38.76C58.3868 38.76 58.7948 38.6533 59.0881 38.44C59.3868 38.2267 59.5361 37.9333 59.5361 37.56C59.5361 37.3413 59.4828 37.1653 59.3761 37.032C59.2748 36.8933 59.0588 36.7627 58.7281 36.64C58.3975 36.5173 57.8935 36.3653 57.2161 36.184C56.4748 35.992 55.8855 35.7867 55.4481 35.568C55.0161 35.344 54.7068 35.0853 54.5201 34.792C54.3388 34.4933 54.2481 34.1333 54.2481 33.712C54.2481 33.1893 54.3868 32.7333 54.6641 32.344C54.9415 31.9547 55.3308 31.6533 55.8321 31.44C56.3388 31.2267 56.9308 31.12 57.6081 31.12C58.2695 31.12 58.8588 31.224 59.3761 31.432C59.8935 31.64 60.3121 31.936 60.6321 32.32C60.9521 32.6987 61.1441 33.144 61.2081 33.656L59.4961 33.968C59.4375 33.552 59.2428 33.224 58.9121 32.984C58.5815 32.744 58.1521 32.6133 57.6241 32.592C57.1175 32.5707 56.7068 32.656 56.3921 32.848C56.0775 33.0347 55.9201 33.2933 55.9201 33.624C55.9201 33.816 55.9788 33.9787 56.0961 34.112C56.2188 34.2453 56.4535 34.3733 56.8001 34.496C57.1468 34.6187 57.6588 34.7653 58.3361 34.936C59.0615 35.1227 59.6375 35.3307 60.0641 35.56C60.4908 35.784 60.7948 36.0533 60.9761 36.368C61.1628 36.6773 61.2561 37.0533 61.2561 37.496C61.2561 38.3493 60.9441 39.0187 60.3201 39.504C59.7015 39.9893 58.8455 40.232 57.7521 40.232ZM67.3974 43.84L69.0694 39.288L69.0934 40.632L65.3254 31.36H67.0694L69.8854 38.52H69.3734L72.0614 31.36H73.7574L68.9894 43.84H67.3974ZM78.2138 40V31.36H79.7018V33.456L79.4938 33.184C79.6004 32.9067 79.7391 32.6533 79.9098 32.424C80.0804 32.1893 80.2778 31.9973 80.5018 31.848C80.7204 31.688 80.9631 31.5653 81.2298 31.48C81.5018 31.3893 81.7791 31.336 82.0618 31.32C82.3444 31.2987 82.6164 31.312 82.8778 31.36V32.928C82.5951 32.8533 82.2804 32.832 81.9338 32.864C81.5924 32.896 81.2778 33.0053 80.9898 33.192C80.7178 33.368 80.5018 33.5813 80.3418 33.832C80.1871 34.0827 80.0751 34.3627 80.0058 34.672C79.9364 34.976 79.9018 35.2987 79.9018 35.64V40H78.2138ZM88.077 40.24C87.2183 40.24 86.4637 40.0533 85.813 39.68C85.1677 39.3013 84.6637 38.776 84.301 38.104C83.9437 37.4267 83.765 36.6427 83.765 35.752C83.765 34.808 83.941 33.9893 84.293 33.296C84.6503 32.6027 85.1463 32.0667 85.781 31.688C86.4157 31.3093 87.1543 31.12 87.997 31.12C88.877 31.12 89.6263 31.3253 90.245 31.736C90.8637 32.1413 91.325 32.72 91.629 33.472C91.9383 34.224 92.061 35.1173 91.997 36.152H90.325V35.544C90.3143 34.5413 90.1223 33.8 89.749 33.32C89.381 32.84 88.8183 32.6 88.061 32.6C87.2237 32.6 86.5943 32.864 86.173 33.392C85.7517 33.92 85.541 34.6827 85.541 35.68C85.541 36.6293 85.7517 37.3653 86.173 37.888C86.5943 38.4053 87.2023 38.664 87.997 38.664C88.5197 38.664 88.9703 38.5467 89.349 38.312C89.733 38.072 90.0317 37.7307 90.245 37.288L91.885 37.808C91.549 38.5813 91.0397 39.1813 90.357 39.608C89.6743 40.0293 88.9143 40.24 88.077 40.24ZM84.997 36.152V34.848H91.165V36.152H84.997ZM97.0959 40.232C96.0452 40.232 95.1892 40 94.5279 39.536C93.8665 39.072 93.4612 38.4187 93.3119 37.576L95.0239 37.312C95.1305 37.76 95.3759 38.1147 95.7599 38.376C96.1492 38.632 96.6319 38.76 97.2079 38.76C97.7305 38.76 98.1385 38.6533 98.4319 38.44C98.7305 38.2267 98.8799 37.9333 98.8799 37.56C98.8799 37.3413 98.8265 37.1653 98.7199 37.032C98.6185 36.8933 98.4025 36.7627 98.0719 36.64C97.7412 36.5173 97.2372 36.3653 96.5599 36.184C95.8185 35.992 95.2292 35.7867 94.7919 35.568C94.3599 35.344 94.0505 35.0853 93.8639 34.792C93.6825 34.4933 93.5919 34.1333 93.5919 33.712C93.5919 33.1893 93.7305 32.7333 94.0079 32.344C94.2852 31.9547 94.6745 31.6533 95.1759 31.44C95.6825 31.2267 96.2745 31.12 96.9519 31.12C97.6132 31.12 98.2025 31.224 98.7199 31.432C99.2372 31.64 99.6559 31.936 99.9759 32.32C100.296 32.6987 100.488 33.144 100.552 33.656L98.8399 33.968C98.7812 33.552 98.5865 33.224 98.2559 32.984C97.9252 32.744 97.4959 32.6133 96.9679 32.592C96.4612 32.5707 96.0505 32.656 95.7359 32.848C95.4212 33.0347 95.2639 33.2933 95.2639 33.624C95.2639 33.816 95.3225 33.9787 95.4399 34.112C95.5625 34.2453 95.7972 34.3733 96.1439 34.496C96.4905 34.6187 97.0025 34.7653 97.6799 34.936C98.4052 35.1227 98.9812 35.3307 99.4079 35.56C99.8345 35.784 100.139 36.0533 100.32 36.368C100.507 36.6773 100.6 37.0533 100.6 37.496C100.6 38.3493 100.288 39.0187 99.6639 39.504C99.0452 39.9893 98.1892 40.232 97.0959 40.232ZM106.426 40.24C105.599 40.24 104.906 40.04 104.346 39.64C103.786 39.2347 103.362 38.688 103.074 38C102.786 37.312 102.642 36.536 102.642 35.672C102.642 34.808 102.783 34.032 103.066 33.344C103.354 32.656 103.775 32.1147 104.33 31.72C104.89 31.32 105.578 31.12 106.394 31.12C107.205 31.12 107.903 31.32 108.49 31.72C109.082 32.1147 109.538 32.656 109.858 33.344C110.178 34.0267 110.338 34.8027 110.338 35.672C110.338 36.536 110.178 37.3147 109.858 38.008C109.543 38.696 109.093 39.24 108.506 39.64C107.925 40.04 107.231 40.24 106.426 40.24ZM102.362 43.84V31.36H103.85V37.576H104.042V43.84H102.362ZM106.194 38.728C106.727 38.728 107.167 38.592 107.514 38.32C107.866 38.048 108.127 37.6827 108.298 37.224C108.474 36.76 108.562 36.2427 108.562 35.672C108.562 35.1067 108.474 34.5947 108.298 34.136C108.127 33.6773 107.863 33.312 107.506 33.04C107.149 32.768 106.693 32.632 106.138 32.632C105.615 32.632 105.183 32.76 104.842 33.016C104.506 33.272 104.255 33.6293 104.09 34.088C103.93 34.5467 103.85 35.0747 103.85 35.672C103.85 36.2693 103.93 36.7973 104.09 37.256C104.25 37.7147 104.503 38.0747 104.85 38.336C105.197 38.5973 105.645 38.728 106.194 38.728ZM115.856 40.24C114.992 40.24 114.243 40.0453 113.608 39.656C112.974 39.2667 112.483 38.7307 112.136 38.048C111.795 37.36 111.624 36.568 111.624 35.672C111.624 34.7707 111.8 33.9787 112.152 33.296C112.504 32.608 112.998 32.0747 113.632 31.696C114.267 31.312 115.008 31.12 115.856 31.12C116.72 31.12 117.47 31.3147 118.104 31.704C118.739 32.0933 119.23 32.6293 119.576 33.312C119.923 33.9947 120.096 34.7813 120.096 35.672C120.096 36.5733 119.92 37.368 119.568 38.056C119.222 38.7387 118.731 39.2747 118.096 39.664C117.462 40.048 116.715 40.24 115.856 40.24ZM115.856 38.664C116.683 38.664 117.299 38.3867 117.704 37.832C118.115 37.272 118.32 36.552 118.32 35.672C118.32 34.7707 118.112 34.0507 117.696 33.512C117.286 32.968 116.672 32.696 115.856 32.696C115.296 32.696 114.835 32.824 114.472 33.08C114.11 33.3307 113.84 33.68 113.664 34.128C113.488 34.5707 113.4 35.0853 113.4 35.672C113.4 36.5787 113.608 37.304 114.024 37.848C114.44 38.392 115.051 38.664 115.856 38.664ZM127.918 40V35.752C127.918 35.416 127.889 35.072 127.83 34.72C127.777 34.3627 127.67 34.032 127.51 33.728C127.356 33.424 127.134 33.1787 126.846 32.992C126.564 32.8053 126.193 32.712 125.734 32.712C125.436 32.712 125.153 32.7627 124.886 32.864C124.62 32.96 124.385 33.1173 124.182 33.336C123.985 33.5547 123.828 33.8427 123.71 34.2C123.598 34.5573 123.542 34.992 123.542 35.504L122.502 35.112C122.502 34.328 122.649 33.6373 122.942 33.04C123.236 32.4373 123.657 31.968 124.206 31.632C124.756 31.296 125.42 31.128 126.198 31.128C126.796 31.128 127.297 31.224 127.702 31.416C128.108 31.608 128.436 31.8613 128.686 32.176C128.942 32.4853 129.137 32.824 129.27 33.192C129.404 33.56 129.494 33.92 129.542 34.272C129.59 34.624 129.614 34.9333 129.614 35.2V40H127.918ZM121.846 40V31.36H123.342V33.856H123.542V40H121.846ZM135.002 40.232C133.951 40.232 133.095 40 132.434 39.536C131.773 39.072 131.367 38.4187 131.218 37.576L132.93 37.312C133.037 37.76 133.282 38.1147 133.666 38.376C134.055 38.632 134.538 38.76 135.114 38.76C135.637 38.76 136.045 38.6533 136.338 38.44C136.637 38.2267 136.786 37.9333 136.786 37.56C136.786 37.3413 136.733 37.1653 136.626 37.032C136.525 36.8933 136.309 36.7627 135.978 36.64C135.647 36.5173 135.143 36.3653 134.466 36.184C133.725 35.992 133.135 35.7867 132.698 35.568C132.266 35.344 131.957 35.0853 131.77 34.792C131.589 34.4933 131.498 34.1333 131.498 33.712C131.498 33.1893 131.637 32.7333 131.914 32.344C132.191 31.9547 132.581 31.6533 133.082 31.44C133.589 31.2267 134.181 31.12 134.858 31.12C135.519 31.12 136.109 31.224 136.626 31.432C137.143 31.64 137.562 31.936 137.882 32.32C138.202 32.6987 138.394 33.144 138.458 33.656L136.746 33.968C136.687 33.552 136.493 33.224 136.162 32.984C135.831 32.744 135.402 32.6133 134.874 32.592C134.367 32.5707 133.957 32.656 133.642 32.848C133.327 33.0347 133.17 33.2933 133.17 33.624C133.17 33.816 133.229 33.9787 133.346 34.112C133.469 34.2453 133.703 34.3733 134.05 34.496C134.397 34.6187 134.909 34.7653 135.586 34.936C136.311 35.1227 136.887 35.3307 137.314 35.56C137.741 35.784 138.045 36.0533 138.226 36.368C138.413 36.6773 138.506 37.0533 138.506 37.496C138.506 38.3493 138.194 39.0187 137.57 39.504C136.951 39.9893 136.095 40.232 135.002 40.232ZM142.716 40.24C142.076 40.24 141.54 40.1227 141.108 39.888C140.676 39.648 140.348 39.3333 140.124 38.944C139.906 38.5493 139.796 38.1173 139.796 37.648C139.796 37.2107 139.874 36.8267 140.028 36.496C140.183 36.1653 140.412 35.8853 140.716 35.656C141.02 35.4213 141.394 35.232 141.836 35.088C142.22 34.976 142.655 34.8773 143.14 34.792C143.626 34.7067 144.135 34.6267 144.668 34.552C145.207 34.4773 145.74 34.4027 146.268 34.328L145.66 34.664C145.671 33.9867 145.527 33.4853 145.228 33.16C144.935 32.8293 144.428 32.664 143.708 32.664C143.255 32.664 142.839 32.7707 142.46 32.984C142.082 33.192 141.818 33.5387 141.668 34.024L140.108 33.544C140.322 32.8027 140.727 32.2133 141.324 31.776C141.927 31.3387 142.727 31.12 143.724 31.12C144.498 31.12 145.17 31.2533 145.74 31.52C146.316 31.7813 146.738 32.1973 147.004 32.768C147.143 33.0507 147.228 33.3493 147.26 33.664C147.292 33.9787 147.308 34.3173 147.308 34.68V40H145.828V38.024L146.116 38.28C145.759 38.9413 145.303 39.4347 144.748 39.76C144.199 40.08 143.522 40.24 142.716 40.24ZM143.012 38.872C143.487 38.872 143.895 38.7893 144.236 38.624C144.578 38.4533 144.852 38.2373 145.06 37.976C145.268 37.7147 145.404 37.4427 145.468 37.16C145.559 36.904 145.61 36.616 145.62 36.296C145.636 35.976 145.644 35.72 145.644 35.528L146.188 35.728C145.66 35.808 145.18 35.88 144.748 35.944C144.316 36.008 143.924 36.072 143.572 36.136C143.226 36.1947 142.916 36.2667 142.644 36.352C142.415 36.432 142.21 36.528 142.028 36.64C141.852 36.752 141.711 36.888 141.604 37.048C141.503 37.208 141.452 37.4027 141.452 37.632C141.452 37.856 141.508 38.064 141.62 38.256C141.732 38.4427 141.903 38.592 142.132 38.704C142.362 38.816 142.655 38.872 143.012 38.872ZM153.442 40.24C152.615 40.24 151.922 40.04 151.362 39.64C150.802 39.2347 150.378 38.688 150.09 38C149.802 37.312 149.658 36.536 149.658 35.672C149.658 34.808 149.799 34.032 150.082 33.344C150.37 32.656 150.791 32.1147 151.346 31.72C151.906 31.32 152.594 31.12 153.41 31.12C154.22 31.12 154.919 31.32 155.506 31.72C156.098 32.1147 156.554 32.656 156.874 33.344C157.194 34.0267 157.354 34.8027 157.354 35.672C157.354 36.536 157.194 37.3147 156.874 38.008C156.559 38.696 156.108 39.24 155.522 39.64C154.94 40.04 154.247 40.24 153.442 40.24ZM149.378 40V28.48H151.058V33.784H150.866V40H149.378ZM153.21 38.728C153.743 38.728 154.183 38.592 154.53 38.32C154.882 38.048 155.143 37.6827 155.314 37.224C155.49 36.76 155.578 36.2427 155.578 35.672C155.578 35.1067 155.49 34.5947 155.314 34.136C155.143 33.6773 154.879 33.312 154.522 33.04C154.164 32.768 153.708 32.632 153.154 32.632C152.631 32.632 152.199 32.76 151.858 33.016C151.522 33.272 151.271 33.6293 151.106 34.088C150.946 34.5467 150.866 35.0747 150.866 35.672C150.866 36.2693 150.946 36.7973 151.106 37.256C151.266 37.7147 151.519 38.0747 151.866 38.336C152.212 38.5973 152.66 38.728 153.21 38.728ZM159.28 40V28.24H160.952V40H159.28ZM167.186 40.24C166.328 40.24 165.573 40.0533 164.922 39.68C164.277 39.3013 163.773 38.776 163.41 38.104C163.053 37.4267 162.874 36.6427 162.874 35.752C162.874 34.808 163.05 33.9893 163.402 33.296C163.76 32.6027 164.256 32.0667 164.89 31.688C165.525 31.3093 166.264 31.12 167.106 31.12C167.986 31.12 168.736 31.3253 169.354 31.736C169.973 32.1413 170.434 32.72 170.738 33.472C171.048 34.224 171.17 35.1173 171.106 36.152H169.434V35.544C169.424 34.5413 169.232 33.8 168.858 33.32C168.49 32.84 167.928 32.6 167.17 32.6C166.333 32.6 165.704 32.864 165.282 33.392C164.861 33.92 164.65 34.6827 164.65 35.68C164.65 36.6293 164.861 37.3653 165.282 37.888C165.704 38.4053 166.312 38.664 167.106 38.664C167.629 38.664 168.08 38.5467 168.458 38.312C168.842 38.072 169.141 37.7307 169.354 37.288L170.994 37.808C170.658 38.5813 170.149 39.1813 169.466 39.608C168.784 40.0293 168.024 40.24 167.186 40.24ZM164.106 36.152V34.848H170.274V36.152H164.106ZM176.205 40.232C175.155 40.232 174.299 40 173.637 39.536C172.976 39.072 172.571 38.4187 172.421 37.576L174.133 37.312C174.24 37.76 174.485 38.1147 174.869 38.376C175.259 38.632 175.741 38.76 176.317 38.76C176.84 38.76 177.248 38.6533 177.541 38.44C177.84 38.2267 177.989 37.9333 177.989 37.56C177.989 37.3413 177.936 37.1653 177.829 37.032C177.728 36.8933 177.512 36.7627 177.181 36.64C176.851 36.5173 176.347 36.3653 175.669 36.184C174.928 35.992 174.339 35.7867 173.901 35.568C173.469 35.344 173.16 35.0853 172.973 34.792C172.792 34.4933 172.701 34.1333 172.701 33.712C172.701 33.1893 172.84 32.7333 173.117 32.344C173.395 31.9547 173.784 31.6533 174.285 31.44C174.792 31.2267 175.384 31.12 176.061 31.12C176.723 31.12 177.312 31.224 177.829 31.432C178.347 31.64 178.765 31.936 179.085 32.32C179.405 32.6987 179.597 33.144 179.661 33.656L177.949 33.968C177.891 33.552 177.696 33.224 177.365 32.984C177.035 32.744 176.605 32.6133 176.077 32.592C175.571 32.5707 175.16 32.656 174.845 32.848C174.531 33.0347 174.373 33.2933 174.373 33.624C174.373 33.816 174.432 33.9787 174.549 34.112C174.672 34.2453 174.907 34.3733 175.253 34.496C175.6 34.6187 176.112 34.7653 176.789 34.936C177.515 35.1227 178.091 35.3307 178.517 35.56C178.944 35.784 179.248 36.0533 179.429 36.368C179.616 36.6773 179.709 37.0533 179.709 37.496C179.709 38.3493 179.397 39.0187 178.773 39.504C178.155 39.9893 177.299 40.232 176.205 40.232Z" fill="#1E1B1B"/>
</svg>
