<svg width="586" height="367" viewBox="0 0 586 367" fill="none" xmlns="http://www.w3.org/2000/svg">
<g filter="url(#filter0_d_13_898)">
<rect x="130" y="102" width="325.988" height="107" rx="53.5" fill="white" shape-rendering="crispEdges"/>
<rect x="124" y="96" width="337.988" height="119" rx="59.5" stroke="#E1E1E1" stroke-opacity="0.43" stroke-width="12" shape-rendering="crispEdges"/>
</g>
<path d="M254.333 141.738C255.454 139.583 258.537 139.583 259.657 141.738L261.936 146.122C262.357 146.932 263.124 147.506 264.02 147.682L268.92 148.645C271.207 149.094 272.13 151.866 270.57 153.597L266.985 157.575C266.402 158.221 266.129 159.089 266.236 159.952L266.889 165.232C267.183 167.606 264.716 169.352 262.575 168.286L258.332 166.174C257.49 165.754 256.5 165.754 255.658 166.174L251.416 168.286C249.274 169.352 246.808 167.606 247.101 165.232L247.754 159.952C247.861 159.089 247.588 158.221 247.006 157.575L243.42 153.597C241.86 151.866 242.784 149.094 245.07 148.645L249.971 147.682C250.866 147.506 251.633 146.932 252.054 146.122L254.333 141.738Z" fill="#FFB648"/>
<path d="M292.332 141.738C293.452 139.583 296.535 139.583 297.656 141.738L299.935 146.122C300.356 146.932 301.123 147.506 302.018 147.682L306.918 148.645C309.205 149.094 310.129 151.866 308.569 153.597L304.983 157.575C304.401 158.221 304.128 159.089 304.235 159.952L304.888 165.232C305.181 167.606 302.714 169.352 300.573 168.286L296.331 166.174C295.489 165.754 294.499 165.754 293.656 166.174L289.414 168.286C287.273 169.352 284.806 167.606 285.1 165.232L285.753 159.952C285.86 159.089 285.586 158.221 285.004 157.575L281.419 153.597C279.858 151.866 280.782 149.094 283.069 148.645L287.969 147.682C288.865 147.506 289.632 146.932 290.053 146.122L292.332 141.738Z" fill="#FFB648"/>
<path d="M329.331 141.738C330.451 139.583 333.534 139.583 334.654 141.738L336.934 146.122C337.355 146.932 338.121 147.506 339.017 147.682L343.917 148.645C346.204 149.094 347.128 151.866 345.567 153.597L341.982 157.575C341.4 158.221 341.127 159.089 341.233 159.952L341.887 165.232C342.18 167.606 339.713 169.352 337.572 168.286L333.33 166.174C332.488 165.754 331.497 165.754 330.655 166.174L326.413 168.286C324.272 169.352 321.805 167.606 322.098 165.232L322.752 159.952C322.858 159.089 322.585 158.221 322.003 157.575L318.418 153.597C316.857 151.866 317.781 149.094 320.068 148.645L324.968 147.682C325.864 147.506 326.63 146.932 327.051 146.122L329.331 141.738Z" fill="#FFB648"/>
<path d="M367.329 141.738C368.45 139.583 371.533 139.583 372.653 141.738L374.932 146.122C375.353 146.932 376.12 147.506 377.016 147.682L381.916 148.645C384.203 149.094 385.126 151.866 383.566 153.597L379.981 157.575C379.398 158.221 379.125 159.089 379.232 159.952L379.885 165.232C380.179 167.606 377.712 169.352 375.57 168.286L371.328 166.174C370.486 165.754 369.496 165.754 368.654 166.174L364.412 168.286C362.27 169.352 359.803 167.606 360.097 165.232L360.75 159.952C360.857 159.089 360.584 158.221 360.001 157.575L356.416 153.597C354.856 151.866 355.779 149.094 358.066 148.645L362.966 147.682C363.862 147.506 364.629 146.932 365.05 146.122L367.329 141.738Z" fill="#FFB648"/>
<path d="M403.328 141.738C404.448 139.583 407.531 139.583 408.651 141.738L410.931 146.122C411.352 146.932 412.118 147.506 413.014 147.682L417.914 148.645C420.201 149.094 421.125 151.866 419.565 153.597L415.979 157.575C415.397 158.221 415.124 159.089 415.23 159.952L415.884 165.232C416.177 167.606 413.71 169.352 411.569 168.286L407.327 166.174C406.485 165.754 405.494 165.754 404.652 166.174L400.41 168.286C398.269 169.352 395.802 167.606 396.096 165.232L396.749 159.952C396.855 159.089 396.582 158.221 396 157.575L392.415 153.597C390.854 151.866 391.778 149.094 394.065 148.645L398.965 147.682C399.861 147.506 400.628 146.932 401.049 146.122L403.328 141.738Z" fill="#D7D1C7"/>
<mask id="mask0_13_898" style="mask-type:alpha" maskUnits="userSpaceOnUse" x="391" y="140" width="30" height="29">
<path d="M403.328 141.738C404.448 139.583 407.531 139.583 408.651 141.738L410.931 146.122C411.352 146.932 412.118 147.506 413.014 147.682L417.914 148.645C420.201 149.094 421.125 151.866 419.565 153.597L415.979 157.575C415.397 158.221 415.124 159.089 415.23 159.952L415.884 165.232C416.177 167.606 413.71 169.352 411.569 168.286L407.327 166.174C406.485 165.754 405.494 165.754 404.652 166.174L400.41 168.286C398.269 169.352 395.802 167.606 396.096 165.232L396.749 159.952C396.855 159.089 396.582 158.221 396 157.575L392.415 153.597C390.854 151.866 391.778 149.094 394.065 148.645L398.965 147.682C399.861 147.506 400.628 146.932 401.049 146.122L403.328 141.738Z" fill="#D7D1C7"/>
</mask>
<g mask="url(#mask0_13_898)">
<rect x="404.99" y="176.48" width="15.9994" height="45.1078" transform="rotate(-180 404.99 176.48)" fill="#FFB648"/>
</g>
<path opacity="0.7" d="M163.935 173.5L160.079 161.98H161.559L164.911 171.988L168.295 161.98H169.775L165.919 173.5H163.935ZM172.715 173.74C172.07 173.74 171.529 173.623 171.091 173.388C170.659 173.148 170.331 172.833 170.107 172.444C169.889 172.055 169.779 171.628 169.779 171.164C169.779 170.711 169.865 170.319 170.035 169.988C170.211 169.652 170.457 169.375 170.771 169.156C171.086 168.932 171.462 168.756 171.899 168.628C172.31 168.516 172.769 168.42 173.275 168.34C173.787 168.255 174.305 168.177 174.827 168.108C175.35 168.039 175.838 167.972 176.291 167.908L175.779 168.204C175.795 167.436 175.641 166.868 175.315 166.5C174.995 166.132 174.441 165.948 173.651 165.948C173.129 165.948 172.67 166.068 172.275 166.308C171.886 166.543 171.611 166.927 171.451 167.46L170.099 167.052C170.307 166.295 170.71 165.7 171.307 165.268C171.905 164.836 172.691 164.62 173.667 164.62C174.451 164.62 175.123 164.761 175.683 165.044C176.249 165.321 176.654 165.743 176.899 166.308C177.022 166.575 177.099 166.865 177.131 167.18C177.163 167.489 177.179 167.815 177.179 168.156V173.5H175.915V171.428L176.211 171.62C175.886 172.319 175.43 172.847 174.843 173.204C174.262 173.561 173.553 173.74 172.715 173.74ZM172.931 172.548C173.443 172.548 173.886 172.457 174.259 172.276C174.638 172.089 174.942 171.847 175.171 171.548C175.401 171.244 175.55 170.913 175.619 170.556C175.699 170.289 175.742 169.993 175.747 169.668C175.758 169.337 175.763 169.084 175.763 168.908L176.259 169.124C175.795 169.188 175.339 169.249 174.891 169.308C174.443 169.367 174.019 169.431 173.619 169.5C173.219 169.564 172.859 169.641 172.539 169.732C172.305 169.807 172.083 169.903 171.875 170.02C171.673 170.137 171.507 170.289 171.379 170.476C171.257 170.657 171.195 170.884 171.195 171.156C171.195 171.391 171.254 171.615 171.371 171.828C171.494 172.041 171.681 172.215 171.931 172.348C172.187 172.481 172.521 172.548 172.931 172.548ZM179.419 173.5V161.74H180.843V173.5H179.419ZM186.924 173.74C186.065 173.74 185.324 173.545 184.7 173.156C184.081 172.767 183.604 172.228 183.268 171.54C182.932 170.852 182.764 170.063 182.764 169.172C182.764 168.265 182.934 167.471 183.276 166.788C183.617 166.105 184.1 165.575 184.724 165.196C185.348 164.812 186.081 164.62 186.924 164.62C187.788 164.62 188.532 164.815 189.156 165.204C189.78 165.588 190.257 166.124 190.588 166.812C190.924 167.495 191.092 168.281 191.092 169.172C191.092 170.073 190.924 170.868 190.588 171.556C190.252 172.239 189.772 172.775 189.148 173.164C188.524 173.548 187.782 173.74 186.924 173.74ZM186.924 172.388C187.82 172.388 188.486 172.089 188.924 171.492C189.361 170.895 189.58 170.121 189.58 169.172C189.58 168.196 189.358 167.42 188.916 166.844C188.473 166.263 187.809 165.972 186.924 165.972C186.321 165.972 185.825 166.108 185.436 166.38C185.046 166.652 184.756 167.028 184.564 167.508C184.372 167.988 184.276 168.543 184.276 169.172C184.276 170.143 184.5 170.921 184.948 171.508C185.396 172.095 186.054 172.388 186.924 172.388ZM192.853 173.5V164.86H194.125V166.948L193.917 166.676C194.018 166.409 194.149 166.164 194.309 165.94C194.474 165.716 194.658 165.532 194.861 165.388C195.085 165.207 195.338 165.068 195.621 164.972C195.904 164.876 196.192 164.82 196.485 164.804C196.778 164.783 197.053 164.801 197.309 164.86V166.196C197.01 166.116 196.682 166.095 196.325 166.132C195.968 166.169 195.637 166.3 195.333 166.524C195.056 166.721 194.84 166.961 194.685 167.244C194.536 167.527 194.432 167.833 194.373 168.164C194.314 168.489 194.285 168.823 194.285 169.164V173.5H192.853ZM200.997 173.74C200.351 173.74 199.81 173.623 199.373 173.388C198.941 173.148 198.613 172.833 198.389 172.444C198.17 172.055 198.061 171.628 198.061 171.164C198.061 170.711 198.146 170.319 198.317 169.988C198.493 169.652 198.738 169.375 199.053 169.156C199.367 168.932 199.743 168.756 200.181 168.628C200.591 168.516 201.05 168.42 201.557 168.34C202.069 168.255 202.586 168.177 203.109 168.108C203.631 168.039 204.119 167.972 204.573 167.908L204.061 168.204C204.077 167.436 203.922 166.868 203.597 166.5C203.277 166.132 202.722 165.948 201.933 165.948C201.41 165.948 200.951 166.068 200.557 166.308C200.167 166.543 199.893 166.927 199.733 167.46L198.381 167.052C198.589 166.295 198.991 165.7 199.589 165.268C200.186 164.836 200.973 164.62 201.949 164.62C202.733 164.62 203.405 164.761 203.965 165.044C204.53 165.321 204.935 165.743 205.181 166.308C205.303 166.575 205.381 166.865 205.413 167.18C205.445 167.489 205.461 167.815 205.461 168.156V173.5H204.197V171.428L204.493 171.62C204.167 172.319 203.711 172.847 203.125 173.204C202.543 173.561 201.834 173.74 200.997 173.74ZM201.213 172.548C201.725 172.548 202.167 172.457 202.541 172.276C202.919 172.089 203.223 171.847 203.453 171.548C203.682 171.244 203.831 170.913 203.901 170.556C203.981 170.289 204.023 169.993 204.029 169.668C204.039 169.337 204.045 169.084 204.045 168.908L204.541 169.124C204.077 169.188 203.621 169.249 203.173 169.308C202.725 169.367 202.301 169.431 201.901 169.5C201.501 169.564 201.141 169.641 200.821 169.732C200.586 169.807 200.365 169.903 200.157 170.02C199.954 170.137 199.789 170.289 199.661 170.476C199.538 170.657 199.477 170.884 199.477 171.156C199.477 171.391 199.535 171.615 199.653 171.828C199.775 172.041 199.962 172.215 200.213 172.348C200.469 172.481 200.802 172.548 201.213 172.548ZM211.181 173.74C210.306 173.74 209.562 173.545 208.949 173.156C208.341 172.761 207.877 172.22 207.557 171.532C207.237 170.844 207.071 170.06 207.061 169.18C207.071 168.279 207.239 167.487 207.565 166.804C207.895 166.116 208.367 165.58 208.981 165.196C209.594 164.812 210.333 164.62 211.197 164.62C212.109 164.62 212.893 164.844 213.549 165.292C214.21 165.74 214.653 166.353 214.877 167.132L213.469 167.556C213.287 167.055 212.991 166.665 212.581 166.388C212.175 166.111 211.709 165.972 211.181 165.972C210.589 165.972 210.101 166.111 209.717 166.388C209.333 166.66 209.047 167.039 208.861 167.524C208.674 168.004 208.578 168.556 208.573 169.18C208.583 170.14 208.805 170.916 209.237 171.508C209.674 172.095 210.322 172.388 211.181 172.388C211.746 172.388 212.215 172.26 212.589 172.004C212.962 171.743 213.245 171.367 213.437 170.876L214.877 171.252C214.578 172.057 214.111 172.673 213.477 173.1C212.842 173.527 212.077 173.74 211.181 173.74ZM216.435 163.332V161.86H217.859V163.332H216.435ZM216.435 173.5V164.86H217.859V173.5H216.435ZM224.523 163.54H223.363L224.411 160.9H225.571L224.523 163.54ZM223.939 173.74C223.081 173.74 222.339 173.545 221.715 173.156C221.097 172.767 220.619 172.228 220.283 171.54C219.947 170.852 219.779 170.063 219.779 169.172C219.779 168.265 219.95 167.471 220.291 166.788C220.633 166.105 221.115 165.575 221.739 165.196C222.363 164.812 223.097 164.62 223.939 164.62C224.803 164.62 225.547 164.815 226.171 165.204C226.795 165.588 227.273 166.124 227.603 166.812C227.939 167.495 228.107 168.281 228.107 169.172C228.107 170.073 227.939 170.868 227.603 171.556C227.267 172.239 226.787 172.775 226.163 173.164C225.539 173.548 224.798 173.74 223.939 173.74ZM223.939 172.388C224.835 172.388 225.502 172.089 225.939 171.492C226.377 170.895 226.595 170.121 226.595 169.172C226.595 168.196 226.374 167.42 225.931 166.844C225.489 166.263 224.825 165.972 223.939 165.972C223.337 165.972 222.841 166.108 222.451 166.38C222.062 166.652 221.771 167.028 221.579 167.508C221.387 167.988 221.291 168.543 221.291 169.172C221.291 170.143 221.515 170.921 221.963 171.508C222.411 172.095 223.07 172.388 223.939 172.388ZM236.021 173.5V169.172C236.021 168.761 235.983 168.367 235.909 167.988C235.839 167.609 235.714 167.271 235.533 166.972C235.357 166.668 235.117 166.428 234.813 166.252C234.514 166.076 234.135 165.988 233.677 165.988C233.319 165.988 232.994 166.049 232.701 166.172C232.413 166.289 232.165 166.471 231.957 166.716C231.749 166.961 231.586 167.271 231.469 167.644C231.357 168.012 231.301 168.447 231.301 168.948L230.365 168.66C230.365 167.823 230.514 167.105 230.813 166.508C231.117 165.905 231.541 165.444 232.085 165.124C232.634 164.799 233.279 164.636 234.021 164.636C234.581 164.636 235.058 164.724 235.453 164.9C235.847 165.076 236.175 165.311 236.437 165.604C236.698 165.892 236.903 166.217 237.053 166.58C237.202 166.937 237.306 167.303 237.365 167.676C237.429 168.044 237.461 168.393 237.461 168.724V173.5H236.021ZM229.861 173.5V164.86H231.141V167.172H231.301V173.5H229.861Z" fill="black"/>
<path d="M176.999 154.177V151.165H169.199V148.789L174.815 136.897H177.683L172.067 148.789H176.999V144.109H179.543V148.789H181.259V151.165H179.543V154.177H176.999ZM183.383 154.177V151.525H186.035V154.177H183.383ZM196.418 154.177V151.165H188.618V148.789L194.234 136.897H197.102L191.486 148.789H196.418V144.109H198.962V148.789H200.678V151.165H198.962V154.177H196.418ZM207.207 136.897H209.739L205.131 154.177H202.599L207.207 136.897ZM217.274 154.537C216.386 154.537 215.558 154.357 214.79 153.997C214.03 153.629 213.378 153.125 212.834 152.485C212.29 151.837 211.902 151.093 211.67 150.253L214.082 149.605C214.218 150.117 214.45 150.561 214.778 150.937C215.114 151.313 215.506 151.605 215.954 151.813C216.402 152.013 216.866 152.113 217.346 152.113C217.978 152.113 218.55 151.961 219.062 151.657C219.582 151.353 219.99 150.945 220.286 150.433C220.59 149.921 220.742 149.357 220.742 148.741C220.742 148.109 220.586 147.537 220.274 147.025C219.97 146.513 219.558 146.109 219.038 145.813C218.526 145.509 217.962 145.357 217.346 145.357C216.642 145.357 216.046 145.497 215.558 145.777C215.07 146.057 214.69 146.381 214.418 146.749L212.234 145.981L212.762 136.897H222.086V139.261H214.046L215.066 138.313L214.646 145.117L214.154 144.481C214.61 144.025 215.154 143.677 215.786 143.437C216.418 143.197 217.046 143.077 217.67 143.077C218.742 143.077 219.698 143.325 220.538 143.821C221.386 144.317 222.054 144.993 222.542 145.849C223.03 146.697 223.274 147.661 223.274 148.741C223.274 149.813 222.998 150.789 222.446 151.669C221.894 152.541 221.162 153.237 220.25 153.757C219.338 154.277 218.346 154.537 217.274 154.537Z" fill="black"/>
<defs>
<filter id="filter0_d_13_898" x="0" y="0" width="585.988" height="367" filterUnits="userSpaceOnUse" color-interpolation-filters="sRGB">
<feFlood flood-opacity="0" result="BackgroundImageFix"/>
<feColorMatrix in="SourceAlpha" type="matrix" values="0 0 0 0 0 0 0 0 0 0 0 0 0 0 0 0 0 0 127 0" result="hardAlpha"/>
<feOffset dy="28"/>
<feGaussianBlur stdDeviation="59"/>
<feComposite in2="hardAlpha" operator="out"/>
<feColorMatrix type="matrix" values="0 0 0 0 0.427425 0 0 0 0 0.42375 0 0 0 0 0.45 0 0 0 0.12 0"/>
<feBlend mode="normal" in2="BackgroundImageFix" result="effect1_dropShadow_13_898"/>
<feBlend mode="normal" in="SourceGraphic" in2="effect1_dropShadow_13_898" result="shape"/>
</filter>
</defs>
</svg>
