<svg width="542" height="361" viewBox="0 0 542 361" fill="none" xmlns="http://www.w3.org/2000/svg">
<g filter="url(#filter0_d_13_891)">
<path d="M130 152.461C130 124.592 152.592 102 180.461 102H361.174C389.043 102 411.635 124.592 411.635 152.461C411.635 180.33 389.043 202.923 361.174 202.923H180.461C152.592 202.923 130 180.33 130 152.461Z" fill="url(#paint0_linear_13_891)" shape-rendering="crispEdges"/>
<path d="M361.174 96C392.356 96 417.635 121.278 417.635 152.461C417.635 183.644 392.357 208.923 361.174 208.923H180.461C149.278 208.923 124 183.644 124 152.461C124 121.279 149.279 96.0002 180.461 96H361.174Z" stroke="#E1E1E1" stroke-opacity="0.43" stroke-width="12" shape-rendering="crispEdges"/>
</g>
<path d="M234.828 160.033C233.62 160.033 232.576 159.733 231.696 159.133C230.824 158.533 230.148 157.717 229.668 156.685C229.196 155.645 228.96 154.477 228.96 153.181C228.96 151.877 229.2 150.713 229.68 149.689C230.16 148.657 230.84 147.845 231.72 147.253C232.608 146.653 233.66 146.353 234.876 146.353C236.1 146.353 237.128 146.653 237.96 147.253C238.8 147.845 239.432 148.657 239.856 149.689C240.288 150.721 240.504 151.885 240.504 153.181C240.504 154.477 240.288 155.641 239.856 156.673C239.424 157.705 238.788 158.525 237.948 159.133C237.108 159.733 236.068 160.033 234.828 160.033ZM235.176 157.765C236 157.765 236.672 157.569 237.192 157.177C237.712 156.785 238.092 156.245 238.332 155.557C238.572 154.869 238.692 154.077 238.692 153.181C238.692 152.285 238.568 151.493 238.32 150.805C238.08 150.117 237.704 149.581 237.192 149.197C236.688 148.813 236.044 148.621 235.26 148.621C234.428 148.621 233.744 148.825 233.208 149.233C232.672 149.641 232.272 150.189 232.008 150.877C231.752 151.565 231.624 152.333 231.624 153.181C231.624 154.037 231.752 154.813 232.008 155.509C232.272 156.197 232.664 156.745 233.184 157.153C233.712 157.561 234.376 157.765 235.176 157.765ZM238.692 159.673V150.349H238.404V142.393H240.924V159.673H238.692ZM249.31 160.033C248.022 160.033 246.89 159.753 245.914 159.193C244.946 158.625 244.19 157.837 243.646 156.829C243.11 155.813 242.842 154.637 242.842 153.301C242.842 151.885 243.106 150.657 243.634 149.617C244.17 148.577 244.914 147.773 245.866 147.205C246.818 146.637 247.926 146.353 249.19 146.353C250.51 146.353 251.634 146.661 252.562 147.277C253.49 147.885 254.182 148.753 254.638 149.881C255.102 151.009 255.286 152.349 255.19 153.901H252.682V152.989C252.666 151.485 252.378 150.373 251.818 149.653C251.266 148.933 250.422 148.573 249.286 148.573C248.03 148.573 247.086 148.969 246.454 149.761C245.822 150.553 245.506 151.697 245.506 153.193C245.506 154.617 245.822 155.721 246.454 156.505C247.086 157.281 247.998 157.669 249.19 157.669C249.974 157.669 250.65 157.493 251.218 157.141C251.794 156.781 252.242 156.269 252.562 155.605L255.022 156.385C254.518 157.545 253.754 158.445 252.73 159.085C251.706 159.717 250.566 160.033 249.31 160.033ZM244.69 153.901V151.945H253.942V153.901H244.69ZM266.203 160.021C264.627 160.021 263.343 159.673 262.351 158.977C261.359 158.281 260.751 157.301 260.527 156.037L263.095 155.641C263.255 156.313 263.623 156.845 264.199 157.237C264.783 157.621 265.507 157.813 266.371 157.813C267.155 157.813 267.767 157.653 268.207 157.333C268.655 157.013 268.879 156.573 268.879 156.013C268.879 155.685 268.799 155.421 268.639 155.221C268.487 155.013 268.163 154.817 267.667 154.633C267.171 154.449 266.415 154.221 265.399 153.949C264.287 153.661 263.403 153.353 262.747 153.025C262.099 152.689 261.635 152.301 261.355 151.861C261.083 151.413 260.947 150.873 260.947 150.241C260.947 149.457 261.155 148.773 261.571 148.189C261.987 147.605 262.571 147.153 263.323 146.833C264.083 146.513 264.971 146.353 265.987 146.353C266.979 146.353 267.863 146.509 268.639 146.821C269.415 147.133 270.043 147.577 270.523 148.153C271.003 148.721 271.291 149.389 271.387 150.157L268.819 150.625C268.731 150.001 268.439 149.509 267.943 149.149C267.447 148.789 266.803 148.593 266.011 148.561C265.251 148.529 264.635 148.657 264.163 148.945C263.691 149.225 263.455 149.613 263.455 150.109C263.455 150.397 263.543 150.641 263.719 150.841C263.903 151.041 264.255 151.233 264.775 151.417C265.295 151.601 266.063 151.821 267.079 152.077C268.167 152.357 269.031 152.669 269.671 153.013C270.311 153.349 270.767 153.753 271.039 154.225C271.319 154.689 271.459 155.253 271.459 155.917C271.459 157.197 270.991 158.201 270.055 158.929C269.127 159.657 267.843 160.021 266.203 160.021ZM279.142 160.033C277.854 160.033 276.722 159.753 275.746 159.193C274.778 158.625 274.022 157.837 273.478 156.829C272.942 155.813 272.674 154.637 272.674 153.301C272.674 151.885 272.938 150.657 273.466 149.617C274.002 148.577 274.746 147.773 275.698 147.205C276.65 146.637 277.758 146.353 279.022 146.353C280.342 146.353 281.466 146.661 282.394 147.277C283.322 147.885 284.014 148.753 284.47 149.881C284.934 151.009 285.118 152.349 285.022 153.901H282.514V152.989C282.498 151.485 282.21 150.373 281.65 149.653C281.098 148.933 280.254 148.573 279.118 148.573C277.862 148.573 276.918 148.969 276.286 149.761C275.654 150.553 275.338 151.697 275.338 153.193C275.338 154.617 275.654 155.721 276.286 156.505C276.918 157.281 277.83 157.669 279.022 157.669C279.806 157.669 280.482 157.493 281.05 157.141C281.626 156.781 282.074 156.269 282.394 155.605L284.854 156.385C284.35 157.545 283.586 158.445 282.562 159.085C281.538 159.717 280.398 160.033 279.142 160.033ZM274.522 153.901V151.945H283.774V153.901H274.522ZM286.994 159.673V146.713H289.226V149.857L288.914 149.449C289.074 149.033 289.282 148.653 289.538 148.309C289.794 147.957 290.09 147.669 290.426 147.445C290.754 147.205 291.118 147.021 291.518 146.893C291.926 146.757 292.342 146.677 292.766 146.653C293.19 146.621 293.598 146.641 293.99 146.713V149.065C293.566 148.953 293.094 148.921 292.574 148.969C292.062 149.017 291.59 149.181 291.158 149.461C290.75 149.725 290.426 150.045 290.186 150.421C289.954 150.797 289.786 151.217 289.682 151.681C289.578 152.137 289.526 152.621 289.526 153.133V159.673H286.994ZM299.059 159.673L294.355 146.713H296.887L300.331 156.529L303.775 146.713H306.307L301.603 159.673H299.059ZM307.989 144.589V142.153H310.497V144.589H307.989ZM307.989 159.673V146.713H310.497V159.673H307.989ZM318.925 160.033C317.597 160.033 316.469 159.737 315.541 159.145C314.613 158.553 313.901 157.741 313.405 156.709C312.917 155.677 312.669 154.505 312.661 153.193C312.669 151.857 312.925 150.677 313.429 149.653C313.933 148.621 314.653 147.813 315.589 147.229C316.525 146.645 317.649 146.353 318.961 146.353C320.377 146.353 321.585 146.705 322.585 147.409C323.593 148.113 324.257 149.077 324.577 150.301L322.081 151.021C321.833 150.293 321.425 149.729 320.857 149.329C320.297 148.921 319.653 148.717 318.925 148.717C318.101 148.717 317.425 148.913 316.897 149.305C316.369 149.689 315.977 150.217 315.721 150.889C315.465 151.561 315.333 152.329 315.325 153.193C315.333 154.529 315.637 155.609 316.237 156.433C316.845 157.257 317.741 157.669 318.925 157.669C319.733 157.669 320.385 157.485 320.881 157.117C321.385 156.741 321.769 156.205 322.033 155.509L324.577 156.109C324.153 157.373 323.453 158.345 322.477 159.025C321.501 159.697 320.317 160.033 318.925 160.033ZM326.19 144.589V142.153H328.698V144.589H326.19ZM326.19 159.673V146.713H328.698V159.673H326.19ZM337.21 160.033C335.914 160.033 334.79 159.741 333.838 159.157C332.886 158.573 332.15 157.769 331.63 156.745C331.118 155.713 330.862 154.525 330.862 153.181C330.862 151.829 331.126 150.641 331.654 149.617C332.182 148.585 332.922 147.785 333.874 147.217C334.826 146.641 335.938 146.353 337.21 146.353C338.506 146.353 339.63 146.645 340.582 147.229C341.534 147.813 342.27 148.617 342.79 149.641C343.31 150.665 343.57 151.845 343.57 153.181C343.57 154.533 343.306 155.725 342.778 156.757C342.258 157.781 341.522 158.585 340.57 159.169C339.618 159.745 338.498 160.033 337.21 160.033ZM337.21 157.669C338.45 157.669 339.374 157.253 339.982 156.421C340.598 155.581 340.906 154.501 340.906 153.181C340.906 151.829 340.594 150.749 339.97 149.941C339.354 149.125 338.434 148.717 337.21 148.717C336.37 148.717 335.678 148.909 335.134 149.293C334.59 149.669 334.186 150.193 333.922 150.865C333.658 151.529 333.526 152.301 333.526 153.181C333.526 154.541 333.838 155.629 334.462 156.445C335.086 157.261 336.002 157.669 337.21 157.669Z" fill="#1E1B1B"/>
<ellipse cx="178.763" cy="151.472" rx="34.8312" ry="34.6303" fill="#5CBA99"/>
<path d="M194.904 159.599V155.351C194.904 155.015 194.875 154.671 194.816 154.319C194.763 153.961 194.656 153.631 194.496 153.327C194.342 153.023 194.12 152.777 193.832 152.591C193.55 152.404 193.179 152.311 192.72 152.311C192.422 152.311 192.139 152.361 191.872 152.463C191.606 152.559 191.371 152.716 191.168 152.935C190.971 153.153 190.814 153.441 190.696 153.799C190.584 154.156 190.528 154.591 190.528 155.103L189.488 154.711C189.488 153.927 189.635 153.236 189.928 152.639C190.222 152.036 190.643 151.567 191.192 151.231C191.742 150.895 192.406 150.727 193.184 150.727C193.782 150.727 194.283 150.823 194.688 151.015C195.094 151.207 195.422 151.46 195.672 151.775C195.928 152.084 196.123 152.423 196.256 152.791C196.39 153.159 196.48 153.519 196.528 153.871C196.576 154.223 196.6 154.532 196.6 154.799V159.599H194.904ZM188.832 159.599V148.079H190.328V154.295H190.528V159.599H188.832ZM198.684 159.599V150.959H200.172V153.055L199.964 152.783C200.071 152.505 200.209 152.252 200.38 152.023C200.551 151.788 200.748 151.596 200.972 151.447C201.191 151.287 201.433 151.164 201.7 151.079C201.972 150.988 202.249 150.935 202.532 150.919C202.815 150.897 203.087 150.911 203.348 150.959V152.527C203.065 152.452 202.751 152.431 202.404 152.463C202.063 152.495 201.748 152.604 201.46 152.791C201.188 152.967 200.972 153.18 200.812 153.431C200.657 153.681 200.545 153.961 200.476 154.271C200.407 154.575 200.372 154.897 200.372 155.239V159.599H198.684Z" fill="white"/>
<path d="M161.561 160.662V146.142L158.309 148.122V145.326L161.561 143.382H164.117V160.662H161.561ZM173.978 161.022C172.802 161.022 171.762 160.766 170.858 160.254C169.954 159.734 169.242 159.022 168.722 158.118C168.21 157.214 167.954 156.174 167.954 154.998V149.046C167.954 147.87 168.21 146.83 168.722 145.926C169.242 145.022 169.954 144.314 170.858 143.802C171.762 143.282 172.802 143.022 173.978 143.022C175.154 143.022 176.194 143.282 177.098 143.802C178.002 144.314 178.71 145.022 179.222 145.926C179.742 146.83 180.002 147.87 180.002 149.046V154.998C180.002 156.174 179.742 157.214 179.222 158.118C178.71 159.022 178.002 159.734 177.098 160.254C176.194 160.766 175.154 161.022 173.978 161.022ZM173.978 158.622C174.618 158.622 175.198 158.47 175.718 158.166C176.246 157.854 176.666 157.438 176.978 156.918C177.29 156.39 177.446 155.802 177.446 155.154V148.866C177.446 148.226 177.29 147.646 176.978 147.126C176.666 146.598 176.246 146.182 175.718 145.878C175.198 145.566 174.618 145.41 173.978 145.41C173.338 145.41 172.754 145.566 172.226 145.878C171.706 146.182 171.29 146.598 170.978 147.126C170.666 147.646 170.51 148.226 170.51 148.866V155.154C170.51 155.802 170.666 156.39 170.978 156.918C171.29 157.438 171.706 157.854 172.226 158.166C172.754 158.47 173.338 158.622 173.978 158.622Z" fill="white"/>
<defs>
<filter id="filter0_d_13_891" x="0" y="0" width="541.635" height="360.923" filterUnits="userSpaceOnUse" color-interpolation-filters="sRGB">
<feFlood flood-opacity="0" result="BackgroundImageFix"/>
<feColorMatrix in="SourceAlpha" type="matrix" values="0 0 0 0 0 0 0 0 0 0 0 0 0 0 0 0 0 0 127 0" result="hardAlpha"/>
<feOffset dy="28"/>
<feGaussianBlur stdDeviation="59"/>
<feComposite in2="hardAlpha" operator="out"/>
<feColorMatrix type="matrix" values="0 0 0 0 0.427425 0 0 0 0 0.42375 0 0 0 0 0.45 0 0 0 0.12 0"/>
<feBlend mode="normal" in2="BackgroundImageFix" result="effect1_dropShadow_13_891"/>
<feBlend mode="normal" in="SourceGraphic" in2="effect1_dropShadow_13_891" result="shape"/>
</filter>
<linearGradient id="paint0_linear_13_891" x1="246.933" y1="-7.82754" x2="350.825" y2="323.978" gradientUnits="userSpaceOnUse">
<stop stop-color="white"/>
<stop offset="1" stop-color="white"/>
</linearGradient>
</defs>
</svg>
